<svg xmlns="http://www.w3.org/2000/svg" xmlns:xlink="http://www.w3.org/1999/xlink" width="600" zoomAndPan="magnify" viewBox="0 0 450 225" height="300" preserveAspectRatio="xMidYMid meet" version="1.0"><defs><linearGradient x1="0" gradientTransform="matrix(0.75, 0, 0, 0.75, 0, 0.00001)" y1="0" x2="599.999975" gradientUnits="userSpaceOnUse" y2="0" id="9ff0ece022"><stop stop-opacity="1" stop-color="rgb(0%, 28.999329%, 67.799377%)" offset="0"/><stop stop-opacity="1" stop-color="rgb(0.102234%, 29.013062%, 67.681885%)" offset="0.0078125"/><stop stop-opacity="1" stop-color="rgb(0.306702%, 29.040527%, 67.449951%)" offset="0.015625"/><stop stop-opacity="1" stop-color="rgb(0.512695%, 29.067993%, 67.216492%)" offset="0.0234375"/><stop stop-opacity="1" stop-color="rgb(0.717163%, 29.095459%, 66.984558%)" offset="0.03125"/><stop stop-opacity="1" stop-color="rgb(0.923157%, 29.122925%, 66.751099%)" offset="0.0390625"/><stop stop-opacity="1" stop-color="rgb(1.12915%, 29.148865%, 66.517639%)" offset="0.046875"/><stop stop-opacity="1" stop-color="rgb(1.333618%, 29.176331%, 66.285706%)" offset="0.0546875"/><stop stop-opacity="1" stop-color="rgb(1.539612%, 29.203796%, 66.052246%)" offset="0.0625"/><stop stop-opacity="1" stop-color="rgb(1.745605%, 29.231262%, 65.820312%)" offset="0.0703125"/><stop stop-opacity="1" stop-color="rgb(1.950073%, 29.258728%, 65.586853%)" offset="0.078125"/><stop stop-opacity="1" stop-color="rgb(2.156067%, 29.286194%, 65.354919%)" offset="0.0859375"/><stop stop-opacity="1" stop-color="rgb(2.362061%, 29.31366%, 65.12146%)" offset="0.09375"/><stop stop-opacity="1" stop-color="rgb(2.566528%, 29.341125%, 64.888%)" offset="0.101562"/><stop stop-opacity="1" stop-color="rgb(2.772522%, 29.368591%, 64.656067%)" offset="0.109375"/><stop stop-opacity="1" stop-color="rgb(2.978516%, 29.396057%, 64.422607%)" offset="0.117188"/><stop stop-opacity="1" stop-color="rgb(3.182983%, 29.423523%, 64.190674%)" offset="0.125"/><stop stop-opacity="1" stop-color="rgb(3.388977%, 29.450989%, 63.957214%)" offset="0.132812"/><stop stop-opacity="1" stop-color="rgb(3.594971%, 29.476929%, 63.725281%)" offset="0.140625"/><stop stop-opacity="1" stop-color="rgb(3.799438%, 29.504395%, 63.491821%)" offset="0.148438"/><stop stop-opacity="1" stop-color="rgb(4.005432%, 29.53186%, 63.258362%)" offset="0.15625"/><stop stop-opacity="1" stop-color="rgb(4.211426%, 29.559326%, 63.026428%)" offset="0.164062"/><stop stop-opacity="1" stop-color="rgb(4.415894%, 29.586792%, 62.792969%)" offset="0.171875"/><stop stop-opacity="1" stop-color="rgb(4.621887%, 29.614258%, 62.561035%)" offset="0.179688"/><stop stop-opacity="1" stop-color="rgb(4.827881%, 29.641724%, 62.327576%)" offset="0.1875"/><stop stop-opacity="1" stop-color="rgb(5.032349%, 29.669189%, 62.095642%)" offset="0.195312"/><stop stop-opacity="1" stop-color="rgb(5.238342%, 29.696655%, 61.862183%)" offset="0.203125"/><stop stop-opacity="1" stop-color="rgb(5.444336%, 29.724121%, 61.628723%)" offset="0.210938"/><stop stop-opacity="1" stop-color="rgb(5.648804%, 29.751587%, 61.39679%)" offset="0.21875"/><stop stop-opacity="1" stop-color="rgb(5.854797%, 29.779053%, 61.16333%)" offset="0.226562"/><stop stop-opacity="1" stop-color="rgb(6.060791%, 29.806519%, 60.931396%)" offset="0.234375"/><stop stop-opacity="1" stop-color="rgb(6.265259%, 29.832458%, 60.697937%)" offset="0.242188"/><stop stop-opacity="1" stop-color="rgb(6.471252%, 29.859924%, 60.464478%)" offset="0.25"/><stop stop-opacity="1" stop-color="rgb(6.67572%, 29.88739%, 60.232544%)" offset="0.257812"/><stop stop-opacity="1" stop-color="rgb(6.881714%, 29.914856%, 59.999084%)" offset="0.265625"/><stop stop-opacity="1" stop-color="rgb(7.087708%, 29.942322%, 59.767151%)" offset="0.273438"/><stop stop-opacity="1" stop-color="rgb(7.292175%, 29.969788%, 59.533691%)" offset="0.28125"/><stop stop-opacity="1" stop-color="rgb(7.498169%, 29.997253%, 59.301758%)" offset="0.289062"/><stop stop-opacity="1" stop-color="rgb(7.704163%, 30.024719%, 59.068298%)" offset="0.296875"/><stop stop-opacity="1" stop-color="rgb(7.90863%, 30.052185%, 58.834839%)" offset="0.304688"/><stop stop-opacity="1" stop-color="rgb(8.114624%, 30.079651%, 58.602905%)" offset="0.3125"/><stop stop-opacity="1" stop-color="rgb(8.320618%, 30.107117%, 58.369446%)" offset="0.320312"/><stop stop-opacity="1" stop-color="rgb(8.525085%, 30.134583%, 58.137512%)" offset="0.328125"/><stop stop-opacity="1" stop-color="rgb(8.731079%, 30.160522%, 57.904053%)" offset="0.335938"/><stop stop-opacity="1" stop-color="rgb(8.937073%, 30.187988%, 57.672119%)" offset="0.34375"/><stop stop-opacity="1" stop-color="rgb(9.141541%, 30.215454%, 57.43866%)" offset="0.351562"/><stop stop-opacity="1" stop-color="rgb(9.347534%, 30.24292%, 57.2052%)" offset="0.359375"/><stop stop-opacity="1" stop-color="rgb(9.553528%, 30.270386%, 56.973267%)" offset="0.367188"/><stop stop-opacity="1" stop-color="rgb(9.757996%, 30.297852%, 56.739807%)" offset="0.375"/><stop stop-opacity="1" stop-color="rgb(9.963989%, 30.325317%, 56.507874%)" offset="0.382812"/><stop stop-opacity="1" stop-color="rgb(10.169983%, 30.352783%, 56.274414%)" offset="0.390625"/><stop stop-opacity="1" stop-color="rgb(10.374451%, 30.380249%, 56.04248%)" offset="0.398438"/><stop stop-opacity="1" stop-color="rgb(10.580444%, 30.407715%, 55.809021%)" offset="0.40625"/><stop stop-opacity="1" stop-color="rgb(10.786438%, 30.435181%, 55.575562%)" offset="0.414062"/><stop stop-opacity="1" stop-color="rgb(10.990906%, 30.462646%, 55.343628%)" offset="0.421875"/><stop stop-opacity="1" stop-color="rgb(11.196899%, 30.490112%, 55.110168%)" offset="0.429688"/><stop stop-opacity="1" stop-color="rgb(11.402893%, 30.516052%, 54.878235%)" offset="0.4375"/><stop stop-opacity="1" stop-color="rgb(11.607361%, 30.543518%, 54.644775%)" offset="0.445312"/><stop stop-opacity="1" stop-color="rgb(11.813354%, 30.570984%, 54.412842%)" offset="0.453125"/><stop stop-opacity="1" stop-color="rgb(12.019348%, 30.59845%, 54.179382%)" offset="0.460938"/><stop stop-opacity="1" stop-color="rgb(12.223816%, 30.625916%, 53.945923%)" offset="0.46875"/><stop stop-opacity="1" stop-color="rgb(12.42981%, 30.653381%, 53.713989%)" offset="0.476562"/><stop stop-opacity="1" stop-color="rgb(12.635803%, 30.680847%, 53.48053%)" offset="0.484375"/><stop stop-opacity="1" stop-color="rgb(12.840271%, 30.708313%, 53.248596%)" offset="0.492188"/><stop stop-opacity="1" stop-color="rgb(13.046265%, 30.735779%, 53.015137%)" offset="0.5"/><stop stop-opacity="1" stop-color="rgb(13.250732%, 30.763245%, 52.781677%)" offset="0.507812"/><stop stop-opacity="1" stop-color="rgb(13.456726%, 30.79071%, 52.549744%)" offset="0.515625"/><stop stop-opacity="1" stop-color="rgb(13.66272%, 30.818176%, 52.316284%)" offset="0.523438"/><stop stop-opacity="1" stop-color="rgb(13.867188%, 30.844116%, 52.084351%)" offset="0.53125"/><stop stop-opacity="1" stop-color="rgb(14.073181%, 30.871582%, 51.850891%)" offset="0.539062"/><stop stop-opacity="1" stop-color="rgb(14.279175%, 30.899048%, 51.618958%)" offset="0.546875"/><stop stop-opacity="1" stop-color="rgb(14.483643%, 30.926514%, 51.385498%)" offset="0.554688"/><stop stop-opacity="1" stop-color="rgb(14.689636%, 30.953979%, 51.152039%)" offset="0.5625"/><stop stop-opacity="1" stop-color="rgb(14.89563%, 30.981445%, 50.920105%)" offset="0.570312"/><stop stop-opacity="1" stop-color="rgb(15.100098%, 31.008911%, 50.686646%)" offset="0.578125"/><stop stop-opacity="1" stop-color="rgb(15.306091%, 31.036377%, 50.454712%)" offset="0.585938"/><stop stop-opacity="1" stop-color="rgb(15.512085%, 31.063843%, 50.221252%)" offset="0.59375"/><stop stop-opacity="1" stop-color="rgb(15.716553%, 31.091309%, 49.989319%)" offset="0.601562"/><stop stop-opacity="1" stop-color="rgb(15.922546%, 31.118774%, 49.755859%)" offset="0.609375"/><stop stop-opacity="1" stop-color="rgb(16.12854%, 31.14624%, 49.5224%)" offset="0.617188"/><stop stop-opacity="1" stop-color="rgb(16.333008%, 31.173706%, 49.290466%)" offset="0.625"/><stop stop-opacity="1" stop-color="rgb(16.539001%, 31.199646%, 49.057007%)" offset="0.632812"/><stop stop-opacity="1" stop-color="rgb(16.744995%, 31.227112%, 48.825073%)" offset="0.640625"/><stop stop-opacity="1" stop-color="rgb(16.949463%, 31.254578%, 48.591614%)" offset="0.648438"/><stop stop-opacity="1" stop-color="rgb(17.155457%, 31.282043%, 48.35968%)" offset="0.65625"/><stop stop-opacity="1" stop-color="rgb(17.36145%, 31.309509%, 48.126221%)" offset="0.664062"/><stop stop-opacity="1" stop-color="rgb(17.565918%, 31.336975%, 47.892761%)" offset="0.671875"/><stop stop-opacity="1" stop-color="rgb(17.771912%, 31.364441%, 47.660828%)" offset="0.679688"/><stop stop-opacity="1" stop-color="rgb(17.977905%, 31.391907%, 47.427368%)" offset="0.6875"/><stop stop-opacity="1" stop-color="rgb(18.182373%, 31.419373%, 47.195435%)" offset="0.695312"/><stop stop-opacity="1" stop-color="rgb(18.388367%, 31.446838%, 46.961975%)" offset="0.703125"/><stop stop-opacity="1" stop-color="rgb(18.59436%, 31.474304%, 46.728516%)" offset="0.710938"/><stop stop-opacity="1" stop-color="rgb(18.798828%, 31.50177%, 46.496582%)" offset="0.71875"/><stop stop-opacity="1" stop-color="rgb(19.004822%, 31.52771%, 46.263123%)" offset="0.726562"/><stop stop-opacity="1" stop-color="rgb(19.210815%, 31.555176%, 46.031189%)" offset="0.734375"/><stop stop-opacity="1" stop-color="rgb(19.415283%, 31.582642%, 45.797729%)" offset="0.742188"/><stop stop-opacity="1" stop-color="rgb(19.621277%, 31.610107%, 45.565796%)" offset="0.75"/><stop stop-opacity="1" stop-color="rgb(19.825745%, 31.637573%, 45.332336%)" offset="0.757812"/><stop stop-opacity="1" stop-color="rgb(20.031738%, 31.665039%, 45.098877%)" offset="0.765625"/><stop stop-opacity="1" stop-color="rgb(20.237732%, 31.692505%, 44.866943%)" offset="0.773438"/><stop stop-opacity="1" stop-color="rgb(20.4422%, 31.719971%, 44.633484%)" offset="0.78125"/><stop stop-opacity="1" stop-color="rgb(20.648193%, 31.747437%, 44.40155%)" offset="0.789062"/><stop stop-opacity="1" stop-color="rgb(20.854187%, 31.774902%, 44.168091%)" offset="0.796875"/><stop stop-opacity="1" stop-color="rgb(21.058655%, 31.802368%, 43.936157%)" offset="0.804688"/><stop stop-opacity="1" stop-color="rgb(21.264648%, 31.829834%, 43.702698%)" offset="0.8125"/><stop stop-opacity="1" stop-color="rgb(21.470642%, 31.8573%, 43.469238%)" offset="0.820312"/><stop stop-opacity="1" stop-color="rgb(21.67511%, 31.88324%, 43.237305%)" offset="0.828125"/><stop stop-opacity="1" stop-color="rgb(21.881104%, 31.910706%, 43.003845%)" offset="0.835938"/><stop stop-opacity="1" stop-color="rgb(22.087097%, 31.938171%, 42.771912%)" offset="0.84375"/><stop stop-opacity="1" stop-color="rgb(22.291565%, 31.965637%, 42.538452%)" offset="0.851562"/><stop stop-opacity="1" stop-color="rgb(22.497559%, 31.993103%, 42.306519%)" offset="0.859375"/><stop stop-opacity="1" stop-color="rgb(22.703552%, 32.020569%, 42.073059%)" offset="0.867188"/><stop stop-opacity="1" stop-color="rgb(22.90802%, 32.048035%, 41.8396%)" offset="0.875"/><stop stop-opacity="1" stop-color="rgb(23.114014%, 32.0755%, 41.607666%)" offset="0.882812"/><stop stop-opacity="1" stop-color="rgb(23.320007%, 32.102966%, 41.374207%)" offset="0.890625"/><stop stop-opacity="1" stop-color="rgb(23.524475%, 32.130432%, 41.142273%)" offset="0.898438"/><stop stop-opacity="1" stop-color="rgb(23.730469%, 32.157898%, 40.908813%)" offset="0.90625"/><stop stop-opacity="1" stop-color="rgb(23.936462%, 32.185364%, 40.67688%)" offset="0.914062"/><stop stop-opacity="1" stop-color="rgb(24.14093%, 32.211304%, 40.44342%)" offset="0.921875"/><stop stop-opacity="1" stop-color="rgb(24.346924%, 32.23877%, 40.209961%)" offset="0.929688"/><stop stop-opacity="1" stop-color="rgb(24.552917%, 32.266235%, 39.978027%)" offset="0.9375"/><stop stop-opacity="1" stop-color="rgb(24.757385%, 32.293701%, 39.744568%)" offset="0.945312"/><stop stop-opacity="1" stop-color="rgb(24.963379%, 32.321167%, 39.512634%)" offset="0.953125"/><stop stop-opacity="1" stop-color="rgb(25.169373%, 32.348633%, 39.279175%)" offset="0.960938"/><stop stop-opacity="1" stop-color="rgb(25.37384%, 32.376099%, 39.045715%)" offset="0.96875"/><stop stop-opacity="1" stop-color="rgb(25.579834%, 32.403564%, 38.813782%)" offset="0.976562"/><stop stop-opacity="1" stop-color="rgb(25.784302%, 32.43103%, 38.580322%)" offset="0.984375"/><stop stop-opacity="1" stop-color="rgb(25.990295%, 32.458496%, 38.348389%)" offset="0.992188"/><stop stop-opacity="1" stop-color="rgb(26.196289%, 32.485962%, 38.114929%)" offset="1"/></linearGradient><clipPath id="7bf1f13b6e"><path d="M 149 55.117188 L 250.71875 55.117188 L 250.71875 170.292969 L 149 170.292969 Z M 149 55.117188 " clip-rule="nonzero"/></clipPath><clipPath id="8f39eb6db4"><path d="M 148.527344 55.117188 L 250.363281 55.117188 L 250.363281 170.292969 L 148.527344 170.292969 Z M 148.527344 55.117188 " clip-rule="nonzero"/></clipPath><clipPath id="c9114aa1e6"><path d="M 11.582031 78.417969 L 79.832031 78.417969 L 79.832031 146.667969 L 11.582031 146.667969 Z M 11.582031 78.417969 " clip-rule="nonzero"/></clipPath></defs><rect x="-45" width="540" fill="#ffffff" y="-22.5" height="270" fill-opacity="1"/><rect x="-45" fill="url(#9ff0ece022)" width="540" y="-22.5" height="270"/><path fill="#5fc232" d="M 179.015625 147.640625 C 179.46875 149.199219 178.570312 150.832031 177.015625 151.285156 L 119.886719 167.851562 C 118.328125 168.304688 116.703125 167.40625 116.25 165.847656 L 90.703125 77.617188 C 90.253906 76.054688 91.152344 74.425781 92.707031 73.972656 L 149.832031 57.40625 C 151.390625 56.953125 153.019531 57.847656 153.46875 59.410156 L 179.015625 147.640625 " fill-opacity="1" fill-rule="nonzero"/><path fill="#b3a5ad" d="M 177.84375 147.960938 C 179 149.332031 178.101562 150.960938 176.542969 151.410156 L 119.421875 167.980469 C 117.863281 168.433594 116.230469 167.535156 115.785156 165.976562 L 90.234375 77.746094 C 89.785156 76.183594 90.679688 74.554688 92.238281 74.101562 L 149.363281 57.535156 C 150.921875 57.082031 152.550781 57.980469 152.296875 59.730469 L 177.84375 147.960938 " fill-opacity="1" fill-rule="nonzero"/><path fill="#5fc232" d="M 152.550781 60.867188 C 152.121094 59.316406 150.519531 58.402344 148.96875 58.828125 L 92.035156 74.460938 C 90.480469 74.886719 89.570312 76.492188 89.996094 78.042969 L 114.09375 165.980469 C 114.332031 166.851562 114.941406 167.519531 115.699219 167.867188 L 160.359375 89.367188 L 152.550781 60.867188 " fill-opacity="1" fill-rule="nonzero"/><path fill="#5fc232" d="M 115.699219 167.867188 C 116.300781 168.140625 116.992188 168.210938 117.679688 168.027344 L 174.613281 152.394531 C 176.164062 151.964844 177.078125 150.359375 176.652344 148.808594 L 160.359375 89.367188 L 115.699219 167.867188 " fill-opacity="1" fill-rule="nonzero"/><path fill="#c2212b" d="M 95.628906 79.992188 C 96.054688 81.546875 95.140625 83.152344 93.589844 83.578125 L 89.726562 84.640625 C 88.171875 85.066406 86.570312 84.152344 86.140625 82.597656 C 85.714844 81.046875 86.628906 79.441406 88.183594 79.011719 L 92.046875 77.953125 C 93.597656 77.523438 95.203125 78.4375 95.628906 79.992188 " fill-opacity="1" fill-rule="nonzero"/><path fill="#c2212b" d="M 117.746094 160.695312 C 118.171875 162.246094 117.257812 163.851562 115.707031 164.28125 L 111.84375 165.339844 C 110.289062 165.765625 108.683594 164.851562 108.261719 163.296875 C 107.835938 161.746094 108.746094 160.140625 110.300781 159.714844 L 114.167969 158.652344 C 115.71875 158.226562 117.324219 159.140625 117.746094 160.695312 " fill-opacity="1" fill-rule="nonzero"/><path fill="#c2212b" d="M 114.265625 147.988281 C 114.691406 149.539062 113.777344 151.144531 112.226562 151.574219 L 108.359375 152.632812 C 106.804688 153.058594 105.203125 152.144531 104.78125 150.589844 C 104.351562 149.039062 105.265625 147.433594 106.816406 147.003906 L 110.683594 145.945312 C 112.234375 145.519531 113.84375 146.433594 114.265625 147.988281 " fill-opacity="1" fill-rule="nonzero"/><path fill="#c2212b" d="M 110.84375 135.511719 C 111.269531 137.066406 110.359375 138.671875 108.808594 139.097656 L 104.941406 140.160156 C 103.390625 140.585938 101.785156 139.671875 101.355469 138.117188 C 100.933594 136.566406 101.84375 134.960938 103.398438 134.535156 L 107.265625 133.472656 C 108.820312 133.042969 110.417969 133.957031 110.84375 135.511719 " fill-opacity="1" fill-rule="nonzero"/><path fill="#c2212b" d="M 107.613281 123.71875 C 108.039062 125.273438 107.128906 126.878906 105.574219 127.304688 L 101.710938 128.367188 C 100.15625 128.792969 98.550781 127.878906 98.125 126.324219 C 97.699219 124.773438 98.613281 123.164062 100.167969 122.738281 L 104.03125 121.679688 C 105.585938 121.253906 107.1875 122.167969 107.613281 123.71875 " fill-opacity="1" fill-rule="nonzero"/><path fill="#c2212b" d="M 104.402344 111.996094 C 104.828125 113.550781 103.910156 115.15625 102.363281 115.582031 L 98.496094 116.644531 C 96.945312 117.070312 95.339844 116.15625 94.914062 114.601562 C 94.488281 113.046875 95.402344 111.441406 96.953125 111.015625 L 100.820312 109.957031 C 102.371094 109.527344 103.976562 110.441406 104.402344 111.996094 " fill-opacity="1" fill-rule="nonzero"/><path fill="#c2212b" d="M 101.542969 101.566406 C 101.96875 103.121094 101.054688 104.726562 99.5 105.152344 L 95.636719 106.214844 C 94.085938 106.640625 92.480469 105.726562 92.054688 104.171875 C 91.628906 102.617188 92.542969 101.015625 94.09375 100.585938 L 97.960938 99.523438 C 99.515625 99.097656 101.117188 100.011719 101.542969 101.566406 " fill-opacity="1" fill-rule="nonzero"/><path fill="#c2212b" d="M 98.523438 90.546875 C 98.949219 92.101562 98.035156 93.707031 96.480469 94.132812 L 92.617188 95.195312 C 91.0625 95.617188 89.457031 94.707031 89.035156 93.152344 C 88.605469 91.597656 89.519531 89.992188 91.074219 89.566406 L 94.941406 88.503906 C 96.492188 88.078125 98.09375 88.992188 98.523438 90.546875 " fill-opacity="1" fill-rule="nonzero"/><path fill="#ffffff" d="M 149.121094 87.210938 C 149.546875 88.765625 148.632812 90.371094 147.082031 90.796875 L 113.816406 99.929688 C 112.261719 100.355469 110.660156 99.441406 110.234375 97.886719 L 106.191406 83.144531 C 105.765625 81.589844 106.679688 79.984375 108.230469 79.558594 L 141.496094 70.425781 C 143.050781 70 144.65625 70.914062 145.078125 72.46875 L 149.121094 87.210938 " fill-opacity="1" fill-rule="nonzero"/><path fill="#231f20" d="M 122.238281 85.570312 C 121.980469 84.789062 121.664062 83.847656 121.480469 83.136719 L 121.453125 83.144531 C 121.445312 83.863281 121.402344 84.636719 121.328125 85.503906 L 121.082031 88.539062 L 120.523438 88.691406 L 118.863281 86.234375 C 118.371094 85.507812 117.941406 84.832031 117.597656 84.203125 L 117.582031 84.207031 C 117.757812 84.917969 117.976562 85.886719 118.160156 86.753906 L 118.675781 89.238281 L 117.976562 89.429688 L 116.8125 83.625 L 117.75 83.367188 L 119.472656 85.855469 C 119.90625 86.496094 120.269531 87.0625 120.574219 87.617188 L 120.601562 87.609375 C 120.585938 86.996094 120.617188 86.316406 120.671875 85.527344 L 120.933594 82.496094 L 121.867188 82.238281 L 123.78125 87.832031 L 123.066406 88.03125 L 122.238281 85.570312 " fill-opacity="1" fill-rule="nonzero"/><path fill="#231f20" d="M 126.960938 84.417969 L 125.953125 82.933594 C 125.726562 82.597656 125.550781 82.28125 125.375 81.972656 L 125.359375 81.980469 C 125.367188 82.339844 125.367188 82.710938 125.355469 83.089844 L 125.25 84.890625 Z M 125.253906 85.503906 L 125.152344 87.457031 L 124.394531 87.667969 L 124.765625 81.441406 L 125.652344 81.199219 L 129.15625 86.359375 L 128.371094 86.574219 L 127.269531 84.953125 L 125.253906 85.503906 " fill-opacity="1" fill-rule="nonzero"/><path fill="#231f20" d="M 129.027344 80.945312 L 127.296875 81.417969 L 127.125 80.796875 L 131.335938 79.640625 L 131.507812 80.261719 L 129.769531 80.742188 L 131.160156 85.808594 L 130.417969 86.015625 L 129.027344 80.945312 " fill-opacity="1" fill-rule="nonzero"/><path fill="#231f20" d="M 132.699219 79.261719 L 133.355469 81.644531 L 136.109375 80.890625 L 135.453125 78.507812 L 136.195312 78.304688 L 137.757812 84 L 137.015625 84.203125 L 136.28125 81.535156 L 133.53125 82.289062 L 134.261719 84.957031 L 133.527344 85.160156 L 131.96875 79.464844 L 132.699219 79.261719 " fill-opacity="1" fill-rule="nonzero"/><path fill="#f14621" d="M 198.65625 158.167969 C 198.679688 159.789062 197.382812 161.125 195.765625 161.148438 L 136.296875 162 C 134.671875 162.023438 133.339844 160.726562 133.316406 159.101562 L 132.003906 67.25 C 131.980469 65.628906 133.277344 64.292969 134.898438 64.269531 L 194.363281 63.417969 C 195.988281 63.394531 197.320312 64.691406 197.34375 66.3125 L 198.65625 158.167969 " fill-opacity="1" fill-rule="nonzero"/><path fill="#b3a5ad" d="M 197.6875 158.167969 C 198.195312 159.789062 196.898438 161.125 195.28125 161.148438 L 135.808594 162 C 134.1875 162.023438 132.855469 160.726562 132.832031 159.101562 L 131.515625 67.25 C 131.492188 65.628906 132.789062 64.292969 134.410156 64.269531 L 193.878906 63.417969 C 195.5 63.394531 196.835938 64.691406 196.375 66.3125 L 197.6875 158.167969 " fill-opacity="1" fill-rule="nonzero"/><path fill="#f14621" d="M 196.070312 67.480469 C 196.070312 65.867188 194.765625 64.5625 193.15625 64.5625 L 134.121094 64.5625 C 132.507812 64.5625 131.203125 65.867188 131.203125 67.480469 L 131.203125 158.664062 C 131.203125 159.566406 131.609375 160.371094 132.253906 160.902344 L 196.070312 97.03125 L 196.070312 67.480469 " fill-opacity="1" fill-rule="nonzero"/><path fill="#efee0e" d="M 132.253906 160.902344 C 132.757812 161.328125 133.410156 161.582031 134.121094 161.582031 L 193.15625 161.582031 C 194.765625 161.582031 196.070312 160.277344 196.070312 158.664062 L 196.070312 97.03125 L 132.253906 160.902344 " fill-opacity="1" fill-rule="nonzero"/><path fill="#ed1d24" d="M 136.125 70.847656 C 136.125 72.460938 134.816406 73.765625 133.207031 73.765625 L 129.203125 73.765625 C 127.59375 73.765625 126.289062 72.460938 126.289062 70.847656 C 126.289062 69.238281 127.59375 67.929688 129.203125 67.929688 L 133.207031 67.929688 C 134.816406 67.929688 136.125 69.238281 136.125 70.847656 " fill-opacity="1" fill-rule="nonzero"/><path fill="#ed1d24" d="M 136.125 154.53125 C 136.125 156.144531 134.816406 157.449219 133.207031 157.449219 L 129.203125 157.449219 C 127.59375 157.449219 126.289062 156.144531 126.289062 154.53125 C 126.289062 152.917969 127.59375 151.613281 129.203125 151.613281 L 133.207031 151.613281 C 134.816406 151.613281 136.125 152.917969 136.125 154.53125 " fill-opacity="1" fill-rule="nonzero"/><path fill="#ed1d24" d="M 136.125 141.355469 C 136.125 142.964844 134.816406 144.273438 133.207031 144.273438 L 129.203125 144.273438 C 127.59375 144.273438 126.289062 142.964844 126.289062 141.355469 C 126.289062 139.742188 127.59375 138.4375 129.203125 138.4375 L 133.207031 138.4375 C 134.816406 138.4375 136.125 139.742188 136.125 141.355469 " fill-opacity="1" fill-rule="nonzero"/><path fill="#ed1d24" d="M 136.125 128.421875 C 136.125 130.03125 134.816406 131.335938 133.207031 131.335938 L 129.203125 131.335938 C 127.59375 131.335938 126.289062 130.03125 126.289062 128.421875 C 126.289062 126.808594 127.59375 125.503906 129.203125 125.503906 L 133.207031 125.503906 C 134.816406 125.503906 136.125 126.808594 136.125 128.421875 " fill-opacity="1" fill-rule="nonzero"/><path fill="#ed1d24" d="M 136.125 116.191406 C 136.125 117.804688 134.816406 119.109375 133.207031 119.109375 L 129.203125 119.109375 C 127.59375 119.109375 126.289062 117.804688 126.289062 116.191406 C 126.289062 114.578125 127.59375 113.273438 129.203125 113.273438 L 133.207031 113.273438 C 134.816406 113.273438 136.125 114.578125 136.125 116.191406 " fill-opacity="1" fill-rule="nonzero"/><path fill="#ed1d24" d="M 136.125 104.035156 C 136.125 105.648438 134.816406 106.953125 133.207031 106.953125 L 129.203125 106.953125 C 127.59375 106.953125 126.289062 105.648438 126.289062 104.035156 C 126.289062 102.421875 127.59375 101.117188 129.203125 101.117188 L 133.207031 101.117188 C 134.816406 101.117188 136.125 102.421875 136.125 104.035156 " fill-opacity="1" fill-rule="nonzero"/><path fill="#ed1d24" d="M 136.125 93.21875 C 136.125 94.828125 134.816406 96.136719 133.207031 96.136719 L 129.203125 96.136719 C 127.59375 96.136719 126.289062 94.828125 126.289062 93.21875 C 126.289062 91.609375 127.59375 90.300781 129.203125 90.300781 L 133.207031 90.300781 C 134.816406 90.300781 136.125 91.609375 136.125 93.21875 " fill-opacity="1" fill-rule="nonzero"/><path fill="#ed1d24" d="M 136.125 81.789062 C 136.125 83.402344 134.816406 84.710938 133.207031 84.710938 L 129.203125 84.710938 C 127.59375 84.710938 126.289062 83.402344 126.289062 81.789062 C 126.289062 80.179688 127.59375 78.875 129.203125 78.875 L 133.207031 78.875 C 134.816406 78.875 136.125 80.179688 136.125 81.789062 " fill-opacity="1" fill-rule="nonzero"/><path fill="#ffffff" d="M 185.800781 91.972656 C 185.800781 93.582031 184.496094 94.890625 182.886719 94.890625 L 148.390625 94.890625 C 146.78125 94.890625 145.476562 93.582031 145.476562 91.972656 L 145.476562 76.683594 C 145.476562 75.070312 146.78125 73.765625 148.390625 73.765625 L 182.886719 73.765625 C 184.496094 73.765625 185.800781 75.070312 185.800781 76.683594 L 185.800781 91.972656 " fill-opacity="1" fill-rule="nonzero"/><path fill="#231f20" d="M 158.261719 83.441406 L 157.683594 81.742188 C 157.550781 81.355469 157.464844 81.003906 157.375 80.664062 L 157.359375 80.664062 C 157.273438 81.015625 157.175781 81.371094 157.0625 81.730469 L 156.484375 83.441406 Z M 156.328125 84.035156 L 155.714844 85.894531 L 154.925781 85.894531 L 156.929688 79.988281 L 157.851562 79.988281 L 159.863281 85.894531 L 159.050781 85.894531 L 158.417969 84.035156 L 156.328125 84.035156 " fill-opacity="1" fill-rule="nonzero"/><path fill="#231f20" d="M 161.488281 82.753906 L 162.265625 82.753906 C 163.078125 82.753906 163.597656 82.308594 163.597656 81.636719 C 163.597656 80.875 163.042969 80.539062 162.238281 80.53125 C 161.871094 80.53125 161.609375 80.566406 161.488281 80.601562 Z M 160.726562 80.066406 C 161.109375 79.988281 161.660156 79.945312 162.1875 79.945312 C 163 79.945312 163.527344 80.09375 163.894531 80.425781 C 164.191406 80.6875 164.355469 81.09375 164.355469 81.546875 C 164.355469 82.328125 163.867188 82.84375 163.246094 83.054688 L 163.246094 83.082031 C 163.699219 83.238281 163.972656 83.660156 164.113281 84.273438 C 164.304688 85.09375 164.445312 85.664062 164.566406 85.894531 L 163.78125 85.894531 C 163.683594 85.726562 163.550781 85.21875 163.386719 84.480469 C 163.210938 83.667969 162.894531 83.363281 162.203125 83.335938 L 161.488281 83.335938 L 161.488281 85.894531 L 160.726562 85.894531 L 160.726562 80.066406 " fill-opacity="1" fill-rule="nonzero"/><path fill="#231f20" d="M 166.628906 80.636719 L 164.832031 80.636719 L 164.832031 79.988281 L 169.203125 79.988281 L 169.203125 80.636719 L 167.398438 80.636719 L 167.398438 85.894531 L 166.628906 85.894531 L 166.628906 80.636719 " fill-opacity="1" fill-rule="nonzero"/><g clip-path="url(#7bf1f13b6e)"><path fill="#3aae9b" d="M 207.136719 168.746094 C 206.371094 170.175781 204.59375 170.71875 203.164062 169.953125 L 150.703125 141.914062 C 149.269531 141.148438 148.730469 139.367188 149.496094 137.9375 L 192.726562 56.90625 C 193.492188 55.472656 195.269531 54.933594 196.703125 55.699219 L 249.164062 83.734375 C 250.597656 84.5 251.136719 86.28125 250.371094 87.714844 L 207.136719 168.746094 " fill-opacity="1" fill-rule="nonzero"/></g><g clip-path="url(#8f39eb6db4)"><path fill="#b3a5ad" d="M 206.710938 168.511719 C 205.949219 169.945312 204.171875 170.484375 202.738281 169.71875 L 150.273438 141.679688 C 148.847656 140.914062 148.308594 139.132812 149.070312 137.703125 L 192.304688 56.667969 C 193.066406 55.238281 194.847656 54.699219 196.277344 55.460938 L 248.738281 83.503906 C 250.171875 84.269531 250.710938 86.046875 249.949219 87.480469 L 206.710938 168.511719 " fill-opacity="1" fill-rule="nonzero"/></g><path fill="#3aae9b" d="M 248.695312 88.117188 C 249.472656 86.707031 248.964844 84.933594 247.554688 84.15625 L 195.878906 55.574219 C 194.472656 54.796875 192.695312 55.308594 191.921875 56.71875 L 147.855469 136.53125 C 147.425781 137.316406 147.390625 138.222656 147.695312 139 L 234.414062 113.984375 L 248.695312 88.117188 " fill-opacity="1" fill-rule="nonzero"/><path fill="#3aad83" d="M 147.695312 139 C 147.929688 139.613281 148.378906 140.152344 148.996094 140.496094 L 200.671875 169.074219 C 202.082031 169.851562 203.855469 169.339844 204.632812 167.929688 L 234.414062 113.984375 L 147.695312 139 " fill-opacity="1" fill-rule="nonzero"/><path fill="#1f6532" d="M 194.597656 62.050781 C 193.820312 63.460938 192.042969 63.972656 190.636719 63.191406 L 187.128906 61.25 C 185.71875 60.472656 185.207031 58.699219 185.984375 57.289062 C 186.765625 55.875 188.539062 55.363281 189.945312 56.144531 L 193.453125 58.085938 C 194.863281 58.863281 195.375 60.636719 194.597656 62.050781 " fill-opacity="1" fill-rule="nonzero"/><path fill="#1f6532" d="M 154.160156 135.292969 C 153.382812 136.703125 151.609375 137.214844 150.199219 136.4375 L 146.691406 134.496094 C 145.28125 133.714844 144.773438 131.941406 145.550781 130.53125 C 146.328125 129.121094 148.101562 128.609375 149.511719 129.390625 L 153.019531 131.328125 C 154.429688 132.109375 154.941406 133.882812 154.160156 135.292969 " fill-opacity="1" fill-rule="nonzero"/><path fill="#1f6532" d="M 160.527344 123.761719 C 159.746094 125.171875 157.976562 125.679688 156.566406 124.902344 L 153.058594 122.960938 C 151.652344 122.183594 151.136719 120.410156 151.917969 118.996094 C 152.695312 117.585938 154.46875 117.078125 155.878906 117.855469 L 159.386719 119.796875 C 160.796875 120.574219 161.304688 122.347656 160.527344 123.761719 " fill-opacity="1" fill-rule="nonzero"/><path fill="#1f6532" d="M 166.777344 112.4375 C 166 113.847656 164.226562 114.359375 162.816406 113.582031 L 159.304688 111.644531 C 157.902344 110.863281 157.386719 109.085938 158.164062 107.675781 C 158.945312 106.269531 160.714844 105.753906 162.128906 106.535156 L 165.636719 108.476562 C 167.046875 109.253906 167.558594 111.027344 166.777344 112.4375 " fill-opacity="1" fill-rule="nonzero"/><path fill="#1f6532" d="M 172.6875 101.734375 C 171.90625 103.144531 170.136719 103.65625 168.726562 102.878906 L 165.21875 100.9375 C 163.808594 100.160156 163.296875 98.382812 164.074219 96.972656 C 164.851562 95.5625 166.628906 95.050781 168.035156 95.832031 L 171.546875 97.769531 C 172.953125 98.550781 173.464844 100.324219 172.6875 101.734375 " fill-opacity="1" fill-rule="nonzero"/><path fill="#1f6532" d="M 178.5625 91.097656 C 177.78125 92.507812 176.007812 93.019531 174.597656 92.238281 L 171.089844 90.296875 C 169.683594 89.519531 169.171875 87.742188 169.949219 86.332031 C 170.730469 84.921875 172.5 84.410156 173.910156 85.191406 L 177.421875 87.132812 C 178.828125 87.910156 179.339844 89.683594 178.5625 91.097656 " fill-opacity="1" fill-rule="nonzero"/><path fill="#1f6532" d="M 183.785156 81.628906 C 183.007812 83.039062 181.234375 83.550781 179.828125 82.773438 L 176.320312 80.832031 C 174.910156 80.050781 174.398438 78.277344 175.179688 76.867188 C 175.957031 75.457031 177.726562 74.945312 179.136719 75.722656 L 182.644531 77.664062 C 184.050781 78.445312 184.566406 80.21875 183.785156 81.628906 " fill-opacity="1" fill-rule="nonzero"/><path fill="#1f6532" d="M 189.308594 71.628906 C 188.53125 73.039062 186.757812 73.550781 185.347656 72.769531 L 181.839844 70.828125 C 180.429688 70.050781 179.917969 68.277344 180.699219 66.867188 C 181.472656 65.457031 183.25 64.945312 184.660156 65.722656 L 188.167969 67.660156 C 189.578125 68.441406 190.085938 70.21875 189.308594 71.628906 " fill-opacity="1" fill-rule="nonzero"/><path fill="#ffffff" d="M 227.867188 104.585938 C 227.09375 105.996094 225.316406 106.507812 223.910156 105.726562 L 193.71875 89.03125 C 192.308594 88.25 191.796875 86.476562 192.574219 85.066406 L 199.964844 71.683594 C 200.738281 70.273438 202.515625 69.761719 203.921875 70.542969 L 234.117188 87.238281 C 235.527344 88.019531 236.039062 89.792969 235.257812 91.203125 L 227.867188 104.585938 " fill-opacity="1" fill-rule="nonzero"/><path fill="#231f20" d="M 200.941406 80.542969 L 201.542969 80.875 C 202.25 81.265625 202.867188 81.125 203.140625 80.628906 C 203.476562 80.023438 203.148438 79.53125 202.472656 79.160156 C 202.167969 78.992188 201.980469 78.917969 201.859375 78.878906 Z M 199.574219 83.015625 C 199.691406 83.113281 199.878906 83.222656 200.117188 83.355469 C 200.804688 83.734375 201.582031 83.835938 201.996094 83.085938 C 202.382812 82.378906 201.941406 81.753906 201.214844 81.351562 L 200.664062 81.046875 Z M 201.441406 78.058594 C 201.765625 78.160156 202.25 78.367188 202.71875 78.625 C 203.386719 78.992188 203.75 79.347656 203.929688 79.785156 C 204.085938 80.132812 204.078125 80.527344 203.851562 80.933594 C 203.578125 81.429688 203.007812 81.6875 202.355469 81.585938 L 202.347656 81.597656 C 202.765625 81.992188 203.117188 82.714844 202.695312 83.484375 C 202.449219 83.925781 202.085938 84.164062 201.6875 84.277344 C 201.144531 84.40625 200.480469 84.234375 199.640625 83.769531 C 199.179688 83.515625 198.84375 83.292969 198.640625 83.140625 L 201.441406 78.058594 " fill-opacity="1" fill-rule="nonzero"/><path fill="#231f20" d="M 206.292969 80.652344 L 203.445312 85.816406 L 202.777344 85.449219 L 205.628906 80.285156 L 206.292969 80.652344 " fill-opacity="1" fill-rule="nonzero"/><path fill="#231f20" d="M 206.421875 84.132812 C 205.8125 85.238281 205.863281 86.554688 206.914062 87.136719 C 207.96875 87.71875 209.101562 87.074219 209.75 85.90625 C 210.316406 84.878906 210.371094 83.507812 209.265625 82.894531 C 208.160156 82.285156 207.046875 83 206.421875 84.132812 Z M 210.472656 86.261719 C 209.488281 88.039062 207.890625 88.386719 206.574219 87.65625 C 205.210938 86.902344 204.839844 85.316406 205.703125 83.753906 C 206.609375 82.113281 208.21875 81.605469 209.59375 82.367188 C 211.003906 83.144531 211.316406 84.730469 210.472656 86.261719 " fill-opacity="1" fill-rule="nonzero"/><path fill="#231f20" d="M 212.730469 84.214844 L 213.398438 84.582031 L 210.855469 89.183594 L 213.0625 90.40625 L 212.75 90.964844 L 209.882812 89.378906 L 212.730469 84.214844 " fill-opacity="1" fill-rule="nonzero"/><path fill="#231f20" d="M 215.011719 88.882812 C 214.402344 89.984375 214.453125 91.304688 215.5 91.882812 C 216.558594 92.46875 217.691406 91.824219 218.339844 90.652344 C 218.90625 89.628906 218.960938 88.257812 217.851562 87.644531 C 216.75 87.035156 215.636719 87.75 215.011719 88.882812 Z M 219.058594 91.011719 C 218.078125 92.789062 216.476562 93.136719 215.160156 92.40625 C 213.800781 91.652344 213.425781 90.066406 214.289062 88.503906 C 215.195312 86.867188 216.804688 86.355469 218.179688 87.117188 C 219.589844 87.898438 219.90625 89.480469 219.058594 91.011719 " fill-opacity="1" fill-rule="nonzero"/><path fill="#231f20" d="M 222.523438 96.066406 C 222.164062 96.011719 221.480469 95.859375 220.785156 95.472656 C 220.003906 95.042969 219.46875 94.488281 219.230469 93.726562 C 219.023438 93.054688 219.128906 92.210938 219.570312 91.40625 C 220.429688 89.871094 222.105469 89.328125 223.835938 90.285156 C 224.433594 90.613281 224.832031 91.003906 224.992188 91.234375 L 224.53125 91.6875 C 224.324219 91.414062 224.035156 91.125 223.515625 90.835938 C 222.257812 90.144531 221.007812 90.46875 220.292969 91.765625 C 219.570312 93.074219 219.933594 94.285156 221.132812 94.949219 C 221.570312 95.191406 221.902344 95.296875 222.097656 95.300781 L 222.945312 93.761719 L 221.898438 93.183594 L 222.195312 92.644531 L 223.894531 93.585938 L 222.523438 96.066406 " fill-opacity="1" fill-rule="nonzero"/><path fill="#231f20" d="M 224.5625 97.496094 L 225.773438 95.304688 L 225.78125 91.429688 L 226.539062 91.847656 L 226.480469 93.675781 C 226.464844 94.179688 226.445312 94.578125 226.40625 95.027344 L 226.421875 95.035156 C 226.753906 94.777344 227.113281 94.539062 227.53125 94.257812 L 229.058594 93.242188 L 229.816406 93.660156 L 226.449219 95.667969 L 225.238281 97.867188 L 224.5625 97.496094 " fill-opacity="1" fill-rule="nonzero"/><g clip-path="url(#c9114aa1e6)"><path fill="#fc4c02" d="M 72.152344 104.867188 L 53.382812 104.867188 L 53.382812 86.097656 C 53.382812 81.863281 49.9375 78.417969 45.703125 78.417969 C 41.46875 78.417969 38.023438 81.863281 38.023438 86.097656 L 38.023438 104.867188 L 19.253906 104.867188 C 15.019531 104.867188 11.578125 108.3125 11.578125 112.546875 C 11.578125 116.78125 15.019531 120.222656 19.253906 120.222656 L 38.023438 120.222656 L 38.023438 138.996094 C 38.023438 143.230469 41.46875 146.671875 45.703125 146.671875 C 49.9375 146.671875 53.382812 143.230469 53.382812 138.996094 L 53.382812 120.222656 L 72.152344 120.222656 C 76.386719 120.222656 79.832031 116.78125 79.832031 112.546875 C 79.832031 108.3125 76.386719 104.867188 72.152344 104.867188 " fill-opacity="1" fill-rule="nonzero"/></g></svg>