<svg xmlns="http://www.w3.org/2000/svg" xmlns:xlink="http://www.w3.org/1999/xlink" width="500" zoomAndPan="magnify" viewBox="0 0 375 374.999991" height="500" preserveAspectRatio="xMidYMid meet" version="1.0"><defs><filter x="0%" y="0%" width="100%" height="100%" id="fe459dd20a"><feColorMatrix values="0 0 0 0 1 0 0 0 0 1 0 0 0 0 1 0 0 0 1 0" color-interpolation-filters="sRGB"/></filter><clipPath id="7ad8fd2ed7"><path d="M 6.660156 6.660156 L 368.160156 6.660156 L 368.160156 368.160156 L 6.660156 368.160156 Z M 6.660156 6.660156 " clip-rule="nonzero"/></clipPath><clipPath id="43eee9ccc9"><path d="M 368.160156 187.410156 C 368.160156 190.371094 368.089844 193.324219 367.945312 196.28125 C 367.796875 199.234375 367.582031 202.183594 367.289062 205.128906 C 367 208.070312 366.640625 211.007812 366.203125 213.933594 C 365.769531 216.859375 365.265625 219.773438 364.6875 222.671875 C 364.109375 225.574219 363.464844 228.460938 362.746094 231.328125 C 362.027344 234.199219 361.238281 237.050781 360.378906 239.878906 C 359.519531 242.710938 358.589844 245.519531 357.59375 248.304688 C 356.597656 251.089844 355.535156 253.847656 354.402344 256.582031 C 353.269531 259.3125 352.070312 262.019531 350.808594 264.691406 C 349.542969 267.367188 348.210938 270.007812 346.820312 272.617188 C 345.425781 275.226562 343.964844 277.796875 342.445312 280.335938 C 340.925781 282.871094 339.34375 285.371094 337.699219 287.832031 C 336.054688 290.289062 334.351562 292.707031 332.589844 295.082031 C 330.828125 297.460938 329.007812 299.792969 327.132812 302.078125 C 325.257812 304.363281 323.324219 306.605469 321.339844 308.796875 C 319.351562 310.988281 317.3125 313.128906 315.222656 315.222656 C 313.128906 317.3125 310.988281 319.351562 308.796875 321.339844 C 306.605469 323.324219 304.363281 325.257812 302.078125 327.132812 C 299.792969 329.007812 297.460938 330.828125 295.082031 332.589844 C 292.707031 334.351562 290.289062 336.054688 287.832031 337.699219 C 285.371094 339.34375 282.871094 340.925781 280.335938 342.445312 C 277.796875 343.964844 275.226562 345.425781 272.617188 346.820312 C 270.007812 348.210938 267.367188 349.542969 264.691406 350.808594 C 262.019531 352.070312 259.3125 353.269531 256.582031 354.402344 C 253.847656 355.535156 251.089844 356.597656 248.304688 357.59375 C 245.519531 358.59375 242.710938 359.519531 239.878906 360.378906 C 237.050781 361.238281 234.199219 362.027344 231.328125 362.746094 C 228.460938 363.464844 225.574219 364.109375 222.671875 364.6875 C 219.773438 365.265625 216.859375 365.769531 213.933594 366.203125 C 211.007812 366.640625 208.070312 367 205.128906 367.289062 C 202.183594 367.582031 199.234375 367.796875 196.28125 367.945312 C 193.324219 368.089844 190.371094 368.160156 187.410156 368.160156 C 184.453125 368.160156 181.496094 368.089844 178.542969 367.945312 C 175.585938 367.796875 172.636719 367.582031 169.695312 367.289062 C 166.75 367 163.816406 366.640625 160.890625 366.203125 C 157.964844 365.769531 155.050781 365.265625 152.148438 364.6875 C 149.246094 364.109375 146.363281 363.464844 143.492188 362.746094 C 140.625 362.027344 137.773438 361.238281 134.941406 360.378906 C 132.113281 359.519531 129.304688 358.59375 126.519531 357.59375 C 123.734375 356.597656 120.972656 355.535156 118.242188 354.402344 C 115.507812 353.269531 112.804688 352.070312 110.128906 350.808594 C 107.457031 349.542969 104.816406 348.210938 102.207031 346.820312 C 99.597656 345.425781 97.023438 343.964844 94.488281 342.445312 C 91.949219 340.925781 89.453125 339.34375 86.992188 337.699219 C 84.53125 336.054688 82.113281 334.351562 79.738281 332.589844 C 77.363281 330.828125 75.03125 329.007812 72.746094 327.132812 C 70.457031 325.257812 68.21875 323.324219 66.027344 321.339844 C 63.835938 319.351562 61.691406 317.3125 59.601562 315.222656 C 57.511719 313.128906 55.472656 310.988281 53.484375 308.796875 C 51.496094 306.605469 49.566406 304.363281 47.691406 302.078125 C 45.8125 299.792969 43.992188 297.460938 42.230469 295.082031 C 40.46875 292.707031 38.765625 290.289062 37.125 287.832031 C 35.480469 285.371094 33.898438 282.871094 32.375 280.335938 C 30.855469 277.796875 29.398438 275.226562 28.003906 272.617188 C 26.609375 270.007812 25.28125 267.367188 24.015625 264.691406 C 22.75 262.019531 21.550781 259.3125 20.421875 256.582031 C 19.289062 253.847656 18.222656 251.089844 17.226562 248.304688 C 16.230469 245.519531 15.304688 242.710938 14.445312 239.878906 C 13.585938 237.050781 12.796875 234.199219 12.078125 231.328125 C 11.359375 228.460938 10.710938 225.574219 10.132812 222.671875 C 9.558594 219.773438 9.050781 216.859375 8.617188 213.933594 C 8.183594 211.007812 7.820312 208.070312 7.53125 205.128906 C 7.242188 202.183594 7.023438 199.234375 6.878906 196.28125 C 6.734375 193.324219 6.660156 190.371094 6.660156 187.410156 C 6.660156 184.453125 6.734375 181.496094 6.878906 178.542969 C 7.023438 175.585938 7.242188 172.636719 7.53125 169.695312 C 7.820312 166.75 8.183594 163.816406 8.617188 160.890625 C 9.050781 157.964844 9.558594 155.050781 10.132812 152.148438 C 10.710938 149.246094 11.359375 146.363281 12.078125 143.492188 C 12.796875 140.625 13.585938 137.773438 14.445312 134.941406 C 15.304688 132.113281 16.230469 129.304688 17.226562 126.519531 C 18.222656 123.734375 19.289062 120.972656 20.421875 118.242188 C 21.550781 115.507812 22.75 112.804688 24.015625 110.128906 C 25.28125 107.457031 26.609375 104.816406 28.003906 102.207031 C 29.398438 99.597656 30.855469 97.023438 32.375 94.488281 C 33.898438 91.949219 35.480469 89.453125 37.125 86.992188 C 38.765625 84.53125 40.46875 82.113281 42.230469 79.738281 C 43.992188 77.363281 45.8125 75.03125 47.691406 72.746094 C 49.566406 70.457031 51.496094 68.21875 53.484375 66.027344 C 55.472656 63.835938 57.511719 61.691406 59.601562 59.601562 C 61.691406 57.511719 63.835938 55.472656 66.027344 53.484375 C 68.21875 51.496094 70.457031 49.566406 72.746094 47.691406 C 75.03125 45.8125 77.363281 43.992188 79.738281 42.230469 C 82.113281 40.46875 84.53125 38.765625 86.992188 37.125 C 89.453125 35.480469 91.949219 33.898438 94.488281 32.375 C 97.023438 30.855469 99.597656 29.398438 102.207031 28.003906 C 104.816406 26.609375 107.457031 25.28125 110.128906 24.015625 C 112.804688 22.75 115.507812 21.550781 118.242188 20.421875 C 120.972656 19.289062 123.734375 18.222656 126.519531 17.226562 C 129.304688 16.230469 132.113281 15.304688 134.941406 14.445312 C 137.773438 13.585938 140.625 12.796875 143.492188 12.078125 C 146.363281 11.359375 149.246094 10.710938 152.148438 10.132812 C 155.050781 9.558594 157.964844 9.050781 160.890625 8.617188 C 163.816406 8.183594 166.75 7.820312 169.695312 7.53125 C 172.636719 7.242188 175.585938 7.023438 178.542969 6.878906 C 181.496094 6.734375 184.453125 6.660156 187.410156 6.660156 C 190.371094 6.660156 193.324219 6.734375 196.28125 6.878906 C 199.234375 7.023438 202.183594 7.242188 205.128906 7.53125 C 208.070312 7.820312 211.007812 8.183594 213.933594 8.617188 C 216.859375 9.050781 219.773438 9.558594 222.671875 10.132812 C 225.574219 10.710938 228.460938 11.359375 231.328125 12.078125 C 234.199219 12.796875 237.050781 13.585938 239.878906 14.445312 C 242.710938 15.304688 245.519531 16.230469 248.304688 17.226562 C 251.089844 18.222656 253.847656 19.289062 256.582031 20.421875 C 259.3125 21.550781 262.019531 22.75 264.691406 24.015625 C 267.367188 25.28125 270.007812 26.609375 272.617188 28.003906 C 275.226562 29.398438 277.796875 30.855469 280.335938 32.375 C 282.871094 33.898438 285.371094 35.480469 287.832031 37.125 C 290.289062 38.765625 292.707031 40.46875 295.082031 42.230469 C 297.460938 43.992188 299.792969 45.8125 302.078125 47.691406 C 304.363281 49.566406 306.605469 51.496094 308.796875 53.484375 C 310.988281 55.472656 313.128906 57.511719 315.222656 59.601562 C 317.3125 61.691406 319.351562 63.835938 321.339844 66.027344 C 323.324219 68.21875 325.257812 70.457031 327.132812 72.746094 C 329.007812 75.03125 330.828125 77.363281 332.589844 79.738281 C 334.351562 82.113281 336.054688 84.53125 337.699219 86.992188 C 339.34375 89.453125 340.925781 91.949219 342.445312 94.488281 C 343.964844 97.023438 345.425781 99.597656 346.820312 102.207031 C 348.210938 104.816406 349.542969 107.457031 350.808594 110.128906 C 352.070312 112.804688 353.269531 115.507812 354.402344 118.242188 C 355.535156 120.972656 356.597656 123.734375 357.59375 126.519531 C 358.589844 129.304688 359.519531 132.113281 360.378906 134.941406 C 361.238281 137.773438 362.027344 140.625 362.746094 143.492188 C 363.464844 146.363281 364.109375 149.246094 364.6875 152.148438 C 365.265625 155.050781 365.769531 157.964844 366.203125 160.890625 C 366.640625 163.816406 367 166.75 367.289062 169.695312 C 367.582031 172.636719 367.796875 175.585938 367.945312 178.542969 C 368.089844 181.496094 368.160156 184.453125 368.160156 187.410156 Z M 368.160156 187.410156 " clip-rule="nonzero"/></clipPath><linearGradient x1="0.00000000136303" gradientTransform="matrix(361.500021, 0, 0, 361.500021, 6.661189, 6.6612)" y1="0.00000000134967" x2="1.004902" gradientUnits="userSpaceOnUse" y2="0.995049" id="eee8028912"><stop stop-opacity="1" stop-color="rgb(0%, 23.899841%, 64.698792%)" offset="0"/><stop stop-opacity="1" stop-color="rgb(0%, 24.035645%, 64.718628%)" offset="0.0078125"/><stop stop-opacity="1" stop-color="rgb(0%, 24.307251%, 64.758301%)" offset="0.015625"/><stop stop-opacity="1" stop-color="rgb(0%, 24.580383%, 64.797974%)" offset="0.0234375"/><stop stop-opacity="1" stop-color="rgb(0%, 24.85199%, 64.837646%)" offset="0.03125"/><stop stop-opacity="1" stop-color="rgb(0%, 25.125122%, 64.875793%)" offset="0.0390625"/><stop stop-opacity="1" stop-color="rgb(0%, 25.398254%, 64.915466%)" offset="0.046875"/><stop stop-opacity="1" stop-color="rgb(0%, 25.669861%, 64.955139%)" offset="0.0546875"/><stop stop-opacity="1" stop-color="rgb(0%, 25.942993%, 64.994812%)" offset="0.0625"/><stop stop-opacity="1" stop-color="rgb(0%, 26.2146%, 65.034485%)" offset="0.0703125"/><stop stop-opacity="1" stop-color="rgb(0%, 26.487732%, 65.072632%)" offset="0.078125"/><stop stop-opacity="1" stop-color="rgb(0%, 26.760864%, 65.112305%)" offset="0.0859375"/><stop stop-opacity="1" stop-color="rgb(0%, 27.032471%, 65.151978%)" offset="0.09375"/><stop stop-opacity="1" stop-color="rgb(0%, 27.305603%, 65.19165%)" offset="0.101563"/><stop stop-opacity="1" stop-color="rgb(0%, 27.577209%, 65.231323%)" offset="0.109375"/><stop stop-opacity="1" stop-color="rgb(0%, 27.850342%, 65.26947%)" offset="0.117188"/><stop stop-opacity="1" stop-color="rgb(0%, 28.123474%, 65.309143%)" offset="0.125"/><stop stop-opacity="1" stop-color="rgb(0%, 28.395081%, 65.348816%)" offset="0.132812"/><stop stop-opacity="1" stop-color="rgb(0%, 28.668213%, 65.388489%)" offset="0.140625"/><stop stop-opacity="1" stop-color="rgb(0%, 28.939819%, 65.428162%)" offset="0.148438"/><stop stop-opacity="1" stop-color="rgb(0%, 29.212952%, 65.466309%)" offset="0.15625"/><stop stop-opacity="1" stop-color="rgb(0%, 29.486084%, 65.505981%)" offset="0.164062"/><stop stop-opacity="1" stop-color="rgb(0%, 29.75769%, 65.545654%)" offset="0.171875"/><stop stop-opacity="1" stop-color="rgb(0%, 30.030823%, 65.585327%)" offset="0.179688"/><stop stop-opacity="1" stop-color="rgb(0%, 30.302429%, 65.625%)" offset="0.1875"/><stop stop-opacity="1" stop-color="rgb(0%, 30.575562%, 65.663147%)" offset="0.195313"/><stop stop-opacity="1" stop-color="rgb(0%, 30.848694%, 65.70282%)" offset="0.203125"/><stop stop-opacity="1" stop-color="rgb(0%, 31.1203%, 65.742493%)" offset="0.210938"/><stop stop-opacity="1" stop-color="rgb(0%, 31.393433%, 65.782166%)" offset="0.21875"/><stop stop-opacity="1" stop-color="rgb(0%, 31.666565%, 65.821838%)" offset="0.226562"/><stop stop-opacity="1" stop-color="rgb(0%, 31.938171%, 65.859985%)" offset="0.234375"/><stop stop-opacity="1" stop-color="rgb(0%, 32.211304%, 65.899658%)" offset="0.242188"/><stop stop-opacity="1" stop-color="rgb(0%, 32.48291%, 65.939331%)" offset="0.25"/><stop stop-opacity="1" stop-color="rgb(0%, 32.756042%, 65.979004%)" offset="0.257813"/><stop stop-opacity="1" stop-color="rgb(0%, 33.029175%, 66.018677%)" offset="0.265625"/><stop stop-opacity="1" stop-color="rgb(0%, 33.300781%, 66.056824%)" offset="0.273438"/><stop stop-opacity="1" stop-color="rgb(0%, 33.573914%, 66.096497%)" offset="0.28125"/><stop stop-opacity="1" stop-color="rgb(0%, 33.84552%, 66.136169%)" offset="0.289063"/><stop stop-opacity="1" stop-color="rgb(0%, 34.118652%, 66.175842%)" offset="0.296875"/><stop stop-opacity="1" stop-color="rgb(0%, 34.391785%, 66.215515%)" offset="0.304688"/><stop stop-opacity="1" stop-color="rgb(0%, 34.663391%, 66.253662%)" offset="0.3125"/><stop stop-opacity="1" stop-color="rgb(0%, 34.936523%, 66.293335%)" offset="0.320313"/><stop stop-opacity="1" stop-color="rgb(0%, 35.20813%, 66.333008%)" offset="0.328125"/><stop stop-opacity="1" stop-color="rgb(0%, 35.481262%, 66.372681%)" offset="0.335938"/><stop stop-opacity="1" stop-color="rgb(0%, 35.754395%, 66.412354%)" offset="0.34375"/><stop stop-opacity="1" stop-color="rgb(0%, 36.026001%, 66.4505%)" offset="0.351563"/><stop stop-opacity="1" stop-color="rgb(0%, 36.299133%, 66.490173%)" offset="0.359375"/><stop stop-opacity="1" stop-color="rgb(0%, 36.57074%, 66.529846%)" offset="0.367188"/><stop stop-opacity="1" stop-color="rgb(0%, 36.843872%, 66.569519%)" offset="0.375"/><stop stop-opacity="1" stop-color="rgb(0%, 37.117004%, 66.609192%)" offset="0.382813"/><stop stop-opacity="1" stop-color="rgb(0%, 37.388611%, 66.647339%)" offset="0.390625"/><stop stop-opacity="1" stop-color="rgb(0%, 37.661743%, 66.687012%)" offset="0.398438"/><stop stop-opacity="1" stop-color="rgb(0%, 37.93335%, 66.726685%)" offset="0.40625"/><stop stop-opacity="1" stop-color="rgb(0%, 38.206482%, 66.766357%)" offset="0.414063"/><stop stop-opacity="1" stop-color="rgb(0%, 38.479614%, 66.80603%)" offset="0.421875"/><stop stop-opacity="1" stop-color="rgb(0%, 38.751221%, 66.845703%)" offset="0.429688"/><stop stop-opacity="1" stop-color="rgb(0%, 39.024353%, 66.88385%)" offset="0.4375"/><stop stop-opacity="1" stop-color="rgb(0%, 39.295959%, 66.923523%)" offset="0.445313"/><stop stop-opacity="1" stop-color="rgb(0%, 39.569092%, 66.963196%)" offset="0.453125"/><stop stop-opacity="1" stop-color="rgb(0%, 39.842224%, 67.002869%)" offset="0.460938"/><stop stop-opacity="1" stop-color="rgb(0%, 40.113831%, 67.042542%)" offset="0.46875"/><stop stop-opacity="1" stop-color="rgb(0%, 40.386963%, 67.080688%)" offset="0.476563"/><stop stop-opacity="1" stop-color="rgb(0%, 40.658569%, 67.120361%)" offset="0.484375"/><stop stop-opacity="1" stop-color="rgb(0%, 40.931702%, 67.160034%)" offset="0.492188"/><stop stop-opacity="1" stop-color="rgb(0%, 41.204834%, 67.199707%)" offset="0.497537"/><stop stop-opacity="1" stop-color="rgb(0%, 41.340637%, 67.219543%)" offset="0.5"/><stop stop-opacity="1" stop-color="rgb(0%, 41.47644%, 67.23938%)" offset="0.502463"/><stop stop-opacity="1" stop-color="rgb(0%, 41.61377%, 67.259216%)" offset="0.507812"/><stop stop-opacity="1" stop-color="rgb(0%, 41.749573%, 67.277527%)" offset="0.515625"/><stop stop-opacity="1" stop-color="rgb(0%, 42.021179%, 67.3172%)" offset="0.523438"/><stop stop-opacity="1" stop-color="rgb(0%, 42.294312%, 67.356873%)" offset="0.53125"/><stop stop-opacity="1" stop-color="rgb(0%, 42.567444%, 67.396545%)" offset="0.539062"/><stop stop-opacity="1" stop-color="rgb(0%, 42.83905%, 67.436218%)" offset="0.546875"/><stop stop-opacity="1" stop-color="rgb(0%, 43.112183%, 67.474365%)" offset="0.554688"/><stop stop-opacity="1" stop-color="rgb(0%, 43.383789%, 67.514038%)" offset="0.5625"/><stop stop-opacity="1" stop-color="rgb(0%, 43.656921%, 67.553711%)" offset="0.570313"/><stop stop-opacity="1" stop-color="rgb(0%, 43.930054%, 67.593384%)" offset="0.578125"/><stop stop-opacity="1" stop-color="rgb(0%, 44.20166%, 67.633057%)" offset="0.585937"/><stop stop-opacity="1" stop-color="rgb(0%, 44.474792%, 67.671204%)" offset="0.59375"/><stop stop-opacity="1" stop-color="rgb(0%, 44.746399%, 67.710876%)" offset="0.601562"/><stop stop-opacity="1" stop-color="rgb(0%, 45.019531%, 67.750549%)" offset="0.609375"/><stop stop-opacity="1" stop-color="rgb(0%, 45.292664%, 67.790222%)" offset="0.617188"/><stop stop-opacity="1" stop-color="rgb(0%, 45.56427%, 67.829895%)" offset="0.625"/><stop stop-opacity="1" stop-color="rgb(0%, 45.837402%, 67.868042%)" offset="0.632812"/><stop stop-opacity="1" stop-color="rgb(0%, 46.109009%, 67.907715%)" offset="0.640625"/><stop stop-opacity="1" stop-color="rgb(0%, 46.382141%, 67.947388%)" offset="0.648438"/><stop stop-opacity="1" stop-color="rgb(0%, 46.655273%, 67.987061%)" offset="0.65625"/><stop stop-opacity="1" stop-color="rgb(0%, 46.92688%, 68.026733%)" offset="0.664063"/><stop stop-opacity="1" stop-color="rgb(0%, 47.200012%, 68.06488%)" offset="0.671875"/><stop stop-opacity="1" stop-color="rgb(0%, 47.473145%, 68.104553%)" offset="0.679687"/><stop stop-opacity="1" stop-color="rgb(0%, 47.744751%, 68.144226%)" offset="0.6875"/><stop stop-opacity="1" stop-color="rgb(0%, 48.017883%, 68.183899%)" offset="0.695312"/><stop stop-opacity="1" stop-color="rgb(0%, 48.28949%, 68.223572%)" offset="0.703125"/><stop stop-opacity="1" stop-color="rgb(0%, 48.562622%, 68.261719%)" offset="0.710938"/><stop stop-opacity="1" stop-color="rgb(0%, 48.835754%, 68.301392%)" offset="0.71875"/><stop stop-opacity="1" stop-color="rgb(0%, 49.107361%, 68.341064%)" offset="0.726562"/><stop stop-opacity="1" stop-color="rgb(0%, 49.380493%, 68.380737%)" offset="0.734375"/><stop stop-opacity="1" stop-color="rgb(0%, 49.6521%, 68.42041%)" offset="0.742188"/><stop stop-opacity="1" stop-color="rgb(0%, 49.925232%, 68.458557%)" offset="0.75"/><stop stop-opacity="1" stop-color="rgb(0%, 50.198364%, 68.49823%)" offset="0.757813"/><stop stop-opacity="1" stop-color="rgb(0%, 50.469971%, 68.537903%)" offset="0.765625"/><stop stop-opacity="1" stop-color="rgb(0%, 50.743103%, 68.577576%)" offset="0.773437"/><stop stop-opacity="1" stop-color="rgb(0%, 51.014709%, 68.617249%)" offset="0.78125"/><stop stop-opacity="1" stop-color="rgb(0%, 51.287842%, 68.655396%)" offset="0.789062"/><stop stop-opacity="1" stop-color="rgb(0%, 51.560974%, 68.695068%)" offset="0.796875"/><stop stop-opacity="1" stop-color="rgb(0%, 51.832581%, 68.734741%)" offset="0.804688"/><stop stop-opacity="1" stop-color="rgb(0%, 52.105713%, 68.774414%)" offset="0.8125"/><stop stop-opacity="1" stop-color="rgb(0%, 52.377319%, 68.814087%)" offset="0.820312"/><stop stop-opacity="1" stop-color="rgb(0%, 52.650452%, 68.85376%)" offset="0.828125"/><stop stop-opacity="1" stop-color="rgb(0%, 52.923584%, 68.891907%)" offset="0.835938"/><stop stop-opacity="1" stop-color="rgb(0%, 53.19519%, 68.93158%)" offset="0.84375"/><stop stop-opacity="1" stop-color="rgb(0%, 53.468323%, 68.971252%)" offset="0.851563"/><stop stop-opacity="1" stop-color="rgb(0%, 53.739929%, 69.010925%)" offset="0.859375"/><stop stop-opacity="1" stop-color="rgb(0%, 54.013062%, 69.050598%)" offset="0.867187"/><stop stop-opacity="1" stop-color="rgb(0%, 54.286194%, 69.088745%)" offset="0.875"/><stop stop-opacity="1" stop-color="rgb(0%, 54.5578%, 69.128418%)" offset="0.882812"/><stop stop-opacity="1" stop-color="rgb(0%, 54.830933%, 69.168091%)" offset="0.890625"/><stop stop-opacity="1" stop-color="rgb(0%, 55.102539%, 69.207764%)" offset="0.898438"/><stop stop-opacity="1" stop-color="rgb(0%, 55.375671%, 69.247437%)" offset="0.90625"/><stop stop-opacity="1" stop-color="rgb(0%, 55.648804%, 69.285583%)" offset="0.914062"/><stop stop-opacity="1" stop-color="rgb(0%, 55.92041%, 69.325256%)" offset="0.921875"/><stop stop-opacity="1" stop-color="rgb(0%, 56.193542%, 69.364929%)" offset="0.929688"/><stop stop-opacity="1" stop-color="rgb(0%, 56.465149%, 69.404602%)" offset="0.9375"/><stop stop-opacity="1" stop-color="rgb(0%, 56.738281%, 69.444275%)" offset="0.945313"/><stop stop-opacity="1" stop-color="rgb(0%, 57.011414%, 69.482422%)" offset="0.953125"/><stop stop-opacity="1" stop-color="rgb(0%, 57.28302%, 69.522095%)" offset="0.960937"/><stop stop-opacity="1" stop-color="rgb(0%, 57.556152%, 69.561768%)" offset="0.96875"/><stop stop-opacity="1" stop-color="rgb(0%, 57.827759%, 69.60144%)" offset="0.976562"/><stop stop-opacity="1" stop-color="rgb(0%, 58.100891%, 69.641113%)" offset="0.984375"/><stop stop-opacity="1" stop-color="rgb(0%, 58.374023%, 69.67926%)" offset="0.992188"/><stop stop-opacity="1" stop-color="rgb(0%, 58.64563%, 69.718933%)" offset="1"/></linearGradient><mask id="0ee1e88a41"><g filter="url(#fe459dd20a)"><rect x="-37.5" width="450" fill="#000000" y="-37.499999" height="449.999989" fill-opacity="0.3294"/></g></mask><clipPath id="a3d106bbb8"><path d="M 0.367188 18 L 242 18 L 242 239.6875 L 0.367188 239.6875 Z M 0.367188 18 " clip-rule="nonzero"/></clipPath><clipPath id="fcd1ff34a5"><path d="M 45 0.4375 L 67 0.4375 L 67 49 L 45 49 Z M 45 0.4375 " clip-rule="nonzero"/></clipPath><clipPath id="5ba60b78b7"><path d="M 174 0.4375 L 196 0.4375 L 196 49 L 174 49 Z M 174 0.4375 " clip-rule="nonzero"/></clipPath><clipPath id="432adfb020"><rect x="0" width="244" y="0" height="241"/></clipPath><clipPath id="e7b6dd849e"><path d="M 66.367188 85 L 308 85 L 308 306.980469 L 66.367188 306.980469 Z M 66.367188 85 " clip-rule="nonzero"/></clipPath><clipPath id="67d1ee5c0d"><path d="M 111 67.730469 L 133 67.730469 L 133 116 L 111 116 Z M 111 67.730469 " clip-rule="nonzero"/></clipPath><clipPath id="a1f0a0e571"><path d="M 240 67.730469 L 262 67.730469 L 262 116 L 240 116 Z M 240 67.730469 " clip-rule="nonzero"/></clipPath></defs><g clip-path="url(#7ad8fd2ed7)"><g clip-path="url(#43eee9ccc9)"><path fill="url(#eee8028912)" d="M 6.660156 6.660156 L 6.660156 368.160156 L 368.160156 368.160156 L 368.160156 6.660156 Z M 6.660156 6.660156 " fill-rule="nonzero"/></g></g><g mask="url(#0ee1e88a41)"><g transform="matrix(1, 0, 0, 1, 66, 76)"><g clip-path="url(#432adfb020)"><g clip-path="url(#a3d106bbb8)"><path fill="#000000" d="M 218.050781 18.390625 L 203.03125 18.390625 L 203.03125 38.75 C 203.03125 48.394531 195.25 55.898438 185.863281 55.898438 L 184.789062 55.898438 C 175.132812 55.898438 167.625 48.128906 167.625 38.75 L 167.625 18.390625 L 73.746094 18.390625 L 73.746094 38.75 C 73.746094 48.394531 65.96875 55.898438 56.582031 55.898438 L 55.507812 55.898438 C 45.851562 55.898438 38.34375 48.128906 38.34375 38.75 L 38.34375 18.390625 L 24.933594 18.390625 C 11.519531 18.390625 0.792969 29.105469 0.792969 42.503906 L 0.792969 215.578125 C 0.792969 228.972656 11.519531 239.6875 24.933594 239.6875 L 183.449219 239.6875 L 194.714844 239.421875 C 196.054688 238.886719 197.398438 238.347656 198.46875 237.277344 L 237.363281 196.019531 C 237.898438 195.484375 238.167969 194.945312 238.703125 194.410156 C 240.847656 191.730469 241.921875 188.515625 241.921875 185.300781 L 241.921875 42.503906 C 242.1875 29.105469 231.460938 18.390625 218.050781 18.390625 Z M 194.445312 216.648438 L 194.445312 195.75 C 194.445312 191.730469 197.664062 188.785156 201.421875 188.785156 L 221 188.785156 Z M 225.023438 171.636719 L 201.421875 171.636719 C 188.007812 171.636719 177.28125 182.355469 177.28125 195.75 L 177.28125 222.808594 L 24.933594 222.808594 C 20.910156 222.808594 17.957031 219.59375 17.957031 215.84375 L 17.957031 80.546875 L 225.292969 80.546875 L 225.292969 171.636719 Z M 225.023438 171.636719 " fill-opacity="1" fill-rule="nonzero"/></g><g clip-path="url(#fcd1ff34a5)"><path fill="#000000" d="M 56.3125 48.394531 C 61.679688 48.394531 66.238281 43.839844 66.238281 38.484375 L 66.238281 10.351562 C 66.238281 4.992188 61.679688 0.4375 56.3125 0.4375 L 55.242188 0.4375 C 49.875 0.4375 45.316406 4.992188 45.316406 10.351562 L 45.316406 38.75 C 45.316406 44.109375 49.875 48.664062 55.242188 48.664062 L 56.3125 48.664062 Z M 56.3125 48.394531 " fill-opacity="1" fill-rule="nonzero"/></g><g clip-path="url(#5ba60b78b7)"><path fill="#000000" d="M 185.863281 48.394531 C 191.226562 48.394531 195.789062 43.839844 195.789062 38.484375 L 195.789062 10.351562 C 195.789062 4.992188 191.226562 0.4375 185.863281 0.4375 L 184.789062 0.4375 C 179.425781 0.4375 174.867188 4.992188 174.867188 10.351562 L 174.867188 38.75 C 174.867188 44.109375 179.425781 48.664062 184.789062 48.664062 L 185.863281 48.664062 Z M 185.863281 48.394531 " fill-opacity="1" fill-rule="nonzero"/></g><path fill="#000000" d="M 44.242188 104.121094 L 64.09375 104.121094 L 64.09375 123.949219 L 44.242188 123.949219 Z M 44.242188 104.121094 " fill-opacity="1" fill-rule="nonzero"/><path fill="#000000" d="M 89.304688 104.121094 L 109.152344 104.121094 L 109.152344 123.949219 L 89.304688 123.949219 Z M 89.304688 104.121094 " fill-opacity="1" fill-rule="nonzero"/><path fill="#000000" d="M 134.367188 104.121094 L 154.214844 104.121094 L 154.214844 123.949219 L 134.367188 123.949219 Z M 134.367188 104.121094 " fill-opacity="1" fill-rule="nonzero"/><path fill="#000000" d="M 179.15625 104.121094 L 199.007812 104.121094 L 199.007812 123.949219 L 179.15625 123.949219 Z M 179.15625 104.121094 " fill-opacity="1" fill-rule="nonzero"/><path fill="#000000" d="M 44.242188 142.167969 L 64.09375 142.167969 L 64.09375 161.992188 L 44.242188 161.992188 Z M 44.242188 142.167969 " fill-opacity="1" fill-rule="nonzero"/><path fill="#000000" d="M 89.304688 142.167969 L 109.152344 142.167969 L 109.152344 161.992188 L 89.304688 161.992188 Z M 89.304688 142.167969 " fill-opacity="1" fill-rule="nonzero"/><path fill="#000000" d="M 134.367188 142.167969 L 154.214844 142.167969 L 154.214844 161.992188 L 134.367188 161.992188 Z M 134.367188 142.167969 " fill-opacity="1" fill-rule="nonzero"/><path fill="#000000" d="M 179.15625 142.167969 L 199.007812 142.167969 L 199.007812 161.992188 L 179.15625 161.992188 Z M 179.15625 142.167969 " fill-opacity="1" fill-rule="nonzero"/><path fill="#000000" d="M 44.242188 180.480469 L 64.09375 180.480469 L 64.09375 200.304688 L 44.242188 200.304688 Z M 44.242188 180.480469 " fill-opacity="1" fill-rule="nonzero"/><path fill="#000000" d="M 89.304688 180.480469 L 109.152344 180.480469 L 109.152344 200.304688 L 89.304688 200.304688 Z M 89.304688 180.480469 " fill-opacity="1" fill-rule="nonzero"/><path fill="#000000" d="M 134.367188 180.480469 L 154.214844 180.480469 L 154.214844 200.304688 L 134.367188 200.304688 Z M 134.367188 180.480469 " fill-opacity="1" fill-rule="nonzero"/></g></g></g><g clip-path="url(#e7b6dd849e)"><path fill="#ffffff" d="M 284.050781 85.679688 L 269.03125 85.679688 L 269.03125 106.039062 C 269.03125 115.6875 261.25 123.1875 251.863281 123.1875 L 250.789062 123.1875 C 241.132812 123.1875 233.625 115.417969 233.625 106.039062 L 233.625 85.679688 L 139.746094 85.679688 L 139.746094 106.039062 C 139.746094 115.6875 131.96875 123.1875 122.582031 123.1875 L 121.507812 123.1875 C 111.851562 123.1875 104.34375 115.417969 104.34375 106.039062 L 104.34375 85.679688 L 90.933594 85.679688 C 77.519531 85.679688 66.792969 96.394531 66.792969 109.792969 L 66.792969 282.867188 C 66.792969 296.261719 77.519531 306.980469 90.933594 306.980469 L 249.449219 306.980469 L 260.714844 306.710938 C 262.054688 306.175781 263.398438 305.640625 264.46875 304.566406 L 303.363281 263.308594 C 303.898438 262.773438 304.167969 262.238281 304.703125 261.699219 C 306.847656 259.019531 307.921875 255.804688 307.921875 252.589844 L 307.921875 109.792969 C 308.1875 96.394531 297.460938 85.679688 284.050781 85.679688 Z M 260.445312 283.9375 L 260.445312 263.039062 C 260.445312 259.019531 263.664062 256.074219 267.421875 256.074219 L 287 256.074219 Z M 291.023438 238.925781 L 267.421875 238.925781 C 254.007812 238.925781 243.28125 249.644531 243.28125 263.039062 L 243.28125 290.101562 L 90.933594 290.101562 C 86.910156 290.101562 83.957031 286.886719 83.957031 283.132812 L 83.957031 147.835938 L 291.292969 147.835938 L 291.292969 238.925781 Z M 291.023438 238.925781 " fill-opacity="1" fill-rule="nonzero"/></g><g clip-path="url(#67d1ee5c0d)"><path fill="#ffffff" d="M 122.3125 115.6875 C 127.679688 115.6875 132.238281 111.132812 132.238281 105.773438 L 132.238281 77.640625 C 132.238281 72.28125 127.679688 67.730469 122.3125 67.730469 L 121.242188 67.730469 C 115.875 67.730469 111.316406 72.28125 111.316406 77.640625 L 111.316406 106.039062 C 111.316406 111.398438 115.875 115.953125 121.242188 115.953125 L 122.3125 115.953125 Z M 122.3125 115.6875 " fill-opacity="1" fill-rule="nonzero"/></g><g clip-path="url(#a1f0a0e571)"><path fill="#ffffff" d="M 251.863281 115.6875 C 257.226562 115.6875 261.789062 111.132812 261.789062 105.773438 L 261.789062 77.640625 C 261.789062 72.28125 257.226562 67.730469 251.863281 67.730469 L 250.789062 67.730469 C 245.425781 67.730469 240.867188 72.28125 240.867188 77.640625 L 240.867188 106.039062 C 240.867188 111.398438 245.425781 115.953125 250.789062 115.953125 L 251.863281 115.953125 Z M 251.863281 115.6875 " fill-opacity="1" fill-rule="nonzero"/></g><path fill="#ffffff" d="M 110.242188 171.414062 L 130.09375 171.414062 L 130.09375 191.238281 L 110.242188 191.238281 Z M 110.242188 171.414062 " fill-opacity="1" fill-rule="nonzero"/><path fill="#ffffff" d="M 155.304688 171.414062 L 175.152344 171.414062 L 175.152344 191.238281 L 155.304688 191.238281 Z M 155.304688 171.414062 " fill-opacity="1" fill-rule="nonzero"/><path fill="#ffffff" d="M 200.367188 171.414062 L 220.214844 171.414062 L 220.214844 191.238281 L 200.367188 191.238281 Z M 200.367188 171.414062 " fill-opacity="1" fill-rule="nonzero"/><path fill="#ffffff" d="M 245.15625 171.414062 L 265.007812 171.414062 L 265.007812 191.238281 L 245.15625 191.238281 Z M 245.15625 171.414062 " fill-opacity="1" fill-rule="nonzero"/><path fill="#ffffff" d="M 110.242188 209.457031 L 130.09375 209.457031 L 130.09375 229.28125 L 110.242188 229.28125 Z M 110.242188 209.457031 " fill-opacity="1" fill-rule="nonzero"/><path fill="#ffffff" d="M 155.304688 209.457031 L 175.152344 209.457031 L 175.152344 229.28125 L 155.304688 229.28125 Z M 155.304688 209.457031 " fill-opacity="1" fill-rule="nonzero"/><path fill="#ffffff" d="M 200.367188 209.457031 L 220.214844 209.457031 L 220.214844 229.28125 L 200.367188 229.28125 Z M 200.367188 209.457031 " fill-opacity="1" fill-rule="nonzero"/><path fill="#ffffff" d="M 245.15625 209.457031 L 265.007812 209.457031 L 265.007812 229.28125 L 245.15625 229.28125 Z M 245.15625 209.457031 " fill-opacity="1" fill-rule="nonzero"/><path fill="#ffffff" d="M 110.242188 247.769531 L 130.09375 247.769531 L 130.09375 267.59375 L 110.242188 267.59375 Z M 110.242188 247.769531 " fill-opacity="1" fill-rule="nonzero"/><path fill="#ffffff" d="M 155.304688 247.769531 L 175.152344 247.769531 L 175.152344 267.59375 L 155.304688 267.59375 Z M 155.304688 247.769531 " fill-opacity="1" fill-rule="nonzero"/><path fill="#ffffff" d="M 200.367188 247.769531 L 220.214844 247.769531 L 220.214844 267.59375 L 200.367188 267.59375 Z M 200.367188 247.769531 " fill-opacity="1" fill-rule="nonzero"/></svg>