<svg xmlns="http://www.w3.org/2000/svg" xmlns:xlink="http://www.w3.org/1999/xlink" width="600" zoomAndPan="magnify" viewBox="0 0 450 225" height="300" preserveAspectRatio="xMidYMid meet" version="1.0"><defs><linearGradient x1="0" gradientTransform="matrix(0.75, 0, 0, 0.75, 0, 0.00004)" y1="0" x2="599.999975" gradientUnits="userSpaceOnUse" y2="0" id="9c29bb3029"><stop stop-opacity="1" stop-color="rgb(0%, 28.999329%, 67.799377%)" offset="0"/><stop stop-opacity="1" stop-color="rgb(0.102234%, 29.013062%, 67.681885%)" offset="0.0078125"/><stop stop-opacity="1" stop-color="rgb(0.306702%, 29.040527%, 67.449951%)" offset="0.015625"/><stop stop-opacity="1" stop-color="rgb(0.512695%, 29.067993%, 67.216492%)" offset="0.0234375"/><stop stop-opacity="1" stop-color="rgb(0.717163%, 29.095459%, 66.984558%)" offset="0.03125"/><stop stop-opacity="1" stop-color="rgb(0.923157%, 29.122925%, 66.751099%)" offset="0.0390625"/><stop stop-opacity="1" stop-color="rgb(1.12915%, 29.148865%, 66.517639%)" offset="0.046875"/><stop stop-opacity="1" stop-color="rgb(1.333618%, 29.176331%, 66.285706%)" offset="0.0546875"/><stop stop-opacity="1" stop-color="rgb(1.539612%, 29.203796%, 66.052246%)" offset="0.0625"/><stop stop-opacity="1" stop-color="rgb(1.745605%, 29.231262%, 65.820312%)" offset="0.0703125"/><stop stop-opacity="1" stop-color="rgb(1.950073%, 29.258728%, 65.586853%)" offset="0.078125"/><stop stop-opacity="1" stop-color="rgb(2.156067%, 29.286194%, 65.354919%)" offset="0.0859375"/><stop stop-opacity="1" stop-color="rgb(2.362061%, 29.31366%, 65.12146%)" offset="0.09375"/><stop stop-opacity="1" stop-color="rgb(2.566528%, 29.341125%, 64.888%)" offset="0.101562"/><stop stop-opacity="1" stop-color="rgb(2.772522%, 29.368591%, 64.656067%)" offset="0.109375"/><stop stop-opacity="1" stop-color="rgb(2.978516%, 29.396057%, 64.422607%)" offset="0.117188"/><stop stop-opacity="1" stop-color="rgb(3.182983%, 29.423523%, 64.190674%)" offset="0.125"/><stop stop-opacity="1" stop-color="rgb(3.388977%, 29.450989%, 63.957214%)" offset="0.132812"/><stop stop-opacity="1" stop-color="rgb(3.594971%, 29.476929%, 63.725281%)" offset="0.140625"/><stop stop-opacity="1" stop-color="rgb(3.799438%, 29.504395%, 63.491821%)" offset="0.148438"/><stop stop-opacity="1" stop-color="rgb(4.005432%, 29.53186%, 63.258362%)" offset="0.15625"/><stop stop-opacity="1" stop-color="rgb(4.211426%, 29.559326%, 63.026428%)" offset="0.164062"/><stop stop-opacity="1" stop-color="rgb(4.415894%, 29.586792%, 62.792969%)" offset="0.171875"/><stop stop-opacity="1" stop-color="rgb(4.621887%, 29.614258%, 62.561035%)" offset="0.179688"/><stop stop-opacity="1" stop-color="rgb(4.827881%, 29.641724%, 62.327576%)" offset="0.1875"/><stop stop-opacity="1" stop-color="rgb(5.032349%, 29.669189%, 62.095642%)" offset="0.195312"/><stop stop-opacity="1" stop-color="rgb(5.238342%, 29.696655%, 61.862183%)" offset="0.203125"/><stop stop-opacity="1" stop-color="rgb(5.444336%, 29.724121%, 61.628723%)" offset="0.210938"/><stop stop-opacity="1" stop-color="rgb(5.648804%, 29.751587%, 61.39679%)" offset="0.21875"/><stop stop-opacity="1" stop-color="rgb(5.854797%, 29.779053%, 61.16333%)" offset="0.226562"/><stop stop-opacity="1" stop-color="rgb(6.060791%, 29.806519%, 60.931396%)" offset="0.234375"/><stop stop-opacity="1" stop-color="rgb(6.265259%, 29.832458%, 60.697937%)" offset="0.242188"/><stop stop-opacity="1" stop-color="rgb(6.471252%, 29.859924%, 60.464478%)" offset="0.25"/><stop stop-opacity="1" stop-color="rgb(6.67572%, 29.88739%, 60.232544%)" offset="0.257812"/><stop stop-opacity="1" stop-color="rgb(6.881714%, 29.914856%, 59.999084%)" offset="0.265625"/><stop stop-opacity="1" stop-color="rgb(7.087708%, 29.942322%, 59.767151%)" offset="0.273438"/><stop stop-opacity="1" stop-color="rgb(7.292175%, 29.969788%, 59.533691%)" offset="0.28125"/><stop stop-opacity="1" stop-color="rgb(7.498169%, 29.997253%, 59.301758%)" offset="0.289062"/><stop stop-opacity="1" stop-color="rgb(7.704163%, 30.024719%, 59.068298%)" offset="0.296875"/><stop stop-opacity="1" stop-color="rgb(7.90863%, 30.052185%, 58.834839%)" offset="0.304688"/><stop stop-opacity="1" stop-color="rgb(8.114624%, 30.079651%, 58.602905%)" offset="0.3125"/><stop stop-opacity="1" stop-color="rgb(8.320618%, 30.107117%, 58.369446%)" offset="0.320312"/><stop stop-opacity="1" stop-color="rgb(8.525085%, 30.134583%, 58.137512%)" offset="0.328125"/><stop stop-opacity="1" stop-color="rgb(8.731079%, 30.160522%, 57.904053%)" offset="0.335938"/><stop stop-opacity="1" stop-color="rgb(8.937073%, 30.187988%, 57.672119%)" offset="0.34375"/><stop stop-opacity="1" stop-color="rgb(9.141541%, 30.215454%, 57.43866%)" offset="0.351562"/><stop stop-opacity="1" stop-color="rgb(9.347534%, 30.24292%, 57.2052%)" offset="0.359375"/><stop stop-opacity="1" stop-color="rgb(9.553528%, 30.270386%, 56.973267%)" offset="0.367188"/><stop stop-opacity="1" stop-color="rgb(9.757996%, 30.297852%, 56.739807%)" offset="0.375"/><stop stop-opacity="1" stop-color="rgb(9.963989%, 30.325317%, 56.507874%)" offset="0.382812"/><stop stop-opacity="1" stop-color="rgb(10.169983%, 30.352783%, 56.274414%)" offset="0.390625"/><stop stop-opacity="1" stop-color="rgb(10.374451%, 30.380249%, 56.04248%)" offset="0.398438"/><stop stop-opacity="1" stop-color="rgb(10.580444%, 30.407715%, 55.809021%)" offset="0.40625"/><stop stop-opacity="1" stop-color="rgb(10.786438%, 30.435181%, 55.575562%)" offset="0.414062"/><stop stop-opacity="1" stop-color="rgb(10.990906%, 30.462646%, 55.343628%)" offset="0.421875"/><stop stop-opacity="1" stop-color="rgb(11.196899%, 30.490112%, 55.110168%)" offset="0.429688"/><stop stop-opacity="1" stop-color="rgb(11.402893%, 30.516052%, 54.878235%)" offset="0.4375"/><stop stop-opacity="1" stop-color="rgb(11.607361%, 30.543518%, 54.644775%)" offset="0.445312"/><stop stop-opacity="1" stop-color="rgb(11.813354%, 30.570984%, 54.412842%)" offset="0.453125"/><stop stop-opacity="1" stop-color="rgb(12.019348%, 30.59845%, 54.179382%)" offset="0.460938"/><stop stop-opacity="1" stop-color="rgb(12.223816%, 30.625916%, 53.945923%)" offset="0.46875"/><stop stop-opacity="1" stop-color="rgb(12.42981%, 30.653381%, 53.713989%)" offset="0.476562"/><stop stop-opacity="1" stop-color="rgb(12.635803%, 30.680847%, 53.48053%)" offset="0.484375"/><stop stop-opacity="1" stop-color="rgb(12.840271%, 30.708313%, 53.248596%)" offset="0.492188"/><stop stop-opacity="1" stop-color="rgb(13.046265%, 30.735779%, 53.015137%)" offset="0.5"/><stop stop-opacity="1" stop-color="rgb(13.250732%, 30.763245%, 52.781677%)" offset="0.507812"/><stop stop-opacity="1" stop-color="rgb(13.456726%, 30.79071%, 52.549744%)" offset="0.515625"/><stop stop-opacity="1" stop-color="rgb(13.66272%, 30.818176%, 52.316284%)" offset="0.523438"/><stop stop-opacity="1" stop-color="rgb(13.867188%, 30.844116%, 52.084351%)" offset="0.53125"/><stop stop-opacity="1" stop-color="rgb(14.073181%, 30.871582%, 51.850891%)" offset="0.539062"/><stop stop-opacity="1" stop-color="rgb(14.279175%, 30.899048%, 51.618958%)" offset="0.546875"/><stop stop-opacity="1" stop-color="rgb(14.483643%, 30.926514%, 51.385498%)" offset="0.554688"/><stop stop-opacity="1" stop-color="rgb(14.689636%, 30.953979%, 51.152039%)" offset="0.5625"/><stop stop-opacity="1" stop-color="rgb(14.89563%, 30.981445%, 50.920105%)" offset="0.570312"/><stop stop-opacity="1" stop-color="rgb(15.100098%, 31.008911%, 50.686646%)" offset="0.578125"/><stop stop-opacity="1" stop-color="rgb(15.306091%, 31.036377%, 50.454712%)" offset="0.585938"/><stop stop-opacity="1" stop-color="rgb(15.512085%, 31.063843%, 50.221252%)" offset="0.59375"/><stop stop-opacity="1" stop-color="rgb(15.716553%, 31.091309%, 49.989319%)" offset="0.601562"/><stop stop-opacity="1" stop-color="rgb(15.922546%, 31.118774%, 49.755859%)" offset="0.609375"/><stop stop-opacity="1" stop-color="rgb(16.12854%, 31.14624%, 49.5224%)" offset="0.617188"/><stop stop-opacity="1" stop-color="rgb(16.333008%, 31.173706%, 49.290466%)" offset="0.625"/><stop stop-opacity="1" stop-color="rgb(16.539001%, 31.199646%, 49.057007%)" offset="0.632812"/><stop stop-opacity="1" stop-color="rgb(16.744995%, 31.227112%, 48.825073%)" offset="0.640625"/><stop stop-opacity="1" stop-color="rgb(16.949463%, 31.254578%, 48.591614%)" offset="0.648438"/><stop stop-opacity="1" stop-color="rgb(17.155457%, 31.282043%, 48.35968%)" offset="0.65625"/><stop stop-opacity="1" stop-color="rgb(17.36145%, 31.309509%, 48.126221%)" offset="0.664062"/><stop stop-opacity="1" stop-color="rgb(17.565918%, 31.336975%, 47.892761%)" offset="0.671875"/><stop stop-opacity="1" stop-color="rgb(17.771912%, 31.364441%, 47.660828%)" offset="0.679688"/><stop stop-opacity="1" stop-color="rgb(17.977905%, 31.391907%, 47.427368%)" offset="0.6875"/><stop stop-opacity="1" stop-color="rgb(18.182373%, 31.419373%, 47.195435%)" offset="0.695312"/><stop stop-opacity="1" stop-color="rgb(18.388367%, 31.446838%, 46.961975%)" offset="0.703125"/><stop stop-opacity="1" stop-color="rgb(18.59436%, 31.474304%, 46.728516%)" offset="0.710938"/><stop stop-opacity="1" stop-color="rgb(18.798828%, 31.50177%, 46.496582%)" offset="0.71875"/><stop stop-opacity="1" stop-color="rgb(19.004822%, 31.52771%, 46.263123%)" offset="0.726562"/><stop stop-opacity="1" stop-color="rgb(19.210815%, 31.555176%, 46.031189%)" offset="0.734375"/><stop stop-opacity="1" stop-color="rgb(19.415283%, 31.582642%, 45.797729%)" offset="0.742188"/><stop stop-opacity="1" stop-color="rgb(19.621277%, 31.610107%, 45.565796%)" offset="0.75"/><stop stop-opacity="1" stop-color="rgb(19.825745%, 31.637573%, 45.332336%)" offset="0.757812"/><stop stop-opacity="1" stop-color="rgb(20.031738%, 31.665039%, 45.098877%)" offset="0.765625"/><stop stop-opacity="1" stop-color="rgb(20.237732%, 31.692505%, 44.866943%)" offset="0.773438"/><stop stop-opacity="1" stop-color="rgb(20.4422%, 31.719971%, 44.633484%)" offset="0.78125"/><stop stop-opacity="1" stop-color="rgb(20.648193%, 31.747437%, 44.40155%)" offset="0.789062"/><stop stop-opacity="1" stop-color="rgb(20.854187%, 31.774902%, 44.168091%)" offset="0.796875"/><stop stop-opacity="1" stop-color="rgb(21.058655%, 31.802368%, 43.936157%)" offset="0.804688"/><stop stop-opacity="1" stop-color="rgb(21.264648%, 31.829834%, 43.702698%)" offset="0.8125"/><stop stop-opacity="1" stop-color="rgb(21.470642%, 31.8573%, 43.469238%)" offset="0.820312"/><stop stop-opacity="1" stop-color="rgb(21.67511%, 31.88324%, 43.237305%)" offset="0.828125"/><stop stop-opacity="1" stop-color="rgb(21.881104%, 31.910706%, 43.003845%)" offset="0.835938"/><stop stop-opacity="1" stop-color="rgb(22.087097%, 31.938171%, 42.771912%)" offset="0.84375"/><stop stop-opacity="1" stop-color="rgb(22.291565%, 31.965637%, 42.538452%)" offset="0.851562"/><stop stop-opacity="1" stop-color="rgb(22.497559%, 31.993103%, 42.306519%)" offset="0.859375"/><stop stop-opacity="1" stop-color="rgb(22.703552%, 32.020569%, 42.073059%)" offset="0.867188"/><stop stop-opacity="1" stop-color="rgb(22.90802%, 32.048035%, 41.8396%)" offset="0.875"/><stop stop-opacity="1" stop-color="rgb(23.114014%, 32.0755%, 41.607666%)" offset="0.882812"/><stop stop-opacity="1" stop-color="rgb(23.320007%, 32.102966%, 41.374207%)" offset="0.890625"/><stop stop-opacity="1" stop-color="rgb(23.524475%, 32.130432%, 41.142273%)" offset="0.898438"/><stop stop-opacity="1" stop-color="rgb(23.730469%, 32.157898%, 40.908813%)" offset="0.90625"/><stop stop-opacity="1" stop-color="rgb(23.936462%, 32.185364%, 40.67688%)" offset="0.914062"/><stop stop-opacity="1" stop-color="rgb(24.14093%, 32.211304%, 40.44342%)" offset="0.921875"/><stop stop-opacity="1" stop-color="rgb(24.346924%, 32.23877%, 40.209961%)" offset="0.929688"/><stop stop-opacity="1" stop-color="rgb(24.552917%, 32.266235%, 39.978027%)" offset="0.9375"/><stop stop-opacity="1" stop-color="rgb(24.757385%, 32.293701%, 39.744568%)" offset="0.945312"/><stop stop-opacity="1" stop-color="rgb(24.963379%, 32.321167%, 39.512634%)" offset="0.953125"/><stop stop-opacity="1" stop-color="rgb(25.169373%, 32.348633%, 39.279175%)" offset="0.960938"/><stop stop-opacity="1" stop-color="rgb(25.37384%, 32.376099%, 39.045715%)" offset="0.96875"/><stop stop-opacity="1" stop-color="rgb(25.579834%, 32.403564%, 38.813782%)" offset="0.976562"/><stop stop-opacity="1" stop-color="rgb(25.784302%, 32.43103%, 38.580322%)" offset="0.984375"/><stop stop-opacity="1" stop-color="rgb(25.990295%, 32.458496%, 38.348389%)" offset="0.992188"/><stop stop-opacity="1" stop-color="rgb(26.196289%, 32.485962%, 38.114929%)" offset="1"/></linearGradient><clipPath id="711a03ee53"><path d="M 104.292969 44.164062 L 244.234375 44.164062 L 244.234375 202.71875 L 104.292969 202.71875 Z M 104.292969 44.164062 " clip-rule="nonzero"/></clipPath><clipPath id="aa5390fe53"><path d="M 103.65625 44.164062 L 243.746094 44.164062 L 243.746094 202.71875 L 103.65625 202.71875 Z M 103.65625 44.164062 " clip-rule="nonzero"/></clipPath></defs><rect x="-45" width="540" fill="#ffffff" y="-22.5" height="270" fill-opacity="1"/><rect x="-45" fill="url(#9c29bb3029)" width="540" y="-22.5" height="270"/><path fill="#5fc232" d="M 145.601562 171.539062 C 146.222656 173.683594 144.984375 175.925781 142.847656 176.550781 L 64.261719 199.359375 C 62.117188 199.980469 59.878906 198.742188 59.257812 196.597656 L 24.117188 75.136719 C 23.496094 72.988281 24.730469 70.746094 26.871094 70.121094 L 105.453125 47.3125 C 107.597656 46.691406 109.839844 47.925781 110.457031 50.074219 L 145.601562 171.539062 " fill-opacity="1" fill-rule="nonzero"/><path fill="#b3a5ad" d="M 143.988281 171.976562 C 145.578125 173.863281 144.339844 176.105469 142.199219 176.726562 L 63.617188 199.535156 C 61.476562 200.15625 59.234375 198.917969 58.617188 196.773438 L 23.46875 75.3125 C 22.851562 73.167969 24.085938 70.921875 26.226562 70.296875 L 104.808594 47.492188 C 106.953125 46.871094 109.191406 48.105469 108.847656 50.515625 L 143.988281 171.976562 " fill-opacity="1" fill-rule="nonzero"/><path fill="#5fc232" d="M 109.191406 52.082031 C 108.605469 49.945312 106.398438 48.6875 104.265625 49.273438 L 25.949219 70.792969 C 23.8125 71.378906 22.554688 73.589844 23.140625 75.726562 L 56.292969 196.785156 C 56.621094 197.980469 57.457031 198.898438 58.5 199.378906 L 119.9375 91.316406 L 109.191406 52.082031 " fill-opacity="1" fill-rule="nonzero"/><path fill="#5fc232" d="M 58.5 199.378906 C 59.328125 199.753906 60.28125 199.855469 61.226562 199.597656 L 139.542969 178.078125 C 141.679688 177.488281 142.933594 175.277344 142.347656 173.140625 L 119.9375 91.316406 L 58.5 199.378906 " fill-opacity="1" fill-rule="nonzero"/><path fill="#c2212b" d="M 30.890625 78.410156 C 31.476562 80.550781 30.222656 82.757812 28.085938 83.347656 L 22.769531 84.808594 C 20.632812 85.394531 18.429688 84.136719 17.835938 81.996094 C 17.253906 79.859375 18.511719 77.648438 20.648438 77.058594 L 25.964844 75.601562 C 28.097656 75.011719 30.304688 76.269531 30.890625 78.410156 " fill-opacity="1" fill-rule="nonzero"/><path fill="#c2212b" d="M 61.316406 189.503906 C 61.902344 191.640625 60.644531 193.851562 58.507812 194.441406 L 53.195312 195.898438 C 51.058594 196.488281 48.851562 195.230469 48.265625 193.089844 C 47.683594 190.953125 48.9375 188.742188 51.074219 188.15625 L 56.394531 186.695312 C 58.527344 186.109375 60.734375 187.363281 61.316406 189.503906 " fill-opacity="1" fill-rule="nonzero"/><path fill="#c2212b" d="M 56.53125 172.011719 C 57.113281 174.152344 55.855469 176.359375 53.722656 176.949219 L 48.402344 178.410156 C 46.265625 178.992188 44.058594 177.734375 43.476562 175.59375 C 42.890625 173.460938 44.148438 171.25 46.28125 170.660156 L 51.601562 169.199219 C 53.734375 168.613281 55.945312 169.871094 56.53125 172.011719 " fill-opacity="1" fill-rule="nonzero"/><path fill="#c2212b" d="M 51.820312 154.839844 C 52.40625 156.980469 51.152344 159.191406 49.019531 159.777344 L 43.699219 161.234375 C 41.566406 161.824219 39.359375 160.566406 38.769531 158.425781 C 38.1875 156.289062 39.441406 154.078125 41.582031 153.492188 L 46.894531 152.03125 C 49.035156 151.441406 51.238281 152.699219 51.820312 154.839844 " fill-opacity="1" fill-rule="nonzero"/><path fill="#c2212b" d="M 47.378906 138.605469 C 47.964844 140.742188 46.710938 142.953125 44.574219 143.539062 L 39.253906 145 C 37.117188 145.589844 34.910156 144.332031 34.324219 142.191406 C 33.742188 140.054688 34.996094 137.839844 37.136719 137.257812 L 42.449219 135.796875 C 44.585938 135.207031 46.792969 136.464844 47.378906 138.605469 " fill-opacity="1" fill-rule="nonzero"/><path fill="#c2212b" d="M 42.957031 122.46875 C 43.546875 124.609375 42.285156 126.816406 40.152344 127.402344 L 34.835938 128.863281 C 32.699219 129.449219 30.492188 128.191406 29.90625 126.050781 C 29.324219 123.914062 30.578125 121.703125 32.710938 121.117188 L 38.03125 119.65625 C 40.167969 119.070312 42.375 120.328125 42.957031 122.46875 " fill-opacity="1" fill-rule="nonzero"/><path fill="#c2212b" d="M 39.027344 108.105469 C 39.613281 110.246094 38.355469 112.457031 36.21875 113.046875 L 30.898438 114.503906 C 28.769531 115.09375 26.5625 113.832031 25.976562 111.695312 C 25.390625 109.554688 26.644531 107.347656 28.78125 106.757812 L 34.097656 105.296875 C 36.234375 104.710938 38.4375 105.96875 39.027344 108.105469 " fill-opacity="1" fill-rule="nonzero"/><path fill="#c2212b" d="M 34.871094 92.9375 C 35.457031 95.078125 34.199219 97.289062 32.0625 97.875 L 26.75 99.335938 C 24.609375 99.921875 22.402344 98.664062 21.820312 96.523438 C 21.230469 94.386719 22.488281 92.175781 24.625 91.589844 L 29.945312 90.128906 C 32.078125 89.542969 34.28125 90.800781 34.871094 92.9375 " fill-opacity="1" fill-rule="nonzero"/><path fill="#ffffff" d="M 104.476562 88.347656 C 105.058594 90.484375 103.804688 92.695312 101.671875 93.28125 L 55.90625 105.855469 C 53.773438 106.441406 51.566406 105.183594 50.980469 103.046875 L 45.421875 82.746094 C 44.835938 80.609375 46.089844 78.398438 48.222656 77.8125 L 93.988281 65.238281 C 96.125 64.652344 98.332031 65.910156 98.917969 68.050781 L 104.476562 88.347656 " fill-opacity="1" fill-rule="nonzero"/><path fill="#231f20" d="M 67.492188 86.089844 C 67.136719 85.011719 66.707031 83.71875 66.453125 82.734375 L 66.417969 82.746094 C 66.402344 83.738281 66.34375 84.804688 66.246094 85.996094 L 65.90625 90.175781 L 65.136719 90.386719 L 62.851562 87 C 62.175781 86 61.585938 85.074219 61.109375 84.203125 L 61.089844 84.210938 C 61.332031 85.191406 61.632812 86.523438 61.886719 87.714844 L 62.597656 91.136719 L 61.632812 91.402344 L 60.03125 83.410156 L 61.320312 83.058594 L 63.691406 86.480469 C 64.285156 87.359375 64.789062 88.144531 65.207031 88.902344 L 65.242188 88.898438 C 65.222656 88.050781 65.265625 87.113281 65.34375 86.027344 L 65.699219 81.855469 L 66.988281 81.5 L 69.621094 89.203125 L 68.636719 89.476562 L 67.492188 86.089844 " fill-opacity="1" fill-rule="nonzero"/><path fill="#231f20" d="M 73.992188 84.5 L 72.609375 82.457031 C 72.292969 81.992188 72.050781 81.558594 71.8125 81.136719 L 71.785156 81.144531 C 71.800781 81.640625 71.800781 82.152344 71.78125 82.671875 L 71.636719 85.148438 Z M 71.644531 85.996094 L 71.507812 88.6875 L 70.460938 88.972656 L 70.972656 80.40625 L 72.191406 80.070312 L 77.011719 87.175781 L 75.929688 87.472656 L 74.417969 85.238281 L 71.644531 85.996094 " fill-opacity="1" fill-rule="nonzero"/><path fill="#231f20" d="M 76.835938 79.71875 L 74.457031 80.375 L 74.21875 79.515625 L 80.011719 77.921875 L 80.25 78.777344 L 77.855469 79.4375 L 79.769531 86.417969 L 78.746094 86.699219 L 76.835938 79.71875 " fill-opacity="1" fill-rule="nonzero"/><path fill="#231f20" d="M 81.886719 77.402344 L 82.789062 80.683594 L 86.574219 79.644531 L 85.675781 76.363281 L 86.695312 76.085938 L 88.84375 83.925781 L 87.824219 84.203125 L 86.816406 80.53125 L 83.03125 81.570312 L 84.039062 85.246094 L 83.027344 85.523438 L 80.878906 77.683594 L 81.886719 77.402344 " fill-opacity="1" fill-rule="nonzero"/><path fill="#f14621" d="M 172.621094 186.023438 C 172.652344 188.257812 170.867188 190.097656 168.640625 190.128906 L 86.832031 191.300781 C 84.601562 191.332031 82.769531 189.546875 82.734375 187.316406 L 80.929688 60.867188 C 80.894531 58.632812 82.679688 56.796875 84.910156 56.765625 L 166.714844 55.59375 C 168.945312 55.558594 170.777344 57.34375 170.8125 59.578125 L 172.621094 186.023438 " fill-opacity="1" fill-rule="nonzero"/><path fill="#b3a5ad" d="M 171.285156 186.023438 C 171.980469 188.257812 170.203125 190.097656 167.972656 190.128906 L 86.164062 191.300781 C 83.933594 191.332031 82.097656 189.546875 82.066406 187.316406 L 80.257812 60.867188 C 80.226562 58.632812 82.011719 56.796875 84.242188 56.765625 L 166.046875 55.59375 C 168.277344 55.558594 170.113281 57.34375 169.476562 59.578125 L 171.285156 186.023438 " fill-opacity="1" fill-rule="nonzero"/><path fill="#f14621" d="M 169.058594 61.183594 C 169.058594 58.964844 167.265625 57.167969 165.050781 57.167969 L 83.839844 57.167969 C 81.625 57.167969 79.828125 58.964844 79.828125 61.183594 L 79.828125 186.710938 C 79.828125 187.949219 80.386719 189.058594 81.273438 189.792969 L 169.058594 101.863281 L 169.058594 61.183594 " fill-opacity="1" fill-rule="nonzero"/><path fill="#efee0e" d="M 81.273438 189.792969 C 81.96875 190.375 82.863281 190.726562 83.839844 190.726562 L 165.050781 190.726562 C 167.265625 190.726562 169.058594 188.929688 169.058594 186.710938 L 169.058594 101.863281 L 81.273438 189.792969 " fill-opacity="1" fill-rule="nonzero"/><path fill="#ed1d24" d="M 86.597656 65.820312 C 86.597656 68.039062 84.800781 69.835938 82.585938 69.835938 L 77.074219 69.835938 C 74.859375 69.835938 73.066406 68.039062 73.066406 65.820312 C 73.066406 63.601562 74.859375 61.804688 77.074219 61.804688 L 82.585938 61.804688 C 84.800781 61.804688 86.597656 63.601562 86.597656 65.820312 " fill-opacity="1" fill-rule="nonzero"/><path fill="#ed1d24" d="M 86.597656 181.019531 C 86.597656 183.238281 84.800781 185.035156 82.585938 185.035156 L 77.074219 185.035156 C 74.859375 185.035156 73.066406 183.238281 73.066406 181.019531 C 73.066406 178.800781 74.859375 177.003906 77.074219 177.003906 L 82.585938 177.003906 C 84.800781 177.003906 86.597656 178.800781 86.597656 181.019531 " fill-opacity="1" fill-rule="nonzero"/><path fill="#ed1d24" d="M 86.597656 162.882812 C 86.597656 165.097656 84.800781 166.898438 82.585938 166.898438 L 77.074219 166.898438 C 74.859375 166.898438 73.066406 165.097656 73.066406 162.882812 C 73.066406 160.664062 74.859375 158.863281 77.074219 158.863281 L 82.585938 158.863281 C 84.800781 158.863281 86.597656 160.664062 86.597656 162.882812 " fill-opacity="1" fill-rule="nonzero"/><path fill="#ed1d24" d="M 86.597656 145.078125 C 86.597656 147.292969 84.800781 149.089844 82.585938 149.089844 L 77.074219 149.089844 C 74.859375 149.089844 73.066406 147.292969 73.066406 145.078125 C 73.066406 142.855469 74.859375 141.058594 77.074219 141.058594 L 82.585938 141.058594 C 84.800781 141.058594 86.597656 142.855469 86.597656 145.078125 " fill-opacity="1" fill-rule="nonzero"/><path fill="#ed1d24" d="M 86.597656 128.238281 C 86.597656 130.460938 84.800781 132.257812 82.585938 132.257812 L 77.074219 132.257812 C 74.859375 132.257812 73.066406 130.460938 73.066406 128.238281 C 73.066406 126.023438 74.859375 124.222656 77.074219 124.222656 L 82.585938 124.222656 C 84.800781 124.222656 86.597656 126.023438 86.597656 128.238281 " fill-opacity="1" fill-rule="nonzero"/><path fill="#ed1d24" d="M 86.597656 111.507812 C 86.597656 113.726562 84.800781 115.523438 82.585938 115.523438 L 77.074219 115.523438 C 74.859375 115.523438 73.066406 113.726562 73.066406 111.507812 C 73.066406 109.289062 74.859375 107.488281 77.074219 107.488281 L 82.585938 107.488281 C 84.800781 107.488281 86.597656 109.289062 86.597656 111.507812 " fill-opacity="1" fill-rule="nonzero"/><path fill="#ed1d24" d="M 86.597656 96.617188 C 86.597656 98.835938 84.800781 100.632812 82.585938 100.632812 L 77.074219 100.632812 C 74.859375 100.632812 73.066406 98.835938 73.066406 96.617188 C 73.066406 94.398438 74.859375 92.601562 77.074219 92.601562 L 82.585938 92.601562 C 84.800781 92.601562 86.597656 94.398438 86.597656 96.617188 " fill-opacity="1" fill-rule="nonzero"/><path fill="#ed1d24" d="M 86.597656 80.882812 C 86.597656 83.105469 84.800781 84.902344 82.585938 84.902344 L 77.074219 84.902344 C 74.859375 84.902344 73.066406 83.105469 73.066406 80.882812 C 73.066406 78.667969 74.859375 76.871094 77.074219 76.871094 L 82.585938 76.871094 C 84.800781 76.871094 86.597656 78.667969 86.597656 80.882812 " fill-opacity="1" fill-rule="nonzero"/><path fill="#ffffff" d="M 154.933594 94.902344 C 154.933594 97.117188 153.140625 98.917969 150.925781 98.917969 L 103.472656 98.917969 C 101.257812 98.917969 99.464844 97.117188 99.464844 94.902344 L 99.464844 73.855469 C 99.464844 71.632812 101.257812 69.835938 103.472656 69.835938 L 150.925781 69.835938 C 153.140625 69.835938 154.933594 71.632812 154.933594 73.855469 L 154.933594 94.902344 " fill-opacity="1" fill-rule="nonzero"/><path fill="#231f20" d="M 117.050781 83.15625 L 116.253906 80.816406 C 116.074219 80.285156 115.953125 79.804688 115.832031 79.332031 L 115.8125 79.332031 C 115.6875 79.816406 115.558594 80.308594 115.398438 80.800781 L 114.605469 83.15625 Z M 114.386719 83.972656 L 113.546875 86.53125 L 112.460938 86.53125 L 115.21875 78.402344 L 116.484375 78.402344 L 119.253906 86.53125 L 118.132812 86.53125 L 117.265625 83.972656 L 114.386719 83.972656 " fill-opacity="1" fill-rule="nonzero"/><path fill="#231f20" d="M 121.488281 82.210938 L 122.558594 82.210938 C 123.679688 82.210938 124.390625 81.597656 124.390625 80.671875 C 124.390625 79.621094 123.628906 79.164062 122.519531 79.152344 C 122.015625 79.152344 121.65625 79.199219 121.488281 79.246094 Z M 120.441406 78.511719 C 120.96875 78.402344 121.726562 78.34375 122.449219 78.34375 C 123.570312 78.34375 124.292969 78.546875 124.796875 79.007812 C 125.207031 79.367188 125.433594 79.921875 125.433594 80.550781 C 125.433594 81.621094 124.761719 82.335938 123.90625 82.625 L 123.90625 82.660156 C 124.53125 82.878906 124.90625 83.457031 125.097656 84.300781 C 125.363281 85.433594 125.554688 86.21875 125.726562 86.53125 L 124.640625 86.53125 C 124.507812 86.300781 124.328125 85.601562 124.097656 84.589844 C 123.855469 83.46875 123.425781 83.046875 122.472656 83.007812 L 121.488281 83.007812 L 121.488281 86.53125 L 120.441406 86.53125 L 120.441406 78.511719 " fill-opacity="1" fill-rule="nonzero"/><path fill="#231f20" d="M 128.5625 79.296875 L 126.089844 79.296875 L 126.089844 78.402344 L 132.101562 78.402344 L 132.101562 79.296875 L 129.621094 79.296875 L 129.621094 86.53125 L 128.5625 86.53125 L 128.5625 79.296875 " fill-opacity="1" fill-rule="nonzero"/><g clip-path="url(#711a03ee53)"><path fill="#3aae9b" d="M 184.285156 200.589844 C 183.234375 202.558594 180.789062 203.308594 178.820312 202.253906 L 106.648438 163.652344 C 104.683594 162.597656 103.941406 160.148438 104.992188 158.175781 L 164.464844 46.628906 C 165.515625 44.65625 167.960938 43.910156 169.929688 44.964844 L 242.097656 83.5625 C 244.066406 84.617188 244.8125 87.066406 243.761719 89.039062 L 184.285156 200.589844 " fill-opacity="1" fill-rule="nonzero"/></g><g clip-path="url(#aa5390fe53)"><path fill="#b3a5ad" d="M 183.699219 200.265625 C 182.652344 202.238281 180.203125 202.980469 178.234375 201.925781 L 106.0625 163.328125 C 104.097656 162.273438 103.355469 159.824219 104.40625 157.851562 L 163.878906 46.300781 C 164.929688 44.332031 167.378906 43.589844 169.347656 44.640625 L 241.515625 83.242188 C 243.484375 84.296875 244.226562 86.742188 243.179688 88.714844 L 183.699219 200.265625 " fill-opacity="1" fill-rule="nonzero"/></g><path fill="#3aae9b" d="M 241.453125 89.59375 C 242.523438 87.652344 241.820312 85.210938 239.882812 84.136719 L 168.796875 44.792969 C 166.863281 43.722656 164.417969 44.425781 163.351562 46.371094 L 102.738281 156.242188 C 102.140625 157.324219 102.09375 158.566406 102.511719 159.636719 L 221.808594 125.199219 L 241.453125 89.59375 " fill-opacity="1" fill-rule="nonzero"/><path fill="#3aad83" d="M 102.511719 159.636719 C 102.835938 160.484375 103.453125 161.226562 104.304688 161.699219 L 175.390625 201.039062 C 177.332031 202.109375 179.769531 201.410156 180.839844 199.464844 L 221.808594 125.199219 L 102.511719 159.636719 " fill-opacity="1" fill-rule="nonzero"/><path fill="#1f6532" d="M 167.035156 53.707031 C 165.964844 55.648438 163.519531 56.355469 161.585938 55.28125 L 156.761719 52.609375 C 154.820312 51.535156 154.117188 49.09375 155.183594 47.152344 C 156.261719 45.207031 158.699219 44.503906 160.636719 45.578125 L 165.464844 48.25 C 167.402344 49.324219 168.105469 51.765625 167.035156 53.707031 " fill-opacity="1" fill-rule="nonzero"/><path fill="#1f6532" d="M 111.40625 154.539062 C 110.335938 156.480469 107.898438 157.183594 105.960938 156.109375 L 101.132812 153.441406 C 99.195312 152.367188 98.492188 149.921875 99.5625 147.980469 C 100.636719 146.039062 103.074219 145.335938 105.011719 146.410156 L 109.839844 149.082031 C 111.777344 150.152344 112.480469 152.597656 111.40625 154.539062 " fill-opacity="1" fill-rule="nonzero"/><path fill="#1f6532" d="M 120.167969 138.660156 C 119.09375 140.601562 116.660156 141.304688 114.71875 140.234375 L 109.890625 137.5625 C 107.957031 136.488281 107.25 134.046875 108.320312 132.105469 C 109.390625 130.164062 111.832031 129.460938 113.769531 130.53125 L 118.597656 133.203125 C 120.535156 134.277344 121.238281 136.71875 120.167969 138.660156 " fill-opacity="1" fill-rule="nonzero"/><path fill="#1f6532" d="M 128.761719 123.074219 C 127.695312 125.015625 125.253906 125.722656 123.316406 124.648438 L 118.488281 121.980469 C 116.554688 120.90625 115.847656 118.460938 116.917969 116.519531 C 117.992188 114.578125 120.425781 113.875 122.371094 114.949219 L 127.195312 117.621094 C 129.136719 118.691406 129.835938 121.132812 128.761719 123.074219 " fill-opacity="1" fill-rule="nonzero"/><path fill="#1f6532" d="M 136.894531 108.339844 C 135.820312 110.28125 133.382812 110.988281 131.445312 109.914062 L 126.621094 107.242188 C 124.679688 106.171875 123.980469 103.726562 125.046875 101.785156 C 126.117188 99.84375 128.558594 99.140625 130.496094 100.210938 L 135.328125 102.882812 C 137.261719 103.957031 137.964844 106.398438 136.894531 108.339844 " fill-opacity="1" fill-rule="nonzero"/><path fill="#1f6532" d="M 144.976562 93.695312 C 143.898438 95.636719 141.460938 96.339844 139.523438 95.265625 L 134.699219 92.597656 C 132.765625 91.523438 132.058594 89.078125 133.128906 87.136719 C 134.203125 85.195312 136.636719 84.492188 138.578125 85.566406 L 143.40625 88.238281 C 145.339844 89.308594 146.046875 91.75 144.976562 93.695312 " fill-opacity="1" fill-rule="nonzero"/><path fill="#1f6532" d="M 152.164062 80.664062 C 151.089844 82.601562 148.652344 83.304688 146.714844 82.234375 L 141.890625 79.5625 C 139.949219 78.488281 139.246094 76.046875 140.320312 74.105469 C 141.390625 72.164062 143.828125 71.460938 145.765625 72.535156 L 150.59375 75.203125 C 152.527344 76.277344 153.234375 78.722656 152.164062 80.664062 " fill-opacity="1" fill-rule="nonzero"/><path fill="#1f6532" d="M 159.757812 66.894531 C 158.6875 68.835938 156.25 69.539062 154.308594 68.464844 L 149.484375 65.792969 C 147.546875 64.722656 146.839844 62.277344 147.917969 60.339844 C 148.980469 58.398438 151.425781 57.691406 153.363281 58.765625 L 158.191406 61.433594 C 160.128906 62.507812 160.828125 64.953125 159.757812 66.894531 " fill-opacity="1" fill-rule="nonzero"/><path fill="#ffffff" d="M 212.800781 112.265625 C 211.738281 114.207031 209.292969 114.910156 207.359375 113.835938 L 165.824219 90.851562 C 163.886719 89.777344 163.183594 87.335938 164.25 85.394531 L 174.417969 66.972656 C 175.484375 65.03125 177.929688 64.324219 179.863281 65.398438 L 221.398438 88.386719 C 223.335938 89.457031 224.042969 91.902344 222.96875 93.84375 L 212.800781 112.265625 " fill-opacity="1" fill-rule="nonzero"/><path fill="#231f20" d="M 175.761719 79.164062 L 176.589844 79.625 C 177.5625 80.160156 178.410156 79.96875 178.789062 79.285156 C 179.246094 78.453125 178.796875 77.773438 177.871094 77.261719 C 177.445312 77.03125 177.1875 76.929688 177.023438 76.878906 Z M 173.882812 82.570312 C 174.042969 82.703125 174.300781 82.859375 174.625 83.039062 C 175.574219 83.5625 176.640625 83.699219 177.210938 82.664062 C 177.746094 81.695312 177.136719 80.835938 176.136719 80.28125 L 175.378906 79.863281 Z M 176.449219 75.746094 C 176.898438 75.882812 177.5625 76.171875 178.207031 76.527344 C 179.125 77.03125 179.625 77.519531 179.871094 78.121094 C 180.085938 78.601562 180.074219 79.144531 179.765625 79.703125 C 179.386719 80.386719 178.605469 80.738281 177.707031 80.601562 L 177.691406 80.621094 C 178.273438 81.160156 178.753906 82.15625 178.171875 83.214844 C 177.835938 83.824219 177.335938 84.152344 176.789062 84.304688 C 176.042969 84.484375 175.125 84.25 173.96875 83.609375 C 173.339844 83.261719 172.875 82.949219 172.59375 82.742188 L 176.449219 75.746094 " fill-opacity="1" fill-rule="nonzero"/><path fill="#231f20" d="M 183.125 79.316406 L 179.207031 86.425781 L 178.289062 85.917969 L 182.210938 78.8125 L 183.125 79.316406 " fill-opacity="1" fill-rule="nonzero"/><path fill="#231f20" d="M 183.300781 84.109375 C 182.460938 85.628906 182.535156 87.441406 183.976562 88.242188 C 185.429688 89.042969 186.988281 88.160156 187.878906 86.546875 C 188.65625 85.132812 188.734375 83.25 187.210938 82.402344 C 185.691406 81.566406 184.160156 82.546875 183.300781 84.109375 Z M 188.871094 87.039062 C 187.519531 89.488281 185.320312 89.964844 183.511719 88.960938 C 181.636719 87.921875 181.125 85.738281 182.308594 83.585938 C 183.554688 81.332031 185.769531 80.628906 187.664062 81.679688 C 189.601562 82.75 190.03125 84.933594 188.871094 87.039062 " fill-opacity="1" fill-rule="nonzero"/><path fill="#231f20" d="M 191.980469 84.21875 L 192.898438 84.726562 L 189.402344 91.0625 L 192.433594 92.742188 L 192.007812 93.511719 L 188.0625 91.328125 L 191.980469 84.21875 " fill-opacity="1" fill-rule="nonzero"/><path fill="#231f20" d="M 195.113281 90.648438 C 194.277344 92.164062 194.347656 93.980469 195.789062 94.777344 C 197.242188 95.582031 198.804688 94.699219 199.695312 93.085938 C 200.472656 91.671875 200.550781 89.789062 199.023438 88.945312 C 197.507812 88.105469 195.976562 89.089844 195.113281 90.648438 Z M 200.6875 93.578125 C 199.335938 96.027344 197.132812 96.503906 195.324219 95.5 C 193.449219 94.460938 192.9375 92.277344 194.125 90.128906 C 195.367188 87.871094 197.585938 87.171875 199.476562 88.214844 C 201.414062 89.289062 201.847656 91.46875 200.6875 93.578125 " fill-opacity="1" fill-rule="nonzero"/><path fill="#231f20" d="M 205.449219 100.539062 C 204.957031 100.457031 204.015625 100.253906 203.058594 99.722656 C 201.980469 99.128906 201.25 98.363281 200.921875 97.316406 C 200.636719 96.386719 200.78125 95.230469 201.390625 94.121094 C 202.570312 92.007812 204.878906 91.261719 207.257812 92.578125 C 208.078125 93.03125 208.625 93.566406 208.847656 93.882812 L 208.214844 94.507812 C 207.925781 94.132812 207.527344 93.730469 206.8125 93.335938 C 205.085938 92.382812 203.367188 92.832031 202.382812 94.613281 C 201.386719 96.417969 201.886719 98.082031 203.535156 99 C 204.140625 99.332031 204.59375 99.476562 204.863281 99.484375 L 206.03125 97.363281 L 204.589844 96.566406 L 204.996094 95.828125 L 207.335938 97.121094 L 205.449219 100.539062 " fill-opacity="1" fill-rule="nonzero"/><path fill="#231f20" d="M 208.253906 102.503906 L 209.917969 99.488281 L 209.933594 94.15625 L 210.976562 94.730469 L 210.894531 97.246094 C 210.871094 97.9375 210.84375 98.484375 210.792969 99.105469 L 210.8125 99.117188 C 211.269531 98.761719 211.765625 98.433594 212.335938 98.042969 L 214.441406 96.648438 L 215.484375 97.226562 L 210.851562 99.992188 L 209.183594 103.019531 L 208.253906 102.503906 " fill-opacity="1" fill-rule="nonzero"/></svg>