<svg xmlns="http://www.w3.org/2000/svg" xmlns:xlink="http://www.w3.org/1999/xlink" width="500" zoomAndPan="magnify" viewBox="0 0 375 374.999991" height="500" preserveAspectRatio="xMidYMid meet" version="1.0"><defs><filter x="0%" y="0%" width="100%" height="100%" id="e80351fa79"><feColorMatrix values="0 0 0 0 1 0 0 0 0 1 0 0 0 0 1 0 0 0 1 0" color-interpolation-filters="sRGB"/></filter><clipPath id="c791c3a456"><path d="M 6.660156 6.660156 L 368.160156 6.660156 L 368.160156 368.160156 L 6.660156 368.160156 Z M 6.660156 6.660156 " clip-rule="nonzero"/></clipPath><clipPath id="bd28cab0e2"><path d="M 368.160156 187.410156 C 368.160156 190.371094 368.089844 193.324219 367.945312 196.28125 C 367.796875 199.234375 367.582031 202.183594 367.289062 205.128906 C 367 208.070312 366.640625 211.007812 366.203125 213.933594 C 365.769531 216.859375 365.265625 219.773438 364.6875 222.671875 C 364.109375 225.574219 363.464844 228.460938 362.746094 231.328125 C 362.027344 234.199219 361.238281 237.050781 360.378906 239.878906 C 359.519531 242.710938 358.589844 245.519531 357.59375 248.304688 C 356.597656 251.089844 355.535156 253.847656 354.402344 256.582031 C 353.269531 259.3125 352.070312 262.019531 350.808594 264.691406 C 349.542969 267.367188 348.210938 270.007812 346.820312 272.617188 C 345.425781 275.226562 343.964844 277.796875 342.445312 280.335938 C 340.925781 282.871094 339.34375 285.371094 337.699219 287.832031 C 336.054688 290.289062 334.351562 292.707031 332.589844 295.082031 C 330.828125 297.460938 329.007812 299.792969 327.132812 302.078125 C 325.257812 304.363281 323.324219 306.605469 321.339844 308.796875 C 319.351562 310.988281 317.3125 313.128906 315.222656 315.21875 C 313.128906 317.3125 310.988281 319.351562 308.796875 321.339844 C 306.605469 323.324219 304.363281 325.257812 302.078125 327.132812 C 299.792969 329.007812 297.460938 330.828125 295.082031 332.589844 C 292.707031 334.351562 290.289062 336.054688 287.832031 337.699219 C 285.371094 339.34375 282.871094 340.925781 280.335938 342.445312 C 277.796875 343.964844 275.226562 345.425781 272.617188 346.820312 C 270.007812 348.210938 267.367188 349.542969 264.691406 350.808594 C 262.019531 352.070312 259.3125 353.269531 256.582031 354.402344 C 253.847656 355.535156 251.089844 356.597656 248.304688 357.59375 C 245.519531 358.589844 242.710938 359.519531 239.878906 360.378906 C 237.050781 361.238281 234.199219 362.027344 231.328125 362.746094 C 228.460938 363.464844 225.574219 364.109375 222.671875 364.6875 C 219.773438 365.265625 216.859375 365.769531 213.933594 366.203125 C 211.007812 366.640625 208.070312 367 205.128906 367.289062 C 202.183594 367.582031 199.234375 367.796875 196.28125 367.945312 C 193.324219 368.089844 190.371094 368.160156 187.410156 368.160156 C 184.453125 368.160156 181.496094 368.089844 178.542969 367.945312 C 175.585938 367.796875 172.636719 367.582031 169.695312 367.289062 C 166.75 367 163.816406 366.640625 160.890625 366.203125 C 157.964844 365.769531 155.050781 365.265625 152.148438 364.6875 C 149.246094 364.109375 146.363281 363.464844 143.492188 362.746094 C 140.625 362.027344 137.773438 361.238281 134.941406 360.378906 C 132.113281 359.519531 129.304688 358.589844 126.519531 357.59375 C 123.734375 356.597656 120.972656 355.535156 118.242188 354.402344 C 115.507812 353.269531 112.804688 352.070312 110.128906 350.808594 C 107.457031 349.542969 104.816406 348.210938 102.207031 346.820312 C 99.597656 345.425781 97.023438 343.964844 94.488281 342.445312 C 91.949219 340.925781 89.453125 339.34375 86.992188 337.699219 C 84.53125 336.054688 82.113281 334.351562 79.738281 332.589844 C 77.363281 330.828125 75.03125 329.007812 72.746094 327.132812 C 70.457031 325.257812 68.21875 323.324219 66.027344 321.339844 C 63.835938 319.351562 61.691406 317.3125 59.601562 315.21875 C 57.511719 313.128906 55.472656 310.988281 53.484375 308.796875 C 51.496094 306.605469 49.566406 304.363281 47.691406 302.078125 C 45.8125 299.792969 43.992188 297.460938 42.230469 295.082031 C 40.46875 292.707031 38.765625 290.289062 37.125 287.832031 C 35.480469 285.371094 33.898438 282.871094 32.375 280.335938 C 30.855469 277.796875 29.398438 275.226562 28.003906 272.617188 C 26.609375 270.007812 25.28125 267.367188 24.015625 264.691406 C 22.75 262.019531 21.550781 259.3125 20.421875 256.582031 C 19.289062 253.847656 18.222656 251.089844 17.226562 248.304688 C 16.230469 245.519531 15.304688 242.710938 14.445312 239.878906 C 13.585938 237.050781 12.796875 234.199219 12.078125 231.328125 C 11.359375 228.460938 10.710938 225.574219 10.132812 222.671875 C 9.558594 219.773438 9.050781 216.859375 8.617188 213.933594 C 8.183594 211.007812 7.820312 208.070312 7.53125 205.128906 C 7.242188 202.183594 7.023438 199.234375 6.878906 196.28125 C 6.734375 193.324219 6.660156 190.371094 6.660156 187.410156 C 6.660156 184.453125 6.734375 181.496094 6.878906 178.542969 C 7.023438 175.585938 7.242188 172.636719 7.53125 169.695312 C 7.820312 166.75 8.183594 163.816406 8.617188 160.890625 C 9.050781 157.964844 9.558594 155.050781 10.132812 152.148438 C 10.710938 149.246094 11.359375 146.363281 12.078125 143.492188 C 12.796875 140.625 13.585938 137.773438 14.445312 134.941406 C 15.304688 132.113281 16.230469 129.304688 17.226562 126.519531 C 18.222656 123.734375 19.289062 120.972656 20.421875 118.242188 C 21.550781 115.507812 22.75 112.804688 24.015625 110.128906 C 25.28125 107.457031 26.609375 104.816406 28.003906 102.207031 C 29.398438 99.597656 30.855469 97.023438 32.375 94.488281 C 33.898438 91.949219 35.480469 89.453125 37.125 86.992188 C 38.765625 84.53125 40.46875 82.113281 42.230469 79.738281 C 43.992188 77.363281 45.8125 75.03125 47.691406 72.746094 C 49.566406 70.457031 51.496094 68.21875 53.484375 66.027344 C 55.472656 63.835938 57.511719 61.691406 59.601562 59.601562 C 61.691406 57.511719 63.835938 55.472656 66.027344 53.484375 C 68.21875 51.496094 70.457031 49.566406 72.746094 47.691406 C 75.03125 45.8125 77.363281 43.992188 79.738281 42.230469 C 82.113281 40.46875 84.53125 38.765625 86.992188 37.125 C 89.453125 35.480469 91.949219 33.898438 94.488281 32.375 C 97.023438 30.855469 99.597656 29.398438 102.207031 28.003906 C 104.816406 26.609375 107.457031 25.28125 110.128906 24.015625 C 112.804688 22.75 115.507812 21.550781 118.242188 20.421875 C 120.972656 19.289062 123.734375 18.222656 126.519531 17.226562 C 129.304688 16.230469 132.113281 15.304688 134.941406 14.445312 C 137.773438 13.585938 140.625 12.796875 143.492188 12.078125 C 146.363281 11.359375 149.246094 10.710938 152.148438 10.132812 C 155.050781 9.558594 157.964844 9.050781 160.890625 8.617188 C 163.816406 8.183594 166.75 7.820312 169.695312 7.53125 C 172.636719 7.242188 175.585938 7.023438 178.542969 6.878906 C 181.496094 6.734375 184.453125 6.660156 187.410156 6.660156 C 190.371094 6.660156 193.324219 6.734375 196.28125 6.878906 C 199.234375 7.023438 202.183594 7.242188 205.128906 7.53125 C 208.070312 7.820312 211.007812 8.183594 213.933594 8.617188 C 216.859375 9.050781 219.773438 9.558594 222.671875 10.132812 C 225.574219 10.710938 228.460938 11.359375 231.328125 12.078125 C 234.199219 12.796875 237.050781 13.585938 239.878906 14.445312 C 242.710938 15.304688 245.519531 16.230469 248.304688 17.226562 C 251.089844 18.222656 253.847656 19.289062 256.582031 20.421875 C 259.3125 21.550781 262.019531 22.75 264.691406 24.015625 C 267.367188 25.28125 270.007812 26.609375 272.617188 28.003906 C 275.226562 29.398438 277.796875 30.855469 280.335938 32.375 C 282.871094 33.898438 285.371094 35.480469 287.832031 37.125 C 290.289062 38.765625 292.707031 40.46875 295.082031 42.230469 C 297.460938 43.992188 299.792969 45.8125 302.078125 47.691406 C 304.363281 49.566406 306.605469 51.496094 308.796875 53.484375 C 310.988281 55.472656 313.128906 57.511719 315.222656 59.601562 C 317.3125 61.691406 319.351562 63.835938 321.339844 66.027344 C 323.324219 68.21875 325.257812 70.457031 327.132812 72.746094 C 329.007812 75.03125 330.828125 77.363281 332.589844 79.738281 C 334.351562 82.113281 336.054688 84.53125 337.699219 86.992188 C 339.34375 89.453125 340.925781 91.949219 342.445312 94.488281 C 343.964844 97.023438 345.425781 99.597656 346.820312 102.207031 C 348.210938 104.816406 349.542969 107.457031 350.808594 110.128906 C 352.070312 112.804688 353.269531 115.507812 354.402344 118.242188 C 355.535156 120.972656 356.597656 123.734375 357.59375 126.519531 C 358.589844 129.304688 359.519531 132.113281 360.378906 134.941406 C 361.238281 137.773438 362.027344 140.625 362.746094 143.492188 C 363.464844 146.363281 364.109375 149.246094 364.6875 152.148438 C 365.265625 155.050781 365.769531 157.964844 366.203125 160.890625 C 366.640625 163.816406 367 166.75 367.289062 169.695312 C 367.582031 172.636719 367.796875 175.585938 367.945312 178.542969 C 368.089844 181.496094 368.160156 184.453125 368.160156 187.410156 Z M 368.160156 187.410156 " clip-rule="nonzero"/></clipPath><linearGradient x1="-0.0000000215404" gradientTransform="matrix(361.500021, 0, 0, 361.500021, 6.661189, 6.6612)" y1="-0.0000000213292" x2="1.004902" gradientUnits="userSpaceOnUse" y2="0.995049" id="f915d2ee03"><stop stop-opacity="1" stop-color="rgb(98.799133%, 29.798889%, 0.799561%)" offset="0"/><stop stop-opacity="1" stop-color="rgb(98.629761%, 29.808044%, 1.182556%)" offset="0.00390625"/><stop stop-opacity="1" stop-color="rgb(98.460388%, 29.8172%, 1.565552%)" offset="0.0078125"/><stop stop-opacity="1" stop-color="rgb(98.291016%, 29.826355%, 1.948547%)" offset="0.0117188"/><stop stop-opacity="1" stop-color="rgb(98.121643%, 29.837036%, 2.331543%)" offset="0.015625"/><stop stop-opacity="1" stop-color="rgb(97.952271%, 29.846191%, 2.714539%)" offset="0.0195312"/><stop stop-opacity="1" stop-color="rgb(97.782898%, 29.855347%, 3.097534%)" offset="0.0234375"/><stop stop-opacity="1" stop-color="rgb(97.613525%, 29.864502%, 3.479004%)" offset="0.0273438"/><stop stop-opacity="1" stop-color="rgb(97.444153%, 29.873657%, 3.862%)" offset="0.03125"/><stop stop-opacity="1" stop-color="rgb(97.273254%, 29.882812%, 4.244995%)" offset="0.0351562"/><stop stop-opacity="1" stop-color="rgb(97.103882%, 29.891968%, 4.627991%)" offset="0.0390625"/><stop stop-opacity="1" stop-color="rgb(96.934509%, 29.901123%, 5.010986%)" offset="0.0429688"/><stop stop-opacity="1" stop-color="rgb(96.765137%, 29.910278%, 5.393982%)" offset="0.046875"/><stop stop-opacity="1" stop-color="rgb(96.595764%, 29.919434%, 5.776978%)" offset="0.0507812"/><stop stop-opacity="1" stop-color="rgb(96.426392%, 29.928589%, 6.159973%)" offset="0.0546875"/><stop stop-opacity="1" stop-color="rgb(96.257019%, 29.937744%, 6.542969%)" offset="0.0585937"/><stop stop-opacity="1" stop-color="rgb(96.087646%, 29.946899%, 6.925964%)" offset="0.0625"/><stop stop-opacity="1" stop-color="rgb(95.918274%, 29.956055%, 7.30896%)" offset="0.0664062"/><stop stop-opacity="1" stop-color="rgb(95.748901%, 29.966736%, 7.691956%)" offset="0.0703125"/><stop stop-opacity="1" stop-color="rgb(95.579529%, 29.975891%, 8.074951%)" offset="0.0742188"/><stop stop-opacity="1" stop-color="rgb(95.410156%, 29.985046%, 8.457947%)" offset="0.078125"/><stop stop-opacity="1" stop-color="rgb(95.240784%, 29.994202%, 8.840942%)" offset="0.0820312"/><stop stop-opacity="1" stop-color="rgb(95.071411%, 30.003357%, 9.223938%)" offset="0.0859375"/><stop stop-opacity="1" stop-color="rgb(94.902039%, 30.012512%, 9.606934%)" offset="0.0898438"/><stop stop-opacity="1" stop-color="rgb(94.732666%, 30.021667%, 9.989929%)" offset="0.09375"/><stop stop-opacity="1" stop-color="rgb(94.563293%, 30.030823%, 10.372925%)" offset="0.0976562"/><stop stop-opacity="1" stop-color="rgb(94.393921%, 30.039978%, 10.75592%)" offset="0.101562"/><stop stop-opacity="1" stop-color="rgb(94.223022%, 30.049133%, 11.138916%)" offset="0.105469"/><stop stop-opacity="1" stop-color="rgb(94.05365%, 30.058289%, 11.521912%)" offset="0.109375"/><stop stop-opacity="1" stop-color="rgb(93.884277%, 30.067444%, 11.903381%)" offset="0.113281"/><stop stop-opacity="1" stop-color="rgb(93.714905%, 30.076599%, 12.286377%)" offset="0.117187"/><stop stop-opacity="1" stop-color="rgb(93.545532%, 30.085754%, 12.669373%)" offset="0.121094"/><stop stop-opacity="1" stop-color="rgb(93.37616%, 30.096436%, 13.052368%)" offset="0.125"/><stop stop-opacity="1" stop-color="rgb(93.206787%, 30.105591%, 13.435364%)" offset="0.128906"/><stop stop-opacity="1" stop-color="rgb(93.037415%, 30.114746%, 13.818359%)" offset="0.132812"/><stop stop-opacity="1" stop-color="rgb(92.868042%, 30.123901%, 14.201355%)" offset="0.136719"/><stop stop-opacity="1" stop-color="rgb(92.698669%, 30.133057%, 14.584351%)" offset="0.140625"/><stop stop-opacity="1" stop-color="rgb(92.529297%, 30.142212%, 14.967346%)" offset="0.144531"/><stop stop-opacity="1" stop-color="rgb(92.359924%, 30.151367%, 15.350342%)" offset="0.148438"/><stop stop-opacity="1" stop-color="rgb(92.190552%, 30.160522%, 15.733337%)" offset="0.152344"/><stop stop-opacity="1" stop-color="rgb(92.021179%, 30.169678%, 16.116333%)" offset="0.15625"/><stop stop-opacity="1" stop-color="rgb(91.851807%, 30.178833%, 16.499329%)" offset="0.160156"/><stop stop-opacity="1" stop-color="rgb(91.682434%, 30.187988%, 16.882324%)" offset="0.164062"/><stop stop-opacity="1" stop-color="rgb(91.513062%, 30.197144%, 17.26532%)" offset="0.167969"/><stop stop-opacity="1" stop-color="rgb(91.343689%, 30.206299%, 17.648315%)" offset="0.171875"/><stop stop-opacity="1" stop-color="rgb(91.172791%, 30.215454%, 18.031311%)" offset="0.175781"/><stop stop-opacity="1" stop-color="rgb(91.003418%, 30.226135%, 18.414307%)" offset="0.179688"/><stop stop-opacity="1" stop-color="rgb(90.834045%, 30.235291%, 18.797302%)" offset="0.183594"/><stop stop-opacity="1" stop-color="rgb(90.664673%, 30.244446%, 19.180298%)" offset="0.1875"/><stop stop-opacity="1" stop-color="rgb(90.4953%, 30.253601%, 19.563293%)" offset="0.191406"/><stop stop-opacity="1" stop-color="rgb(90.325928%, 30.262756%, 19.946289%)" offset="0.195313"/><stop stop-opacity="1" stop-color="rgb(90.156555%, 30.271912%, 20.327759%)" offset="0.199219"/><stop stop-opacity="1" stop-color="rgb(89.987183%, 30.281067%, 20.710754%)" offset="0.203125"/><stop stop-opacity="1" stop-color="rgb(89.81781%, 30.290222%, 21.09375%)" offset="0.207031"/><stop stop-opacity="1" stop-color="rgb(89.648438%, 30.299377%, 21.476746%)" offset="0.210938"/><stop stop-opacity="1" stop-color="rgb(89.479065%, 30.308533%, 21.859741%)" offset="0.214844"/><stop stop-opacity="1" stop-color="rgb(89.309692%, 30.317688%, 22.242737%)" offset="0.21875"/><stop stop-opacity="1" stop-color="rgb(89.14032%, 30.326843%, 22.625732%)" offset="0.222656"/><stop stop-opacity="1" stop-color="rgb(88.970947%, 30.335999%, 23.008728%)" offset="0.226562"/><stop stop-opacity="1" stop-color="rgb(88.801575%, 30.345154%, 23.391724%)" offset="0.230469"/><stop stop-opacity="1" stop-color="rgb(88.632202%, 30.355835%, 23.774719%)" offset="0.234375"/><stop stop-opacity="1" stop-color="rgb(88.461304%, 30.36499%, 24.157715%)" offset="0.238281"/><stop stop-opacity="1" stop-color="rgb(88.291931%, 30.374146%, 24.54071%)" offset="0.242188"/><stop stop-opacity="1" stop-color="rgb(88.122559%, 30.383301%, 24.923706%)" offset="0.246094"/><stop stop-opacity="1" stop-color="rgb(87.953186%, 30.392456%, 25.306702%)" offset="0.25"/><stop stop-opacity="1" stop-color="rgb(87.783813%, 30.401611%, 25.689697%)" offset="0.253906"/><stop stop-opacity="1" stop-color="rgb(87.614441%, 30.410767%, 26.072693%)" offset="0.257812"/><stop stop-opacity="1" stop-color="rgb(87.445068%, 30.419922%, 26.455688%)" offset="0.261719"/><stop stop-opacity="1" stop-color="rgb(87.275696%, 30.429077%, 26.838684%)" offset="0.265625"/><stop stop-opacity="1" stop-color="rgb(87.106323%, 30.438232%, 27.22168%)" offset="0.269531"/><stop stop-opacity="1" stop-color="rgb(86.936951%, 30.447388%, 27.604675%)" offset="0.273438"/><stop stop-opacity="1" stop-color="rgb(86.767578%, 30.456543%, 27.987671%)" offset="0.277344"/><stop stop-opacity="1" stop-color="rgb(86.598206%, 30.465698%, 28.370667%)" offset="0.28125"/><stop stop-opacity="1" stop-color="rgb(86.428833%, 30.474854%, 28.753662%)" offset="0.285156"/><stop stop-opacity="1" stop-color="rgb(86.25946%, 30.485535%, 29.136658%)" offset="0.289062"/><stop stop-opacity="1" stop-color="rgb(86.090088%, 30.49469%, 29.518127%)" offset="0.292969"/><stop stop-opacity="1" stop-color="rgb(85.920715%, 30.503845%, 29.901123%)" offset="0.296875"/><stop stop-opacity="1" stop-color="rgb(85.751343%, 30.513%, 30.284119%)" offset="0.300781"/><stop stop-opacity="1" stop-color="rgb(85.58197%, 30.522156%, 30.667114%)" offset="0.304687"/><stop stop-opacity="1" stop-color="rgb(85.411072%, 30.531311%, 31.05011%)" offset="0.308594"/><stop stop-opacity="1" stop-color="rgb(85.241699%, 30.540466%, 31.433105%)" offset="0.3125"/><stop stop-opacity="1" stop-color="rgb(85.072327%, 30.549622%, 31.816101%)" offset="0.316406"/><stop stop-opacity="1" stop-color="rgb(84.902954%, 30.558777%, 32.199097%)" offset="0.320312"/><stop stop-opacity="1" stop-color="rgb(84.733582%, 30.567932%, 32.582092%)" offset="0.324219"/><stop stop-opacity="1" stop-color="rgb(84.564209%, 30.577087%, 32.965088%)" offset="0.328125"/><stop stop-opacity="1" stop-color="rgb(84.394836%, 30.586243%, 33.348083%)" offset="0.332031"/><stop stop-opacity="1" stop-color="rgb(84.225464%, 30.595398%, 33.731079%)" offset="0.335938"/><stop stop-opacity="1" stop-color="rgb(84.056091%, 30.604553%, 34.114075%)" offset="0.339844"/><stop stop-opacity="1" stop-color="rgb(83.886719%, 30.615234%, 34.49707%)" offset="0.34375"/><stop stop-opacity="1" stop-color="rgb(83.717346%, 30.62439%, 34.880066%)" offset="0.347656"/><stop stop-opacity="1" stop-color="rgb(83.547974%, 30.633545%, 35.263062%)" offset="0.351562"/><stop stop-opacity="1" stop-color="rgb(83.378601%, 30.6427%, 35.646057%)" offset="0.355469"/><stop stop-opacity="1" stop-color="rgb(83.209229%, 30.651855%, 36.029053%)" offset="0.359375"/><stop stop-opacity="1" stop-color="rgb(83.039856%, 30.661011%, 36.412048%)" offset="0.363281"/><stop stop-opacity="1" stop-color="rgb(82.870483%, 30.670166%, 36.795044%)" offset="0.367188"/><stop stop-opacity="1" stop-color="rgb(82.701111%, 30.679321%, 37.17804%)" offset="0.371094"/><stop stop-opacity="1" stop-color="rgb(82.531738%, 30.688477%, 37.561035%)" offset="0.375"/><stop stop-opacity="1" stop-color="rgb(82.36084%, 30.697632%, 37.942505%)" offset="0.378906"/><stop stop-opacity="1" stop-color="rgb(82.191467%, 30.706787%, 38.3255%)" offset="0.382812"/><stop stop-opacity="1" stop-color="rgb(82.022095%, 30.715942%, 38.708496%)" offset="0.386719"/><stop stop-opacity="1" stop-color="rgb(81.852722%, 30.725098%, 39.091492%)" offset="0.390625"/><stop stop-opacity="1" stop-color="rgb(81.68335%, 30.734253%, 39.474487%)" offset="0.394531"/><stop stop-opacity="1" stop-color="rgb(81.513977%, 30.744934%, 39.857483%)" offset="0.398437"/><stop stop-opacity="1" stop-color="rgb(81.344604%, 30.754089%, 40.240479%)" offset="0.402344"/><stop stop-opacity="1" stop-color="rgb(81.175232%, 30.763245%, 40.623474%)" offset="0.40625"/><stop stop-opacity="1" stop-color="rgb(81.005859%, 30.7724%, 41.00647%)" offset="0.410156"/><stop stop-opacity="1" stop-color="rgb(80.836487%, 30.781555%, 41.389465%)" offset="0.414062"/><stop stop-opacity="1" stop-color="rgb(80.667114%, 30.79071%, 41.772461%)" offset="0.417969"/><stop stop-opacity="1" stop-color="rgb(80.497742%, 30.799866%, 42.155457%)" offset="0.421875"/><stop stop-opacity="1" stop-color="rgb(80.328369%, 30.809021%, 42.538452%)" offset="0.425781"/><stop stop-opacity="1" stop-color="rgb(80.158997%, 30.818176%, 42.921448%)" offset="0.429687"/><stop stop-opacity="1" stop-color="rgb(79.989624%, 30.827332%, 43.304443%)" offset="0.433594"/><stop stop-opacity="1" stop-color="rgb(79.820251%, 30.836487%, 43.687439%)" offset="0.4375"/><stop stop-opacity="1" stop-color="rgb(79.649353%, 30.845642%, 44.070435%)" offset="0.441406"/><stop stop-opacity="1" stop-color="rgb(79.47998%, 30.854797%, 44.45343%)" offset="0.445312"/><stop stop-opacity="1" stop-color="rgb(79.310608%, 30.863953%, 44.836426%)" offset="0.449219"/><stop stop-opacity="1" stop-color="rgb(79.141235%, 30.874634%, 45.219421%)" offset="0.453125"/><stop stop-opacity="1" stop-color="rgb(78.971863%, 30.883789%, 45.602417%)" offset="0.457031"/><stop stop-opacity="1" stop-color="rgb(78.80249%, 30.892944%, 45.985413%)" offset="0.460937"/><stop stop-opacity="1" stop-color="rgb(78.633118%, 30.9021%, 46.366882%)" offset="0.464844"/><stop stop-opacity="1" stop-color="rgb(78.463745%, 30.911255%, 46.749878%)" offset="0.46875"/><stop stop-opacity="1" stop-color="rgb(78.294373%, 30.92041%, 47.132874%)" offset="0.472656"/><stop stop-opacity="1" stop-color="rgb(78.125%, 30.929565%, 47.515869%)" offset="0.476562"/><stop stop-opacity="1" stop-color="rgb(77.955627%, 30.938721%, 47.898865%)" offset="0.480469"/><stop stop-opacity="1" stop-color="rgb(77.786255%, 30.947876%, 48.28186%)" offset="0.484375"/><stop stop-opacity="1" stop-color="rgb(77.616882%, 30.957031%, 48.664856%)" offset="0.488281"/><stop stop-opacity="1" stop-color="rgb(77.44751%, 30.966187%, 49.047852%)" offset="0.492187"/><stop stop-opacity="1" stop-color="rgb(77.278137%, 30.975342%, 49.430847%)" offset="0.496094"/><stop stop-opacity="1" stop-color="rgb(77.108765%, 30.984497%, 49.813843%)" offset="0.5"/><stop stop-opacity="1" stop-color="rgb(76.939392%, 30.993652%, 50.196838%)" offset="0.503906"/><stop stop-opacity="1" stop-color="rgb(76.77002%, 31.004333%, 50.579834%)" offset="0.507812"/><stop stop-opacity="1" stop-color="rgb(76.599121%, 31.013489%, 50.96283%)" offset="0.511719"/><stop stop-opacity="1" stop-color="rgb(76.429749%, 31.022644%, 51.345825%)" offset="0.515625"/><stop stop-opacity="1" stop-color="rgb(76.260376%, 31.031799%, 51.728821%)" offset="0.519531"/><stop stop-opacity="1" stop-color="rgb(76.091003%, 31.040955%, 52.111816%)" offset="0.523438"/><stop stop-opacity="1" stop-color="rgb(75.921631%, 31.05011%, 52.494812%)" offset="0.527344"/><stop stop-opacity="1" stop-color="rgb(75.752258%, 31.059265%, 52.877808%)" offset="0.53125"/><stop stop-opacity="1" stop-color="rgb(75.582886%, 31.06842%, 53.260803%)" offset="0.535156"/><stop stop-opacity="1" stop-color="rgb(75.413513%, 31.077576%, 53.643799%)" offset="0.539062"/><stop stop-opacity="1" stop-color="rgb(75.244141%, 31.086731%, 54.026794%)" offset="0.542969"/><stop stop-opacity="1" stop-color="rgb(75.074768%, 31.095886%, 54.40979%)" offset="0.546875"/><stop stop-opacity="1" stop-color="rgb(74.905396%, 31.105042%, 54.79126%)" offset="0.550781"/><stop stop-opacity="1" stop-color="rgb(74.736023%, 31.114197%, 55.174255%)" offset="0.554688"/><stop stop-opacity="1" stop-color="rgb(74.56665%, 31.123352%, 55.557251%)" offset="0.558594"/><stop stop-opacity="1" stop-color="rgb(74.397278%, 31.134033%, 55.940247%)" offset="0.5625"/><stop stop-opacity="1" stop-color="rgb(74.227905%, 31.143188%, 56.323242%)" offset="0.566406"/><stop stop-opacity="1" stop-color="rgb(74.058533%, 31.152344%, 56.706238%)" offset="0.570313"/><stop stop-opacity="1" stop-color="rgb(73.887634%, 31.161499%, 57.089233%)" offset="0.574219"/><stop stop-opacity="1" stop-color="rgb(73.718262%, 31.170654%, 57.472229%)" offset="0.578125"/><stop stop-opacity="1" stop-color="rgb(73.548889%, 31.17981%, 57.855225%)" offset="0.582031"/><stop stop-opacity="1" stop-color="rgb(73.379517%, 31.188965%, 58.23822%)" offset="0.585937"/><stop stop-opacity="1" stop-color="rgb(73.210144%, 31.19812%, 58.621216%)" offset="0.589844"/><stop stop-opacity="1" stop-color="rgb(73.040771%, 31.207275%, 59.004211%)" offset="0.59375"/><stop stop-opacity="1" stop-color="rgb(72.871399%, 31.216431%, 59.387207%)" offset="0.597656"/><stop stop-opacity="1" stop-color="rgb(72.702026%, 31.225586%, 59.770203%)" offset="0.601562"/><stop stop-opacity="1" stop-color="rgb(72.532654%, 31.234741%, 60.153198%)" offset="0.605469"/><stop stop-opacity="1" stop-color="rgb(72.363281%, 31.243896%, 60.536194%)" offset="0.609375"/><stop stop-opacity="1" stop-color="rgb(72.193909%, 31.253052%, 60.919189%)" offset="0.613281"/><stop stop-opacity="1" stop-color="rgb(72.024536%, 31.263733%, 61.302185%)" offset="0.617188"/><stop stop-opacity="1" stop-color="rgb(71.855164%, 31.272888%, 61.685181%)" offset="0.621094"/><stop stop-opacity="1" stop-color="rgb(71.685791%, 31.282043%, 62.068176%)" offset="0.625"/><stop stop-opacity="1" stop-color="rgb(71.516418%, 31.291199%, 62.451172%)" offset="0.628906"/><stop stop-opacity="1" stop-color="rgb(71.347046%, 31.300354%, 62.834167%)" offset="0.632812"/><stop stop-opacity="1" stop-color="rgb(71.177673%, 31.309509%, 63.217163%)" offset="0.636719"/><stop stop-opacity="1" stop-color="rgb(71.008301%, 31.318665%, 63.600159%)" offset="0.640625"/><stop stop-opacity="1" stop-color="rgb(70.837402%, 31.32782%, 63.981628%)" offset="0.644531"/><stop stop-opacity="1" stop-color="rgb(70.66803%, 31.336975%, 64.364624%)" offset="0.648438"/><stop stop-opacity="1" stop-color="rgb(70.498657%, 31.34613%, 64.74762%)" offset="0.652344"/><stop stop-opacity="1" stop-color="rgb(70.329285%, 31.355286%, 65.130615%)" offset="0.65625"/><stop stop-opacity="1" stop-color="rgb(70.159912%, 31.364441%, 65.513611%)" offset="0.660156"/><stop stop-opacity="1" stop-color="rgb(69.99054%, 31.373596%, 65.896606%)" offset="0.664063"/><stop stop-opacity="1" stop-color="rgb(69.821167%, 31.382751%, 66.279602%)" offset="0.667969"/><stop stop-opacity="1" stop-color="rgb(69.651794%, 31.393433%, 66.662598%)" offset="0.671875"/><stop stop-opacity="1" stop-color="rgb(69.482422%, 31.402588%, 67.045593%)" offset="0.675781"/><stop stop-opacity="1" stop-color="rgb(69.313049%, 31.411743%, 67.428589%)" offset="0.679687"/><stop stop-opacity="1" stop-color="rgb(69.143677%, 31.420898%, 67.811584%)" offset="0.683594"/><stop stop-opacity="1" stop-color="rgb(68.974304%, 31.430054%, 68.19458%)" offset="0.6875"/><stop stop-opacity="1" stop-color="rgb(68.804932%, 31.439209%, 68.577576%)" offset="0.691406"/><stop stop-opacity="1" stop-color="rgb(68.635559%, 31.448364%, 68.960571%)" offset="0.695312"/><stop stop-opacity="1" stop-color="rgb(68.466187%, 31.45752%, 69.343567%)" offset="0.699219"/><stop stop-opacity="1" stop-color="rgb(68.296814%, 31.466675%, 69.726562%)" offset="0.703125"/><stop stop-opacity="1" stop-color="rgb(68.127441%, 31.47583%, 70.109558%)" offset="0.707031"/><stop stop-opacity="1" stop-color="rgb(67.958069%, 31.484985%, 70.492554%)" offset="0.710938"/><stop stop-opacity="1" stop-color="rgb(67.78717%, 31.494141%, 70.875549%)" offset="0.714844"/><stop stop-opacity="1" stop-color="rgb(67.617798%, 31.503296%, 71.258545%)" offset="0.71875"/><stop stop-opacity="1" stop-color="rgb(67.448425%, 31.512451%, 71.641541%)" offset="0.722656"/><stop stop-opacity="1" stop-color="rgb(67.279053%, 31.523132%, 72.024536%)" offset="0.726562"/><stop stop-opacity="1" stop-color="rgb(67.10968%, 31.532288%, 72.406006%)" offset="0.730469"/><stop stop-opacity="1" stop-color="rgb(66.940308%, 31.541443%, 72.789001%)" offset="0.734375"/><stop stop-opacity="1" stop-color="rgb(66.770935%, 31.550598%, 73.171997%)" offset="0.738281"/><stop stop-opacity="1" stop-color="rgb(66.601562%, 31.559753%, 73.554993%)" offset="0.742188"/><stop stop-opacity="1" stop-color="rgb(66.43219%, 31.568909%, 73.937988%)" offset="0.746094"/><stop stop-opacity="1" stop-color="rgb(66.262817%, 31.578064%, 74.320984%)" offset="0.75"/><stop stop-opacity="1" stop-color="rgb(66.093445%, 31.587219%, 74.703979%)" offset="0.753906"/><stop stop-opacity="1" stop-color="rgb(65.924072%, 31.596375%, 75.086975%)" offset="0.757813"/><stop stop-opacity="1" stop-color="rgb(65.7547%, 31.60553%, 75.469971%)" offset="0.761719"/><stop stop-opacity="1" stop-color="rgb(65.585327%, 31.614685%, 75.852966%)" offset="0.765625"/><stop stop-opacity="1" stop-color="rgb(65.415955%, 31.62384%, 76.235962%)" offset="0.769531"/><stop stop-opacity="1" stop-color="rgb(65.246582%, 31.632996%, 76.618958%)" offset="0.773437"/><stop stop-opacity="1" stop-color="rgb(65.075684%, 31.642151%, 77.001953%)" offset="0.777344"/><stop stop-opacity="1" stop-color="rgb(64.906311%, 31.652832%, 77.384949%)" offset="0.78125"/><stop stop-opacity="1" stop-color="rgb(64.736938%, 31.661987%, 77.767944%)" offset="0.785156"/><stop stop-opacity="1" stop-color="rgb(64.567566%, 31.671143%, 78.15094%)" offset="0.789062"/><stop stop-opacity="1" stop-color="rgb(64.398193%, 31.680298%, 78.533936%)" offset="0.792969"/><stop stop-opacity="1" stop-color="rgb(64.228821%, 31.689453%, 78.916931%)" offset="0.796875"/><stop stop-opacity="1" stop-color="rgb(64.059448%, 31.698608%, 79.299927%)" offset="0.800781"/><stop stop-opacity="1" stop-color="rgb(63.890076%, 31.707764%, 79.682922%)" offset="0.804688"/><stop stop-opacity="1" stop-color="rgb(63.720703%, 31.716919%, 80.065918%)" offset="0.808594"/><stop stop-opacity="1" stop-color="rgb(63.551331%, 31.726074%, 80.448914%)" offset="0.8125"/><stop stop-opacity="1" stop-color="rgb(63.381958%, 31.735229%, 80.830383%)" offset="0.816406"/><stop stop-opacity="1" stop-color="rgb(63.212585%, 31.744385%, 81.213379%)" offset="0.820312"/><stop stop-opacity="1" stop-color="rgb(63.043213%, 31.75354%, 81.596375%)" offset="0.824219"/><stop stop-opacity="1" stop-color="rgb(62.87384%, 31.762695%, 81.97937%)" offset="0.828125"/><stop stop-opacity="1" stop-color="rgb(62.704468%, 31.771851%, 82.362366%)" offset="0.832031"/><stop stop-opacity="1" stop-color="rgb(62.535095%, 31.782532%, 82.745361%)" offset="0.835938"/><stop stop-opacity="1" stop-color="rgb(62.365723%, 31.791687%, 83.128357%)" offset="0.839844"/><stop stop-opacity="1" stop-color="rgb(62.19635%, 31.800842%, 83.511353%)" offset="0.84375"/><stop stop-opacity="1" stop-color="rgb(62.025452%, 31.809998%, 83.894348%)" offset="0.847656"/><stop stop-opacity="1" stop-color="rgb(61.856079%, 31.819153%, 84.277344%)" offset="0.851563"/><stop stop-opacity="1" stop-color="rgb(61.686707%, 31.828308%, 84.660339%)" offset="0.855469"/><stop stop-opacity="1" stop-color="rgb(61.517334%, 31.837463%, 85.043335%)" offset="0.859375"/><stop stop-opacity="1" stop-color="rgb(61.347961%, 31.846619%, 85.426331%)" offset="0.863281"/><stop stop-opacity="1" stop-color="rgb(61.178589%, 31.855774%, 85.809326%)" offset="0.867187"/><stop stop-opacity="1" stop-color="rgb(61.009216%, 31.864929%, 86.192322%)" offset="0.871094"/><stop stop-opacity="1" stop-color="rgb(60.839844%, 31.874084%, 86.575317%)" offset="0.875"/><stop stop-opacity="1" stop-color="rgb(60.670471%, 31.88324%, 86.958313%)" offset="0.878906"/><stop stop-opacity="1" stop-color="rgb(60.501099%, 31.892395%, 87.341309%)" offset="0.882812"/><stop stop-opacity="1" stop-color="rgb(60.331726%, 31.90155%, 87.724304%)" offset="0.886719"/><stop stop-opacity="1" stop-color="rgb(60.162354%, 31.912231%, 88.1073%)" offset="0.890625"/><stop stop-opacity="1" stop-color="rgb(59.992981%, 31.921387%, 88.490295%)" offset="0.894531"/><stop stop-opacity="1" stop-color="rgb(59.823608%, 31.930542%, 88.873291%)" offset="0.898438"/><stop stop-opacity="1" stop-color="rgb(59.654236%, 31.939697%, 89.256287%)" offset="0.902344"/><stop stop-opacity="1" stop-color="rgb(59.484863%, 31.948853%, 89.639282%)" offset="0.90625"/><stop stop-opacity="1" stop-color="rgb(59.313965%, 31.958008%, 90.020752%)" offset="0.910156"/><stop stop-opacity="1" stop-color="rgb(59.144592%, 31.967163%, 90.403748%)" offset="0.914062"/><stop stop-opacity="1" stop-color="rgb(58.97522%, 31.976318%, 90.786743%)" offset="0.917969"/><stop stop-opacity="1" stop-color="rgb(58.805847%, 31.985474%, 91.169739%)" offset="0.921875"/><stop stop-opacity="1" stop-color="rgb(58.636475%, 31.994629%, 91.552734%)" offset="0.925781"/><stop stop-opacity="1" stop-color="rgb(58.467102%, 32.003784%, 91.93573%)" offset="0.929688"/><stop stop-opacity="1" stop-color="rgb(58.297729%, 32.012939%, 92.318726%)" offset="0.933594"/><stop stop-opacity="1" stop-color="rgb(58.128357%, 32.022095%, 92.701721%)" offset="0.9375"/><stop stop-opacity="1" stop-color="rgb(57.958984%, 32.03125%, 93.084717%)" offset="0.941406"/><stop stop-opacity="1" stop-color="rgb(57.789612%, 32.041931%, 93.467712%)" offset="0.945313"/><stop stop-opacity="1" stop-color="rgb(57.620239%, 32.051086%, 93.850708%)" offset="0.949219"/><stop stop-opacity="1" stop-color="rgb(57.450867%, 32.060242%, 94.233704%)" offset="0.953125"/><stop stop-opacity="1" stop-color="rgb(57.281494%, 32.069397%, 94.616699%)" offset="0.957031"/><stop stop-opacity="1" stop-color="rgb(57.112122%, 32.078552%, 94.999695%)" offset="0.960937"/><stop stop-opacity="1" stop-color="rgb(56.942749%, 32.087708%, 95.38269%)" offset="0.964844"/><stop stop-opacity="1" stop-color="rgb(56.773376%, 32.096863%, 95.765686%)" offset="0.96875"/><stop stop-opacity="1" stop-color="rgb(56.604004%, 32.106018%, 96.148682%)" offset="0.972656"/><stop stop-opacity="1" stop-color="rgb(56.434631%, 32.115173%, 96.531677%)" offset="0.976562"/><stop stop-opacity="1" stop-color="rgb(56.263733%, 32.124329%, 96.914673%)" offset="0.980469"/><stop stop-opacity="1" stop-color="rgb(56.09436%, 32.133484%, 97.297668%)" offset="0.984375"/><stop stop-opacity="1" stop-color="rgb(55.924988%, 32.142639%, 97.680664%)" offset="0.988281"/><stop stop-opacity="1" stop-color="rgb(55.755615%, 32.151794%, 98.06366%)" offset="0.992188"/><stop stop-opacity="1" stop-color="rgb(55.586243%, 32.16095%, 98.445129%)" offset="0.996094"/><stop stop-opacity="1" stop-color="rgb(55.41687%, 32.171631%, 98.828125%)" offset="1"/></linearGradient><mask id="1bf2ca2f3b"><g filter="url(#e80351fa79)"><rect x="-37.5" width="450" fill="#000000" y="-37.499999" height="449.999989" fill-opacity="0.3294"/></g></mask><clipPath id="c48d623d71"><path d="M 0.191406 0.636719 L 224.441406 0.636719 L 224.441406 269.136719 L 0.191406 269.136719 Z M 0.191406 0.636719 " clip-rule="nonzero"/></clipPath><clipPath id="e874ebf5e1"><rect x="0" width="226" y="0" height="271"/></clipPath><clipPath id="29e6cf7ffa"><path d="M 75.191406 53.214844 L 299.441406 53.214844 L 299.441406 321.714844 L 75.191406 321.714844 Z M 75.191406 53.214844 " clip-rule="nonzero"/></clipPath></defs><g clip-path="url(#c791c3a456)"><g clip-path="url(#bd28cab0e2)"><path fill="url(#f915d2ee03)" d="M 6.660156 6.660156 L 6.660156 368.160156 L 368.160156 368.160156 L 368.160156 6.660156 Z M 6.660156 6.660156 " fill-rule="nonzero"/></g></g><g mask="url(#1bf2ca2f3b)"><g transform="matrix(1, 0, 0, 1, 75, 58)"><g clip-path="url(#e874ebf5e1)"><g clip-path="url(#c48d623d71)"><path fill="#000000" d="M 193.3125 156.019531 C 192.691406 156.019531 192.691406 156.019531 193.3125 156.019531 L 192.691406 150.425781 C 192.691406 147.316406 190.207031 144.832031 187.105469 144.210938 C 185.242188 144.210938 183.378906 143.589844 181.519531 143.589844 C 181.519531 143.589844 180.898438 142.96875 180.898438 142.96875 C 169.105469 132.402344 156.070312 124.941406 142.417969 120.59375 C 162.277344 110.027344 175.933594 88.894531 175.933594 64.65625 C 175.933594 29.226562 147.382812 0.636719 112.003906 0.636719 C 76.628906 0.636719 48.078125 29.226562 48.078125 64.65625 C 48.078125 88.894531 61.730469 110.027344 81.59375 120.59375 C 67.9375 124.941406 54.902344 132.402344 43.113281 142.347656 C 43.113281 142.347656 42.492188 142.96875 42.492188 143.589844 C 40.628906 143.589844 38.765625 143.589844 36.90625 144.210938 C 33.800781 144.832031 31.320312 147.316406 31.320312 150.425781 L 31.320312 155.398438 C 30.699219 156.019531 30.078125 156.019531 30.078125 156.640625 C 11.457031 180.878906 0.285156 213.820312 0.285156 244.898438 C 0.285156 248.628906 2.769531 251.113281 6.492188 251.113281 L 31.941406 251.113281 C 31.941406 252.355469 32.5625 253.597656 33.800781 254.222656 C 35.042969 255.464844 36.90625 256.085938 38.765625 256.085938 C 82.832031 251.734375 108.902344 267.894531 108.902344 268.515625 C 108.902344 268.515625 109.523438 268.515625 109.523438 269.136719 C 109.523438 269.136719 110.144531 269.136719 110.144531 269.136719 C 110.761719 269.136719 110.761719 269.136719 111.382812 269.136719 C 111.382812 269.136719 112.003906 269.136719 112.003906 269.136719 C 112.625 269.136719 113.246094 269.136719 113.867188 269.136719 C 113.867188 269.136719 113.867188 269.136719 114.488281 269.136719 C 115.109375 269.136719 115.109375 269.136719 115.730469 268.515625 C 115.730469 268.515625 141.796875 251.734375 185.863281 256.085938 C 187.726562 256.085938 189.585938 255.464844 190.828125 254.222656 C 191.449219 253.597656 192.070312 252.355469 192.691406 251.113281 L 218.136719 251.113281 C 221.859375 251.113281 224.34375 248.628906 224.34375 244.898438 C 224.34375 211.335938 213.171875 179.636719 193.3125 156.019531 Z M 60.488281 64.65625 C 60.488281 36.066406 83.453125 13.066406 112.003906 13.066406 C 140.554688 13.066406 163.519531 36.066406 163.519531 64.65625 C 163.519531 93.246094 140.554688 116.242188 112.003906 116.242188 C 83.453125 116.242188 60.488281 93.246094 60.488281 64.65625 Z M 161.035156 143.589844 C 135.589844 145.453125 118.832031 152.910156 112.003906 156.640625 C 105.175781 152.910156 88.417969 145.453125 62.972656 143.589844 C 77.867188 133.644531 94.625 128.671875 112.003906 128.671875 C 129.382812 128.671875 146.140625 133.644531 161.035156 143.589844 Z M 31.320312 177.152344 L 31.320312 238.683594 L 12.699219 238.683594 C 13.320312 217.550781 20.148438 195.175781 31.320312 177.152344 Z M 180.277344 243.035156 C 144.277344 240.546875 120.695312 251.113281 112.003906 256.085938 C 103.316406 251.734375 79.730469 241.167969 43.734375 243.035156 L 43.734375 156.019531 C 84.074219 153.535156 108.28125 168.449219 108.902344 168.449219 C 109.523438 168.449219 110.144531 169.070312 110.144531 169.070312 C 110.144531 169.070312 110.761719 169.070312 110.761719 169.070312 C 111.382812 169.070312 112.003906 169.070312 112.625 169.070312 C 112.625 169.070312 113.246094 169.070312 113.246094 169.070312 C 113.867188 169.070312 114.488281 168.449219 115.109375 168.449219 C 115.109375 168.449219 115.109375 168.449219 115.730469 168.449219 C 116.347656 167.828125 139.933594 152.910156 180.277344 156.019531 Z M 192.691406 238.683594 L 192.691406 177.152344 C 203.863281 195.175781 210.6875 216.308594 211.308594 238.683594 Z M 192.691406 238.683594 " fill-opacity="1" fill-rule="nonzero"/></g></g></g></g><g clip-path="url(#29e6cf7ffa)"><path fill="#ffffff" d="M 268.3125 208.597656 C 267.691406 208.597656 267.691406 208.597656 268.3125 208.597656 L 267.691406 203.003906 C 267.691406 199.898438 265.207031 197.410156 262.105469 196.789062 C 260.242188 196.789062 258.378906 196.167969 256.519531 196.167969 C 256.519531 196.167969 255.898438 195.546875 255.898438 195.546875 C 244.105469 184.980469 231.070312 177.523438 217.417969 173.171875 C 237.277344 162.605469 250.933594 141.472656 250.933594 117.234375 C 250.933594 81.808594 222.382812 53.214844 187.003906 53.214844 C 151.628906 53.214844 123.078125 81.808594 123.078125 117.234375 C 123.078125 141.472656 136.730469 162.605469 156.59375 173.171875 C 142.9375 177.523438 129.902344 184.980469 118.113281 194.925781 C 118.113281 194.925781 117.492188 195.546875 117.492188 196.167969 C 115.628906 196.167969 113.765625 196.167969 111.90625 196.789062 C 108.800781 197.410156 106.320312 199.898438 106.320312 203.003906 L 106.320312 207.976562 C 105.699219 208.597656 105.078125 208.597656 105.078125 209.21875 C 86.457031 233.460938 75.285156 266.402344 75.285156 297.476562 C 75.285156 301.207031 77.769531 303.691406 81.492188 303.691406 L 106.941406 303.691406 C 106.941406 304.933594 107.5625 306.179688 108.800781 306.800781 C 110.042969 308.042969 111.90625 308.664062 113.765625 308.664062 C 157.832031 304.3125 183.902344 320.472656 183.902344 321.09375 C 183.902344 321.09375 184.523438 321.09375 184.523438 321.714844 C 184.523438 321.714844 185.144531 321.714844 185.144531 321.714844 C 185.761719 321.714844 185.761719 321.714844 186.382812 321.714844 C 186.382812 321.714844 187.003906 321.714844 187.003906 321.714844 C 187.625 321.714844 188.246094 321.714844 188.867188 321.714844 C 188.867188 321.714844 188.867188 321.714844 189.488281 321.714844 C 190.109375 321.714844 190.109375 321.714844 190.730469 321.09375 C 190.730469 321.09375 216.796875 304.3125 260.863281 308.664062 C 262.726562 308.664062 264.585938 308.042969 265.828125 306.800781 C 266.449219 306.179688 267.070312 304.933594 267.691406 303.691406 L 293.136719 303.691406 C 296.859375 303.691406 299.34375 301.207031 299.34375 297.476562 C 299.34375 263.914062 288.171875 232.214844 268.3125 208.597656 Z M 135.488281 117.234375 C 135.488281 88.644531 158.453125 65.648438 187.003906 65.648438 C 215.554688 65.648438 238.519531 88.644531 238.519531 117.234375 C 238.519531 145.824219 215.554688 168.820312 187.003906 168.820312 C 158.453125 168.820312 135.488281 145.824219 135.488281 117.234375 Z M 236.035156 196.167969 C 210.589844 198.03125 193.832031 205.492188 187.003906 209.21875 C 180.175781 205.492188 163.417969 198.03125 137.972656 196.167969 C 152.867188 186.222656 169.625 181.25 187.003906 181.25 C 204.382812 181.25 221.140625 186.222656 236.035156 196.167969 Z M 106.320312 229.730469 L 106.320312 291.261719 L 87.699219 291.261719 C 88.320312 270.128906 95.148438 247.753906 106.320312 229.730469 Z M 255.277344 295.613281 C 219.277344 293.125 195.695312 303.691406 187.003906 308.664062 C 178.316406 304.3125 154.730469 293.746094 118.734375 295.613281 L 118.734375 208.597656 C 159.074219 206.113281 183.28125 221.027344 183.902344 221.027344 C 184.523438 221.027344 185.144531 221.652344 185.144531 221.652344 C 185.144531 221.652344 185.761719 221.652344 185.761719 221.652344 C 186.382812 221.652344 187.003906 221.652344 187.625 221.652344 C 187.625 221.652344 188.246094 221.652344 188.246094 221.652344 C 188.867188 221.652344 189.488281 221.027344 190.109375 221.027344 C 190.109375 221.027344 190.109375 221.027344 190.730469 221.027344 C 191.347656 220.40625 214.933594 205.492188 255.277344 208.597656 Z M 267.691406 291.261719 L 267.691406 229.730469 C 278.863281 247.753906 285.6875 268.886719 286.308594 291.261719 Z M 267.691406 291.261719 " fill-opacity="1" fill-rule="nonzero"/></g></svg>