<svg xmlns="http://www.w3.org/2000/svg" xmlns:xlink="http://www.w3.org/1999/xlink" width="500" zoomAndPan="magnify" viewBox="0 0 375 374.999991" height="500" preserveAspectRatio="xMidYMid meet" version="1.0"><defs><filter x="0%" y="0%" width="100%" height="100%" id="74109a9b96"><feColorMatrix values="0 0 0 0 1 0 0 0 0 1 0 0 0 0 1 0 0 0 1 0" color-interpolation-filters="sRGB"/></filter><clipPath id="0fa60ba95e"><path d="M 6.660156 6.660156 L 368.160156 6.660156 L 368.160156 368.160156 L 6.660156 368.160156 Z M 6.660156 6.660156 " clip-rule="nonzero"/></clipPath><clipPath id="7f0c026a74"><path d="M 368.160156 187.410156 C 368.160156 190.371094 368.089844 193.324219 367.945312 196.28125 C 367.796875 199.234375 367.582031 202.183594 367.289062 205.128906 C 367 208.070312 366.640625 211.007812 366.203125 213.933594 C 365.769531 216.859375 365.265625 219.773438 364.6875 222.671875 C 364.109375 225.574219 363.464844 228.460938 362.746094 231.328125 C 362.027344 234.199219 361.238281 237.050781 360.378906 239.878906 C 359.519531 242.710938 358.589844 245.519531 357.59375 248.304688 C 356.597656 251.089844 355.535156 253.847656 354.402344 256.582031 C 353.269531 259.3125 352.070312 262.019531 350.808594 264.691406 C 349.542969 267.367188 348.210938 270.007812 346.820312 272.617188 C 345.425781 275.226562 343.964844 277.796875 342.445312 280.335938 C 340.925781 282.871094 339.34375 285.371094 337.699219 287.832031 C 336.054688 290.289062 334.351562 292.707031 332.589844 295.082031 C 330.828125 297.460938 329.007812 299.792969 327.132812 302.078125 C 325.257812 304.363281 323.324219 306.605469 321.339844 308.796875 C 319.351562 310.988281 317.3125 313.128906 315.222656 315.21875 C 313.128906 317.3125 310.988281 319.351562 308.796875 321.339844 C 306.605469 323.324219 304.363281 325.257812 302.078125 327.132812 C 299.792969 329.007812 297.460938 330.828125 295.082031 332.589844 C 292.707031 334.351562 290.289062 336.054688 287.832031 337.699219 C 285.371094 339.34375 282.871094 340.925781 280.335938 342.445312 C 277.796875 343.964844 275.226562 345.425781 272.617188 346.820312 C 270.007812 348.210938 267.367188 349.542969 264.691406 350.808594 C 262.019531 352.070312 259.3125 353.269531 256.582031 354.402344 C 253.847656 355.535156 251.089844 356.597656 248.304688 357.59375 C 245.519531 358.589844 242.710938 359.519531 239.878906 360.378906 C 237.050781 361.238281 234.199219 362.027344 231.328125 362.746094 C 228.460938 363.464844 225.574219 364.109375 222.671875 364.6875 C 219.773438 365.265625 216.859375 365.769531 213.933594 366.203125 C 211.007812 366.640625 208.070312 367 205.128906 367.289062 C 202.183594 367.582031 199.234375 367.796875 196.28125 367.945312 C 193.324219 368.089844 190.371094 368.160156 187.410156 368.160156 C 184.453125 368.160156 181.496094 368.089844 178.542969 367.945312 C 175.585938 367.796875 172.636719 367.582031 169.695312 367.289062 C 166.75 367 163.816406 366.640625 160.890625 366.203125 C 157.964844 365.769531 155.050781 365.265625 152.148438 364.6875 C 149.246094 364.109375 146.363281 363.464844 143.492188 362.746094 C 140.625 362.027344 137.773438 361.238281 134.941406 360.378906 C 132.113281 359.519531 129.304688 358.589844 126.519531 357.59375 C 123.734375 356.597656 120.972656 355.535156 118.242188 354.402344 C 115.507812 353.269531 112.804688 352.070312 110.128906 350.808594 C 107.457031 349.542969 104.816406 348.210938 102.207031 346.820312 C 99.597656 345.425781 97.023438 343.964844 94.488281 342.445312 C 91.949219 340.925781 89.453125 339.34375 86.992188 337.699219 C 84.53125 336.054688 82.113281 334.351562 79.738281 332.589844 C 77.363281 330.828125 75.03125 329.007812 72.746094 327.132812 C 70.457031 325.257812 68.21875 323.324219 66.027344 321.339844 C 63.835938 319.351562 61.691406 317.3125 59.601562 315.21875 C 57.511719 313.128906 55.472656 310.988281 53.484375 308.796875 C 51.496094 306.605469 49.566406 304.363281 47.691406 302.078125 C 45.8125 299.792969 43.992188 297.460938 42.230469 295.082031 C 40.46875 292.707031 38.765625 290.289062 37.125 287.832031 C 35.480469 285.371094 33.898438 282.871094 32.375 280.335938 C 30.855469 277.796875 29.398438 275.226562 28.003906 272.617188 C 26.609375 270.007812 25.28125 267.367188 24.015625 264.691406 C 22.75 262.019531 21.550781 259.3125 20.421875 256.582031 C 19.289062 253.847656 18.222656 251.089844 17.226562 248.304688 C 16.230469 245.519531 15.304688 242.710938 14.445312 239.878906 C 13.585938 237.050781 12.796875 234.199219 12.078125 231.328125 C 11.359375 228.460938 10.710938 225.574219 10.132812 222.671875 C 9.558594 219.773438 9.050781 216.859375 8.617188 213.933594 C 8.183594 211.007812 7.820312 208.070312 7.53125 205.128906 C 7.242188 202.183594 7.023438 199.234375 6.878906 196.28125 C 6.734375 193.324219 6.660156 190.371094 6.660156 187.410156 C 6.660156 184.453125 6.734375 181.496094 6.878906 178.542969 C 7.023438 175.585938 7.242188 172.636719 7.53125 169.695312 C 7.820312 166.75 8.183594 163.816406 8.617188 160.890625 C 9.050781 157.964844 9.558594 155.050781 10.132812 152.148438 C 10.710938 149.246094 11.359375 146.363281 12.078125 143.492188 C 12.796875 140.621094 13.585938 137.773438 14.445312 134.941406 C 15.304688 132.113281 16.230469 129.304688 17.226562 126.519531 C 18.222656 123.734375 19.289062 120.972656 20.421875 118.242188 C 21.550781 115.507812 22.75 112.804688 24.015625 110.128906 C 25.28125 107.457031 26.609375 104.816406 28.003906 102.207031 C 29.398438 99.597656 30.855469 97.023438 32.375 94.488281 C 33.898438 91.949219 35.480469 89.453125 37.125 86.992188 C 38.765625 84.53125 40.46875 82.113281 42.230469 79.738281 C 43.992188 77.363281 45.8125 75.03125 47.691406 72.746094 C 49.566406 70.457031 51.496094 68.21875 53.484375 66.027344 C 55.472656 63.835938 57.511719 61.691406 59.601562 59.601562 C 61.691406 57.511719 63.835938 55.472656 66.027344 53.484375 C 68.21875 51.496094 70.457031 49.566406 72.746094 47.691406 C 75.03125 45.8125 77.363281 43.992188 79.738281 42.230469 C 82.113281 40.46875 84.53125 38.765625 86.992188 37.121094 C 89.453125 35.480469 91.949219 33.898438 94.488281 32.375 C 97.023438 30.855469 99.597656 29.398438 102.207031 28.003906 C 104.816406 26.609375 107.457031 25.28125 110.128906 24.015625 C 112.804688 22.75 115.507812 21.550781 118.242188 20.421875 C 120.972656 19.289062 123.734375 18.222656 126.519531 17.226562 C 129.304688 16.230469 132.113281 15.304688 134.941406 14.445312 C 137.773438 13.585938 140.625 12.796875 143.492188 12.078125 C 146.363281 11.359375 149.246094 10.710938 152.148438 10.132812 C 155.050781 9.558594 157.964844 9.050781 160.890625 8.617188 C 163.816406 8.183594 166.75 7.820312 169.695312 7.53125 C 172.636719 7.242188 175.585938 7.023438 178.542969 6.878906 C 181.496094 6.734375 184.453125 6.660156 187.410156 6.660156 C 190.371094 6.660156 193.324219 6.734375 196.28125 6.878906 C 199.234375 7.023438 202.183594 7.242188 205.128906 7.53125 C 208.070312 7.820312 211.007812 8.183594 213.933594 8.617188 C 216.859375 9.050781 219.773438 9.558594 222.671875 10.132812 C 225.574219 10.710938 228.460938 11.359375 231.328125 12.078125 C 234.199219 12.796875 237.050781 13.585938 239.878906 14.445312 C 242.710938 15.304688 245.519531 16.230469 248.304688 17.226562 C 251.089844 18.222656 253.847656 19.289062 256.582031 20.421875 C 259.3125 21.550781 262.019531 22.75 264.691406 24.015625 C 267.367188 25.28125 270.007812 26.609375 272.617188 28.003906 C 275.226562 29.398438 277.796875 30.855469 280.335938 32.375 C 282.871094 33.898438 285.371094 35.480469 287.832031 37.121094 C 290.289062 38.765625 292.707031 40.46875 295.082031 42.230469 C 297.460938 43.992188 299.792969 45.8125 302.078125 47.691406 C 304.363281 49.566406 306.605469 51.496094 308.796875 53.484375 C 310.988281 55.472656 313.128906 57.511719 315.222656 59.601562 C 317.3125 61.691406 319.351562 63.835938 321.339844 66.027344 C 323.324219 68.21875 325.257812 70.457031 327.132812 72.746094 C 329.007812 75.03125 330.828125 77.363281 332.589844 79.738281 C 334.351562 82.113281 336.054688 84.53125 337.699219 86.992188 C 339.34375 89.453125 340.925781 91.949219 342.445312 94.488281 C 343.964844 97.023438 345.425781 99.597656 346.820312 102.207031 C 348.210938 104.816406 349.542969 107.457031 350.808594 110.128906 C 352.070312 112.804688 353.269531 115.507812 354.402344 118.242188 C 355.535156 120.972656 356.597656 123.734375 357.59375 126.519531 C 358.589844 129.304688 359.519531 132.113281 360.378906 134.941406 C 361.238281 137.773438 362.027344 140.621094 362.746094 143.492188 C 363.464844 146.363281 364.109375 149.246094 364.6875 152.148438 C 365.265625 155.050781 365.769531 157.964844 366.203125 160.890625 C 366.640625 163.816406 367 166.75 367.289062 169.695312 C 367.582031 172.636719 367.796875 175.585938 367.945312 178.542969 C 368.089844 181.496094 368.160156 184.453125 368.160156 187.410156 Z M 368.160156 187.410156 " clip-rule="nonzero"/></clipPath><linearGradient x1="0.00000000235883" gradientTransform="matrix(361.500021, 0, 0, 361.500021, 6.661189, 6.66117)" y1="0.00000000233571" x2="1.004902" gradientUnits="userSpaceOnUse" y2="0.995049" id="a7c3c96f84"><stop stop-opacity="1" stop-color="rgb(100%, 19.198608%, 19.198608%)" offset="0"/><stop stop-opacity="1" stop-color="rgb(100%, 19.410706%, 19.259644%)" offset="0.00390625"/><stop stop-opacity="1" stop-color="rgb(100%, 19.622803%, 19.320679%)" offset="0.0078125"/><stop stop-opacity="1" stop-color="rgb(100%, 19.8349%, 19.380188%)" offset="0.0117188"/><stop stop-opacity="1" stop-color="rgb(100%, 20.046997%, 19.441223%)" offset="0.015625"/><stop stop-opacity="1" stop-color="rgb(100%, 20.259094%, 19.502258%)" offset="0.0195312"/><stop stop-opacity="1" stop-color="rgb(100%, 20.471191%, 19.563293%)" offset="0.0234375"/><stop stop-opacity="1" stop-color="rgb(100%, 20.681763%, 19.622803%)" offset="0.0273438"/><stop stop-opacity="1" stop-color="rgb(100%, 20.89386%, 19.683838%)" offset="0.03125"/><stop stop-opacity="1" stop-color="rgb(100%, 21.105957%, 19.744873%)" offset="0.0351563"/><stop stop-opacity="1" stop-color="rgb(100%, 21.318054%, 19.805908%)" offset="0.0390625"/><stop stop-opacity="1" stop-color="rgb(100%, 21.530151%, 19.865417%)" offset="0.0429688"/><stop stop-opacity="1" stop-color="rgb(100%, 21.742249%, 19.926453%)" offset="0.046875"/><stop stop-opacity="1" stop-color="rgb(100%, 21.954346%, 19.985962%)" offset="0.0507812"/><stop stop-opacity="1" stop-color="rgb(100%, 22.166443%, 20.046997%)" offset="0.0546875"/><stop stop-opacity="1" stop-color="rgb(100%, 22.37854%, 20.108032%)" offset="0.0585938"/><stop stop-opacity="1" stop-color="rgb(100%, 22.590637%, 20.169067%)" offset="0.0625"/><stop stop-opacity="1" stop-color="rgb(100%, 22.801208%, 20.228577%)" offset="0.0664062"/><stop stop-opacity="1" stop-color="rgb(100%, 23.013306%, 20.289612%)" offset="0.0703125"/><stop stop-opacity="1" stop-color="rgb(100%, 23.225403%, 20.350647%)" offset="0.0742187"/><stop stop-opacity="1" stop-color="rgb(100%, 23.4375%, 20.411682%)" offset="0.078125"/><stop stop-opacity="1" stop-color="rgb(100%, 23.649597%, 20.471191%)" offset="0.0820312"/><stop stop-opacity="1" stop-color="rgb(100%, 23.861694%, 20.532227%)" offset="0.0859375"/><stop stop-opacity="1" stop-color="rgb(100%, 24.073792%, 20.593262%)" offset="0.0898437"/><stop stop-opacity="1" stop-color="rgb(100%, 24.285889%, 20.654297%)" offset="0.09375"/><stop stop-opacity="1" stop-color="rgb(100%, 24.49646%, 20.713806%)" offset="0.0976562"/><stop stop-opacity="1" stop-color="rgb(100%, 24.708557%, 20.774841%)" offset="0.101562"/><stop stop-opacity="1" stop-color="rgb(100%, 24.920654%, 20.835876%)" offset="0.105469"/><stop stop-opacity="1" stop-color="rgb(100%, 25.132751%, 20.896912%)" offset="0.109375"/><stop stop-opacity="1" stop-color="rgb(100%, 25.344849%, 20.956421%)" offset="0.113281"/><stop stop-opacity="1" stop-color="rgb(100%, 25.556946%, 21.017456%)" offset="0.117187"/><stop stop-opacity="1" stop-color="rgb(100%, 25.769043%, 21.076965%)" offset="0.121094"/><stop stop-opacity="1" stop-color="rgb(100%, 25.98114%, 21.138%)" offset="0.125"/><stop stop-opacity="1" stop-color="rgb(100%, 26.193237%, 21.199036%)" offset="0.128906"/><stop stop-opacity="1" stop-color="rgb(100%, 26.405334%, 21.260071%)" offset="0.132812"/><stop stop-opacity="1" stop-color="rgb(100%, 26.615906%, 21.31958%)" offset="0.136719"/><stop stop-opacity="1" stop-color="rgb(100%, 26.828003%, 21.380615%)" offset="0.140625"/><stop stop-opacity="1" stop-color="rgb(100%, 27.0401%, 21.44165%)" offset="0.144531"/><stop stop-opacity="1" stop-color="rgb(100%, 27.252197%, 21.502686%)" offset="0.148438"/><stop stop-opacity="1" stop-color="rgb(100%, 27.464294%, 21.562195%)" offset="0.152344"/><stop stop-opacity="1" stop-color="rgb(100%, 27.676392%, 21.62323%)" offset="0.15625"/><stop stop-opacity="1" stop-color="rgb(100%, 27.888489%, 21.684265%)" offset="0.160156"/><stop stop-opacity="1" stop-color="rgb(100%, 28.100586%, 21.7453%)" offset="0.164062"/><stop stop-opacity="1" stop-color="rgb(100%, 28.311157%, 21.80481%)" offset="0.167969"/><stop stop-opacity="1" stop-color="rgb(100%, 28.523254%, 21.865845%)" offset="0.171875"/><stop stop-opacity="1" stop-color="rgb(100%, 28.735352%, 21.925354%)" offset="0.175781"/><stop stop-opacity="1" stop-color="rgb(100%, 28.947449%, 21.986389%)" offset="0.179687"/><stop stop-opacity="1" stop-color="rgb(100%, 29.159546%, 22.047424%)" offset="0.183594"/><stop stop-opacity="1" stop-color="rgb(100%, 29.371643%, 22.108459%)" offset="0.1875"/><stop stop-opacity="1" stop-color="rgb(100%, 29.58374%, 22.167969%)" offset="0.191406"/><stop stop-opacity="1" stop-color="rgb(100%, 29.795837%, 22.229004%)" offset="0.195312"/><stop stop-opacity="1" stop-color="rgb(100%, 30.006409%, 22.290039%)" offset="0.199219"/><stop stop-opacity="1" stop-color="rgb(100%, 30.218506%, 22.351074%)" offset="0.203125"/><stop stop-opacity="1" stop-color="rgb(100%, 30.430603%, 22.410583%)" offset="0.207031"/><stop stop-opacity="1" stop-color="rgb(100%, 30.6427%, 22.471619%)" offset="0.210937"/><stop stop-opacity="1" stop-color="rgb(100%, 30.854797%, 22.532654%)" offset="0.214844"/><stop stop-opacity="1" stop-color="rgb(100%, 31.066895%, 22.593689%)" offset="0.21875"/><stop stop-opacity="1" stop-color="rgb(100%, 31.278992%, 22.653198%)" offset="0.222656"/><stop stop-opacity="1" stop-color="rgb(100%, 31.491089%, 22.714233%)" offset="0.226562"/><stop stop-opacity="1" stop-color="rgb(100%, 31.703186%, 22.773743%)" offset="0.230469"/><stop stop-opacity="1" stop-color="rgb(100%, 31.915283%, 22.834778%)" offset="0.234375"/><stop stop-opacity="1" stop-color="rgb(100%, 32.125854%, 22.895813%)" offset="0.238281"/><stop stop-opacity="1" stop-color="rgb(100%, 32.337952%, 22.956848%)" offset="0.242188"/><stop stop-opacity="1" stop-color="rgb(100%, 32.550049%, 23.016357%)" offset="0.246094"/><stop stop-opacity="1" stop-color="rgb(100%, 32.762146%, 23.077393%)" offset="0.25"/><stop stop-opacity="1" stop-color="rgb(100%, 32.974243%, 23.138428%)" offset="0.253906"/><stop stop-opacity="1" stop-color="rgb(100%, 33.18634%, 23.199463%)" offset="0.257812"/><stop stop-opacity="1" stop-color="rgb(100%, 33.398438%, 23.258972%)" offset="0.261719"/><stop stop-opacity="1" stop-color="rgb(100%, 33.610535%, 23.320007%)" offset="0.265625"/><stop stop-opacity="1" stop-color="rgb(100%, 33.821106%, 23.381042%)" offset="0.269531"/><stop stop-opacity="1" stop-color="rgb(100%, 34.033203%, 23.442078%)" offset="0.273438"/><stop stop-opacity="1" stop-color="rgb(100%, 34.2453%, 23.501587%)" offset="0.277344"/><stop stop-opacity="1" stop-color="rgb(100%, 34.457397%, 23.562622%)" offset="0.28125"/><stop stop-opacity="1" stop-color="rgb(100%, 34.669495%, 23.623657%)" offset="0.285156"/><stop stop-opacity="1" stop-color="rgb(100%, 34.881592%, 23.684692%)" offset="0.289062"/><stop stop-opacity="1" stop-color="rgb(100%, 35.093689%, 23.744202%)" offset="0.292969"/><stop stop-opacity="1" stop-color="rgb(100%, 35.305786%, 23.805237%)" offset="0.296875"/><stop stop-opacity="1" stop-color="rgb(100%, 35.517883%, 23.864746%)" offset="0.300781"/><stop stop-opacity="1" stop-color="rgb(100%, 35.72998%, 23.925781%)" offset="0.304688"/><stop stop-opacity="1" stop-color="rgb(100%, 35.940552%, 23.986816%)" offset="0.308594"/><stop stop-opacity="1" stop-color="rgb(100%, 36.152649%, 24.047852%)" offset="0.3125"/><stop stop-opacity="1" stop-color="rgb(100%, 36.364746%, 24.107361%)" offset="0.316406"/><stop stop-opacity="1" stop-color="rgb(100%, 36.576843%, 24.168396%)" offset="0.320312"/><stop stop-opacity="1" stop-color="rgb(100%, 36.78894%, 24.229431%)" offset="0.324219"/><stop stop-opacity="1" stop-color="rgb(100%, 37.001038%, 24.290466%)" offset="0.328125"/><stop stop-opacity="1" stop-color="rgb(100%, 37.213135%, 24.349976%)" offset="0.332031"/><stop stop-opacity="1" stop-color="rgb(100%, 37.425232%, 24.411011%)" offset="0.335938"/><stop stop-opacity="1" stop-color="rgb(100%, 37.635803%, 24.472046%)" offset="0.339844"/><stop stop-opacity="1" stop-color="rgb(100%, 37.8479%, 24.533081%)" offset="0.34375"/><stop stop-opacity="1" stop-color="rgb(100%, 38.059998%, 24.59259%)" offset="0.347656"/><stop stop-opacity="1" stop-color="rgb(100%, 38.272095%, 24.653625%)" offset="0.351562"/><stop stop-opacity="1" stop-color="rgb(100%, 38.484192%, 24.713135%)" offset="0.355469"/><stop stop-opacity="1" stop-color="rgb(100%, 38.696289%, 24.77417%)" offset="0.359375"/><stop stop-opacity="1" stop-color="rgb(100%, 38.908386%, 24.835205%)" offset="0.363281"/><stop stop-opacity="1" stop-color="rgb(100%, 39.120483%, 24.89624%)" offset="0.367188"/><stop stop-opacity="1" stop-color="rgb(100%, 39.331055%, 24.95575%)" offset="0.371094"/><stop stop-opacity="1" stop-color="rgb(100%, 39.543152%, 25.016785%)" offset="0.375"/><stop stop-opacity="1" stop-color="rgb(100%, 39.755249%, 25.07782%)" offset="0.378906"/><stop stop-opacity="1" stop-color="rgb(100%, 39.967346%, 25.138855%)" offset="0.382812"/><stop stop-opacity="1" stop-color="rgb(100%, 40.179443%, 25.198364%)" offset="0.386719"/><stop stop-opacity="1" stop-color="rgb(100%, 40.391541%, 25.259399%)" offset="0.390625"/><stop stop-opacity="1" stop-color="rgb(100%, 40.603638%, 25.320435%)" offset="0.394531"/><stop stop-opacity="1" stop-color="rgb(100%, 40.815735%, 25.38147%)" offset="0.398437"/><stop stop-opacity="1" stop-color="rgb(100%, 41.027832%, 25.440979%)" offset="0.402344"/><stop stop-opacity="1" stop-color="rgb(100%, 41.239929%, 25.502014%)" offset="0.40625"/><stop stop-opacity="1" stop-color="rgb(100%, 41.4505%, 25.561523%)" offset="0.410156"/><stop stop-opacity="1" stop-color="rgb(100%, 41.662598%, 25.622559%)" offset="0.414062"/><stop stop-opacity="1" stop-color="rgb(100%, 41.874695%, 25.683594%)" offset="0.417969"/><stop stop-opacity="1" stop-color="rgb(100%, 42.086792%, 25.744629%)" offset="0.421875"/><stop stop-opacity="1" stop-color="rgb(100%, 42.298889%, 25.804138%)" offset="0.425781"/><stop stop-opacity="1" stop-color="rgb(100%, 42.510986%, 25.865173%)" offset="0.429688"/><stop stop-opacity="1" stop-color="rgb(100%, 42.723083%, 25.926208%)" offset="0.433594"/><stop stop-opacity="1" stop-color="rgb(100%, 42.935181%, 25.987244%)" offset="0.4375"/><stop stop-opacity="1" stop-color="rgb(100%, 43.145752%, 26.046753%)" offset="0.441406"/><stop stop-opacity="1" stop-color="rgb(100%, 43.357849%, 26.107788%)" offset="0.445312"/><stop stop-opacity="1" stop-color="rgb(100%, 43.569946%, 26.168823%)" offset="0.449219"/><stop stop-opacity="1" stop-color="rgb(100%, 43.782043%, 26.229858%)" offset="0.453125"/><stop stop-opacity="1" stop-color="rgb(100%, 43.994141%, 26.289368%)" offset="0.457031"/><stop stop-opacity="1" stop-color="rgb(100%, 44.206238%, 26.350403%)" offset="0.460938"/><stop stop-opacity="1" stop-color="rgb(100%, 44.418335%, 26.411438%)" offset="0.464844"/><stop stop-opacity="1" stop-color="rgb(100%, 44.630432%, 26.472473%)" offset="0.46875"/><stop stop-opacity="1" stop-color="rgb(100%, 44.841003%, 26.531982%)" offset="0.472656"/><stop stop-opacity="1" stop-color="rgb(100%, 45.053101%, 26.593018%)" offset="0.476562"/><stop stop-opacity="1" stop-color="rgb(100%, 45.265198%, 26.652527%)" offset="0.480469"/><stop stop-opacity="1" stop-color="rgb(100%, 45.477295%, 26.713562%)" offset="0.484375"/><stop stop-opacity="1" stop-color="rgb(100%, 45.689392%, 26.774597%)" offset="0.488281"/><stop stop-opacity="1" stop-color="rgb(100%, 45.901489%, 26.835632%)" offset="0.492187"/><stop stop-opacity="1" stop-color="rgb(100%, 46.113586%, 26.895142%)" offset="0.496094"/><stop stop-opacity="1" stop-color="rgb(100%, 46.325684%, 26.956177%)" offset="0.5"/><stop stop-opacity="1" stop-color="rgb(100%, 46.537781%, 27.017212%)" offset="0.503906"/><stop stop-opacity="1" stop-color="rgb(100%, 46.749878%, 27.078247%)" offset="0.507812"/><stop stop-opacity="1" stop-color="rgb(100%, 46.960449%, 27.137756%)" offset="0.511719"/><stop stop-opacity="1" stop-color="rgb(100%, 47.172546%, 27.198792%)" offset="0.515625"/><stop stop-opacity="1" stop-color="rgb(100%, 47.384644%, 27.259827%)" offset="0.519531"/><stop stop-opacity="1" stop-color="rgb(100%, 47.596741%, 27.320862%)" offset="0.523438"/><stop stop-opacity="1" stop-color="rgb(100%, 47.808838%, 27.380371%)" offset="0.527344"/><stop stop-opacity="1" stop-color="rgb(100%, 48.020935%, 27.441406%)" offset="0.53125"/><stop stop-opacity="1" stop-color="rgb(100%, 48.233032%, 27.500916%)" offset="0.535156"/><stop stop-opacity="1" stop-color="rgb(100%, 48.445129%, 27.561951%)" offset="0.539062"/><stop stop-opacity="1" stop-color="rgb(100%, 48.655701%, 27.622986%)" offset="0.542969"/><stop stop-opacity="1" stop-color="rgb(100%, 48.867798%, 27.684021%)" offset="0.546875"/><stop stop-opacity="1" stop-color="rgb(100%, 49.079895%, 27.74353%)" offset="0.550781"/><stop stop-opacity="1" stop-color="rgb(100%, 49.291992%, 27.804565%)" offset="0.554688"/><stop stop-opacity="1" stop-color="rgb(100%, 49.504089%, 27.865601%)" offset="0.558594"/><stop stop-opacity="1" stop-color="rgb(100%, 49.716187%, 27.926636%)" offset="0.5625"/><stop stop-opacity="1" stop-color="rgb(100%, 49.928284%, 27.986145%)" offset="0.566406"/><stop stop-opacity="1" stop-color="rgb(100%, 50.140381%, 28.04718%)" offset="0.570313"/><stop stop-opacity="1" stop-color="rgb(100%, 50.352478%, 28.108215%)" offset="0.574219"/><stop stop-opacity="1" stop-color="rgb(100%, 50.564575%, 28.16925%)" offset="0.578125"/><stop stop-opacity="1" stop-color="rgb(100%, 50.775146%, 28.22876%)" offset="0.582031"/><stop stop-opacity="1" stop-color="rgb(100%, 50.987244%, 28.289795%)" offset="0.585938"/><stop stop-opacity="1" stop-color="rgb(100%, 51.199341%, 28.35083%)" offset="0.589844"/><stop stop-opacity="1" stop-color="rgb(100%, 51.411438%, 28.411865%)" offset="0.59375"/><stop stop-opacity="1" stop-color="rgb(100%, 51.623535%, 28.471375%)" offset="0.597656"/><stop stop-opacity="1" stop-color="rgb(100%, 51.835632%, 28.53241%)" offset="0.601562"/><stop stop-opacity="1" stop-color="rgb(100%, 52.047729%, 28.591919%)" offset="0.605469"/><stop stop-opacity="1" stop-color="rgb(100%, 52.259827%, 28.652954%)" offset="0.609375"/><stop stop-opacity="1" stop-color="rgb(100%, 52.470398%, 28.713989%)" offset="0.613281"/><stop stop-opacity="1" stop-color="rgb(100%, 52.682495%, 28.775024%)" offset="0.617188"/><stop stop-opacity="1" stop-color="rgb(100%, 52.894592%, 28.834534%)" offset="0.621094"/><stop stop-opacity="1" stop-color="rgb(100%, 53.106689%, 28.895569%)" offset="0.625"/><stop stop-opacity="1" stop-color="rgb(100%, 53.318787%, 28.956604%)" offset="0.628906"/><stop stop-opacity="1" stop-color="rgb(100%, 53.530884%, 29.017639%)" offset="0.632812"/><stop stop-opacity="1" stop-color="rgb(100%, 53.742981%, 29.077148%)" offset="0.636719"/><stop stop-opacity="1" stop-color="rgb(100%, 53.955078%, 29.138184%)" offset="0.640625"/><stop stop-opacity="1" stop-color="rgb(100%, 54.165649%, 29.199219%)" offset="0.644531"/><stop stop-opacity="1" stop-color="rgb(100%, 54.377747%, 29.260254%)" offset="0.648438"/><stop stop-opacity="1" stop-color="rgb(100%, 54.589844%, 29.319763%)" offset="0.652344"/><stop stop-opacity="1" stop-color="rgb(100%, 54.801941%, 29.380798%)" offset="0.65625"/><stop stop-opacity="1" stop-color="rgb(100%, 55.014038%, 29.440308%)" offset="0.660156"/><stop stop-opacity="1" stop-color="rgb(100%, 55.226135%, 29.501343%)" offset="0.664063"/><stop stop-opacity="1" stop-color="rgb(100%, 55.438232%, 29.562378%)" offset="0.667969"/><stop stop-opacity="1" stop-color="rgb(100%, 55.65033%, 29.623413%)" offset="0.671875"/><stop stop-opacity="1" stop-color="rgb(100%, 55.862427%, 29.682922%)" offset="0.675781"/><stop stop-opacity="1" stop-color="rgb(100%, 56.074524%, 29.743958%)" offset="0.679688"/><stop stop-opacity="1" stop-color="rgb(100%, 56.285095%, 29.804993%)" offset="0.683594"/><stop stop-opacity="1" stop-color="rgb(100%, 56.497192%, 29.866028%)" offset="0.6875"/><stop stop-opacity="1" stop-color="rgb(100%, 56.70929%, 29.925537%)" offset="0.691406"/><stop stop-opacity="1" stop-color="rgb(100%, 56.921387%, 29.986572%)" offset="0.695312"/><stop stop-opacity="1" stop-color="rgb(100%, 57.133484%, 30.047607%)" offset="0.699219"/><stop stop-opacity="1" stop-color="rgb(100%, 57.345581%, 30.108643%)" offset="0.703125"/><stop stop-opacity="1" stop-color="rgb(100%, 57.557678%, 30.168152%)" offset="0.707031"/><stop stop-opacity="1" stop-color="rgb(100%, 57.769775%, 30.229187%)" offset="0.710938"/><stop stop-opacity="1" stop-color="rgb(100%, 57.980347%, 30.288696%)" offset="0.714844"/><stop stop-opacity="1" stop-color="rgb(100%, 58.192444%, 30.349731%)" offset="0.71875"/><stop stop-opacity="1" stop-color="rgb(100%, 58.404541%, 30.410767%)" offset="0.722656"/><stop stop-opacity="1" stop-color="rgb(100%, 58.616638%, 30.471802%)" offset="0.726562"/><stop stop-opacity="1" stop-color="rgb(100%, 58.828735%, 30.531311%)" offset="0.730469"/><stop stop-opacity="1" stop-color="rgb(100%, 59.040833%, 30.592346%)" offset="0.734375"/><stop stop-opacity="1" stop-color="rgb(100%, 59.25293%, 30.653381%)" offset="0.738281"/><stop stop-opacity="1" stop-color="rgb(100%, 59.465027%, 30.714417%)" offset="0.742188"/><stop stop-opacity="1" stop-color="rgb(100%, 59.675598%, 30.773926%)" offset="0.746094"/><stop stop-opacity="1" stop-color="rgb(100%, 59.887695%, 30.834961%)" offset="0.75"/><stop stop-opacity="1" stop-color="rgb(100%, 60.099792%, 30.895996%)" offset="0.753906"/><stop stop-opacity="1" stop-color="rgb(100%, 60.31189%, 30.957031%)" offset="0.757813"/><stop stop-opacity="1" stop-color="rgb(100%, 60.523987%, 31.016541%)" offset="0.761719"/><stop stop-opacity="1" stop-color="rgb(100%, 60.736084%, 31.077576%)" offset="0.765625"/><stop stop-opacity="1" stop-color="rgb(100%, 60.948181%, 31.138611%)" offset="0.769531"/><stop stop-opacity="1" stop-color="rgb(100%, 61.160278%, 31.199646%)" offset="0.773437"/><stop stop-opacity="1" stop-color="rgb(100%, 61.372375%, 31.259155%)" offset="0.777344"/><stop stop-opacity="1" stop-color="rgb(100%, 61.584473%, 31.32019%)" offset="0.78125"/><stop stop-opacity="1" stop-color="rgb(100%, 61.795044%, 31.3797%)" offset="0.785156"/><stop stop-opacity="1" stop-color="rgb(100%, 62.007141%, 31.440735%)" offset="0.789062"/><stop stop-opacity="1" stop-color="rgb(100%, 62.219238%, 31.50177%)" offset="0.792969"/><stop stop-opacity="1" stop-color="rgb(100%, 62.431335%, 31.562805%)" offset="0.796875"/><stop stop-opacity="1" stop-color="rgb(100%, 62.643433%, 31.622314%)" offset="0.800781"/><stop stop-opacity="1" stop-color="rgb(100%, 62.85553%, 31.68335%)" offset="0.804688"/><stop stop-opacity="1" stop-color="rgb(100%, 63.067627%, 31.744385%)" offset="0.808594"/><stop stop-opacity="1" stop-color="rgb(100%, 63.279724%, 31.80542%)" offset="0.8125"/><stop stop-opacity="1" stop-color="rgb(100%, 63.490295%, 31.864929%)" offset="0.816406"/><stop stop-opacity="1" stop-color="rgb(100%, 63.702393%, 31.925964%)" offset="0.820312"/><stop stop-opacity="1" stop-color="rgb(100%, 63.91449%, 31.987%)" offset="0.824219"/><stop stop-opacity="1" stop-color="rgb(100%, 64.126587%, 32.048035%)" offset="0.828125"/><stop stop-opacity="1" stop-color="rgb(100%, 64.338684%, 32.107544%)" offset="0.832031"/><stop stop-opacity="1" stop-color="rgb(100%, 64.550781%, 32.168579%)" offset="0.835938"/><stop stop-opacity="1" stop-color="rgb(100%, 64.762878%, 32.228088%)" offset="0.839844"/><stop stop-opacity="1" stop-color="rgb(100%, 64.974976%, 32.289124%)" offset="0.84375"/><stop stop-opacity="1" stop-color="rgb(100%, 65.187073%, 32.350159%)" offset="0.847656"/><stop stop-opacity="1" stop-color="rgb(100%, 65.39917%, 32.411194%)" offset="0.851563"/><stop stop-opacity="1" stop-color="rgb(100%, 65.609741%, 32.470703%)" offset="0.855469"/><stop stop-opacity="1" stop-color="rgb(100%, 65.821838%, 32.531738%)" offset="0.859375"/><stop stop-opacity="1" stop-color="rgb(100%, 66.033936%, 32.592773%)" offset="0.863281"/><stop stop-opacity="1" stop-color="rgb(100%, 66.246033%, 32.653809%)" offset="0.867187"/><stop stop-opacity="1" stop-color="rgb(100%, 66.45813%, 32.713318%)" offset="0.871094"/><stop stop-opacity="1" stop-color="rgb(100%, 66.670227%, 32.774353%)" offset="0.875"/><stop stop-opacity="1" stop-color="rgb(100%, 66.882324%, 32.835388%)" offset="0.878906"/><stop stop-opacity="1" stop-color="rgb(100%, 67.094421%, 32.896423%)" offset="0.882812"/><stop stop-opacity="1" stop-color="rgb(100%, 67.304993%, 32.955933%)" offset="0.886719"/><stop stop-opacity="1" stop-color="rgb(100%, 67.51709%, 33.016968%)" offset="0.890625"/><stop stop-opacity="1" stop-color="rgb(100%, 67.729187%, 33.078003%)" offset="0.894531"/><stop stop-opacity="1" stop-color="rgb(100%, 67.941284%, 33.139038%)" offset="0.898438"/><stop stop-opacity="1" stop-color="rgb(100%, 68.153381%, 33.198547%)" offset="0.902344"/><stop stop-opacity="1" stop-color="rgb(100%, 68.365479%, 33.259583%)" offset="0.90625"/><stop stop-opacity="1" stop-color="rgb(100%, 68.577576%, 33.319092%)" offset="0.910156"/><stop stop-opacity="1" stop-color="rgb(100%, 68.789673%, 33.380127%)" offset="0.914062"/><stop stop-opacity="1" stop-color="rgb(100%, 69.000244%, 33.441162%)" offset="0.917969"/><stop stop-opacity="1" stop-color="rgb(100%, 69.212341%, 33.502197%)" offset="0.921875"/><stop stop-opacity="1" stop-color="rgb(100%, 69.424438%, 33.561707%)" offset="0.925781"/><stop stop-opacity="1" stop-color="rgb(100%, 69.636536%, 33.622742%)" offset="0.929688"/><stop stop-opacity="1" stop-color="rgb(100%, 69.848633%, 33.683777%)" offset="0.933594"/><stop stop-opacity="1" stop-color="rgb(100%, 70.06073%, 33.744812%)" offset="0.9375"/><stop stop-opacity="1" stop-color="rgb(100%, 70.272827%, 33.804321%)" offset="0.941406"/><stop stop-opacity="1" stop-color="rgb(100%, 70.484924%, 33.865356%)" offset="0.945313"/><stop stop-opacity="1" stop-color="rgb(100%, 70.697021%, 33.926392%)" offset="0.949219"/><stop stop-opacity="1" stop-color="rgb(100%, 70.909119%, 33.987427%)" offset="0.953125"/><stop stop-opacity="1" stop-color="rgb(100%, 71.11969%, 34.046936%)" offset="0.957031"/><stop stop-opacity="1" stop-color="rgb(100%, 71.331787%, 34.107971%)" offset="0.960937"/><stop stop-opacity="1" stop-color="rgb(100%, 71.543884%, 34.16748%)" offset="0.964844"/><stop stop-opacity="1" stop-color="rgb(100%, 71.755981%, 34.228516%)" offset="0.96875"/><stop stop-opacity="1" stop-color="rgb(100%, 71.968079%, 34.289551%)" offset="0.972656"/><stop stop-opacity="1" stop-color="rgb(100%, 72.180176%, 34.350586%)" offset="0.976562"/><stop stop-opacity="1" stop-color="rgb(100%, 72.392273%, 34.410095%)" offset="0.980469"/><stop stop-opacity="1" stop-color="rgb(100%, 72.60437%, 34.47113%)" offset="0.984375"/><stop stop-opacity="1" stop-color="rgb(100%, 72.814941%, 34.532166%)" offset="0.988281"/><stop stop-opacity="1" stop-color="rgb(100%, 73.027039%, 34.593201%)" offset="0.992188"/><stop stop-opacity="1" stop-color="rgb(100%, 73.239136%, 34.65271%)" offset="0.996094"/><stop stop-opacity="1" stop-color="rgb(100%, 73.451233%, 34.713745%)" offset="1"/></linearGradient><mask id="bce00e99a2"><g filter="url(#74109a9b96)"><rect x="-37.5" width="450" fill="#000000" y="-37.499999" height="449.999989" fill-opacity="0.3294"/></g></mask><clipPath id="08dbcac091"><path d="M 1 19 L 236.414062 19 L 236.414062 248 L 1 248 Z M 1 19 " clip-rule="nonzero"/></clipPath><clipPath id="62fe9e6efc"><path d="M 107 135 L 196 135 L 196 250.703125 L 107 250.703125 Z M 107 135 " clip-rule="nonzero"/></clipPath><clipPath id="1b96be3392"><rect x="0" width="237" y="0" height="252"/></clipPath><clipPath id="88c8860143"><path d="M 70 81 L 305.414062 81 L 305.414062 309 L 70 309 Z M 70 81 " clip-rule="nonzero"/></clipPath><clipPath id="8eb57c92a1"><path d="M 176 197 L 265 197 L 265 312.574219 L 176 312.574219 Z M 176 197 " clip-rule="nonzero"/></clipPath></defs><g clip-path="url(#0fa60ba95e)"><g clip-path="url(#7f0c026a74)"><path fill="url(#a7c3c96f84)" d="M 6.660156 6.660156 L 6.660156 368.160156 L 368.160156 368.160156 L 368.160156 6.660156 Z M 6.660156 6.660156 " fill-rule="nonzero"/></g></g><g mask="url(#bce00e99a2)"><g transform="matrix(1, 0, 0, 1, 69, 69)"><g clip-path="url(#1b96be3392)"><path fill="#000000" d="M 98.46875 160.714844 L 59.117188 171.222656 C 57.3125 171.71875 55.863281 173.800781 55.863281 175.863281 L 55.863281 200.347656 C 55.863281 202.402344 57.3125 203.707031 59.117188 203.226562 L 98.429688 192.726562 L 98.429688 183.660156 L 65.816406 192.378906 L 65.816406 178.476562 L 98.449219 169.757812 Z M 179.820312 139.269531 C 179.429688 139.1875 179 139.1875 178.546875 139.3125 L 153.421875 146.03125 L 163.972656 152.261719 L 171.894531 150.132812 L 171.894531 156.929688 L 181.824219 162.8125 L 181.824219 142.214844 C 181.824219 140.664062 181.007812 139.539062 179.820312 139.269531 Z M 179.820312 139.269531 " fill-opacity="1" fill-rule="evenodd"/><g clip-path="url(#08dbcac091)"><path fill="#000000" d="M 57.523438 61.683594 L 25.453125 70.261719 C 12.289062 73.773438 1.5 87.351562 1.5 100.519531 L 1.5 228.785156 C 1.5 241.933594 12.292969 249.773438 25.453125 246.261719 L 101.539062 225.921875 C 99.226562 222.679688 98.382812 220.269531 98.382812 216.800781 L 25.453125 236.285156 C 17.613281 238.382812 11.511719 233.894531 11.511719 226.105469 L 11.511719 97.84375 C 11.511719 90.066406 17.613281 82.332031 25.453125 80.222656 L 57.523438 71.671875 Z M 219.355469 19.523438 C 217.101562 19.425781 214.707031 19.691406 212.25 20.339844 L 180.1875 28.914062 L 180.1875 38.898438 L 212.25 30.320312 C 220.074219 28.238281 226.195312 32.707031 226.195312 40.492188 L 226.195312 168.757812 C 226.195312 176.53125 220.074219 184.273438 212.25 186.375 L 202.730469 188.910156 L 197.546875 200.28125 L 212.25 196.339844 C 225.414062 192.828125 236.203125 179.214844 236.203125 166.082031 L 236.203125 37.816406 C 236.207031 27.117188 229.082031 19.953125 219.355469 19.523438 Z M 219.355469 19.523438 " fill-opacity="1" fill-rule="evenodd"/></g><path fill="#000000" d="M 118.847656 3.5 C 92.617188 10.496094 71.363281 37.390625 71.363281 63.523438 C 71.363281 76.078125 76.359375 86.820312 85.265625 93.316406 C 94.175781 99.804688 106.25 101.582031 118.847656 98.21875 C 131.4375 94.847656 143.539062 86.617188 152.445312 75.371094 C 161.351562 64.097656 166.34375 50.726562 166.34375 38.148438 C 166.34375 25.589844 161.347656 14.886719 152.421875 8.378906 C 143.515625 1.882812 131.4375 0.125 118.847656 3.5 Z M 120.132812 22.703125 C 120.953125 22.523438 121.75 22.425781 122.527344 22.402344 C 129.019531 22.238281 132.992188 27.726562 131.4375 34.667969 C 129.898438 41.613281 123.390625 47.394531 116.921875 47.554688 C 110.429688 47.738281 106.4375 42.25 107.992188 35.289062 C 109.320312 29.324219 114.402344 24.03125 120.132812 22.703125 Z M 107.625 58.417969 L 130.085938 52.414062 C 135.304688 51.003906 139.996094 53.113281 141.492188 57.460938 L 143.359375 62.867188 C 145.242188 68.402344 140.53125 73.140625 133.941406 76.566406 C 123.945312 81.792969 113.992188 84.46875 103.78125 84.613281 C 97.183594 84.738281 92.4375 82.511719 94.363281 75.980469 L 96.246094 69.542969 C 97.710938 64.398438 102.402344 59.804688 107.625 58.417969 Z M 107.625 58.417969 " fill-opacity="1" fill-rule="evenodd"/><path fill="#000000" d="M 179.820312 92.476562 C 179.429688 92.394531 179 92.414062 178.546875 92.515625 L 59.121094 124.425781 C 57.316406 124.9375 55.867188 127.003906 55.867188 129.082031 L 55.867188 153.542969 C 55.867188 155.601562 57.316406 156.90625 59.121094 156.414062 L 99.582031 145.617188 L 104.558594 135.230469 L 65.820312 145.578125 L 65.820312 131.691406 L 171.898438 103.355469 L 171.898438 117.234375 L 125.648438 129.597656 L 136.1875 135.839844 L 178.550781 124.53125 C 180.355469 124.039062 181.828125 121.960938 181.828125 119.894531 L 181.828125 95.414062 C 181.824219 93.867188 181.007812 92.742188 179.820312 92.476562 Z M 179.820312 92.476562 " fill-opacity="1" fill-rule="evenodd"/><g clip-path="url(#62fe9e6efc)"><path fill="#000000" d="M 121.242188 146.886719 L 183.078125 181.722656 L 166.695312 186.992188 C 164.398438 187.726562 163.355469 190.398438 164.539062 192.484375 L 182.398438 223.960938 L 163.320312 229.417969 L 143.113281 196.050781 C 142.230469 194.585938 140.445312 193.871094 138.785156 194.355469 L 121.382812 199.625 Z M 114.09375 137.820312 L 108.035156 150.464844 C 107.804688 150.953125 107.6875 151.480469 107.6875 152.035156 L 107.605469 217.304688 C 107.5625 219.878906 110.042969 221.753906 112.5 221.023438 L 132.050781 215.140625 L 152.265625 248.507812 C 153.164062 249.976562 154.941406 250.652344 156.625 250.160156 L 183.113281 242.5625 C 184.160156 242.253906 185.023438 241.519531 185.488281 240.542969 L 191.402344 228.125 C 192.078125 226.964844 192.078125 225.554688 191.402344 224.386719 L 178.667969 202.546875 L 186.554688 200.417969 C 187.578125 200.136719 188.316406 198.972656 188.746094 198.007812 L 194.742188 184.824219 L 194.761719 184.800781 C 194.78125 184.78125 194.78125 184.757812 194.800781 184.722656 C 195.574219 183.082031 195.089844 181.121094 193.632812 180.019531 L 119.804688 136.390625 C 117.289062 134.878906 115.035156 135.882812 114.09375 137.820312 Z M 114.09375 137.820312 " fill-opacity="1" fill-rule="nonzero"/></g></g></g></g><path fill="#ffffff" d="M 167.46875 222.585938 L 128.117188 233.097656 C 126.3125 233.589844 124.863281 235.671875 124.863281 237.734375 L 124.863281 262.21875 C 124.863281 264.273438 126.3125 265.578125 128.117188 265.097656 L 167.429688 254.597656 L 167.429688 245.53125 L 134.816406 254.25 L 134.816406 240.347656 L 167.449219 231.632812 Z M 248.820312 201.144531 C 248.429688 201.0625 248 201.0625 247.546875 201.1875 L 222.421875 207.902344 L 232.972656 214.136719 L 240.894531 212.007812 L 240.894531 218.804688 L 250.824219 224.683594 L 250.824219 204.085938 C 250.824219 202.535156 250.007812 201.410156 248.820312 201.144531 Z M 248.820312 201.144531 " fill-opacity="1" fill-rule="evenodd"/><g clip-path="url(#88c8860143)"><path fill="#ffffff" d="M 126.523438 123.554688 L 94.453125 132.132812 C 81.289062 135.644531 70.5 149.226562 70.5 162.394531 L 70.5 290.65625 C 70.5 303.804688 81.292969 311.644531 94.453125 308.132812 L 170.539062 287.796875 C 168.226562 284.554688 167.382812 282.140625 167.382812 278.671875 L 94.453125 298.15625 C 86.613281 300.253906 80.511719 295.769531 80.511719 287.980469 L 80.511719 159.714844 C 80.511719 151.9375 86.613281 144.203125 94.453125 142.09375 L 126.523438 133.542969 Z M 288.355469 81.398438 C 286.101562 81.300781 283.707031 81.5625 281.25 82.214844 L 249.1875 90.785156 L 249.1875 100.769531 L 281.25 92.195312 C 289.074219 90.113281 295.195312 94.582031 295.195312 102.367188 L 295.195312 230.632812 C 295.195312 238.40625 289.074219 246.148438 281.25 248.25 L 271.730469 250.78125 L 266.546875 262.152344 L 281.25 258.214844 C 294.414062 254.703125 305.203125 241.085938 305.203125 227.953125 L 305.203125 99.6875 C 305.207031 88.992188 298.082031 81.824219 288.355469 81.398438 Z M 288.355469 81.398438 " fill-opacity="1" fill-rule="evenodd"/></g><path fill="#ffffff" d="M 187.847656 65.371094 C 161.617188 72.371094 140.363281 99.261719 140.363281 125.398438 C 140.363281 137.949219 145.359375 148.691406 154.265625 155.1875 C 163.175781 161.679688 175.25 163.453125 187.847656 160.089844 C 200.4375 156.71875 212.539062 148.492188 221.445312 137.246094 C 230.351562 125.96875 235.34375 112.597656 235.34375 100.023438 C 235.34375 87.460938 230.347656 76.761719 221.421875 70.253906 C 212.515625 63.757812 200.4375 61.996094 187.847656 65.371094 Z M 189.132812 84.578125 C 189.953125 84.398438 190.75 84.296875 191.527344 84.273438 C 198.019531 84.109375 201.992188 89.597656 200.4375 96.542969 C 198.898438 103.488281 192.390625 109.265625 185.921875 109.425781 C 179.429688 109.609375 175.4375 104.121094 176.992188 97.160156 C 178.320312 91.199219 183.402344 85.90625 189.132812 84.578125 Z M 176.625 120.289062 L 199.085938 114.289062 C 204.304688 112.875 208.996094 114.984375 210.492188 119.332031 L 212.359375 124.738281 C 214.242188 130.273438 209.53125 135.015625 202.941406 138.441406 C 192.945312 143.664062 182.992188 146.34375 172.78125 146.484375 C 166.183594 146.609375 161.4375 144.382812 163.363281 137.851562 L 165.246094 131.414062 C 166.710938 126.273438 171.402344 121.675781 176.625 120.289062 Z M 176.625 120.289062 " fill-opacity="1" fill-rule="evenodd"/><path fill="#ffffff" d="M 248.820312 154.347656 C 248.429688 154.265625 248 154.285156 247.546875 154.386719 L 128.121094 186.296875 C 126.316406 186.8125 124.867188 188.878906 124.867188 190.957031 L 124.867188 215.417969 C 124.867188 217.476562 126.316406 218.78125 128.121094 218.285156 L 168.582031 207.492188 L 173.558594 197.101562 L 134.820312 207.453125 L 134.820312 193.566406 L 240.898438 165.226562 L 240.898438 179.109375 L 194.648438 191.46875 L 205.1875 197.714844 L 247.550781 186.402344 C 249.355469 185.914062 250.828125 183.832031 250.828125 181.765625 L 250.828125 157.289062 C 250.824219 155.738281 250.007812 154.613281 248.820312 154.347656 Z M 248.820312 154.347656 " fill-opacity="1" fill-rule="evenodd"/><g clip-path="url(#8eb57c92a1)"><path fill="#ffffff" d="M 190.242188 208.761719 L 252.078125 243.59375 L 235.695312 248.863281 C 233.398438 249.601562 232.355469 252.269531 233.539062 254.355469 L 251.398438 285.835938 L 232.320312 291.292969 L 212.113281 257.921875 C 211.230469 256.457031 209.445312 255.742188 207.785156 256.230469 L 190.382812 261.5 Z M 183.09375 199.691406 L 177.035156 212.335938 C 176.804688 212.824219 176.6875 213.355469 176.6875 213.90625 L 176.605469 279.179688 C 176.5625 281.75 179.042969 283.628906 181.5 282.894531 L 201.050781 277.015625 L 221.265625 310.378906 C 222.164062 311.851562 223.941406 312.523438 225.625 312.035156 L 252.113281 304.4375 C 253.160156 304.125 254.023438 303.394531 254.488281 302.414062 L 260.402344 290 C 261.078125 288.839844 261.078125 287.425781 260.402344 286.257812 L 247.667969 264.417969 L 255.554688 262.289062 C 256.578125 262.007812 257.316406 260.84375 257.746094 259.878906 L 263.742188 246.695312 L 263.761719 246.671875 C 263.78125 246.652344 263.78125 246.628906 263.800781 246.59375 C 264.574219 244.957031 264.089844 242.996094 262.632812 241.894531 L 188.804688 198.261719 C 186.289062 196.753906 184.035156 197.757812 183.09375 199.691406 Z M 183.09375 199.691406 " fill-opacity="1" fill-rule="nonzero"/></g></svg>