<svg xmlns="http://www.w3.org/2000/svg" xmlns:xlink="http://www.w3.org/1999/xlink" width="500" zoomAndPan="magnify" viewBox="0 0 375 374.999991" height="500" preserveAspectRatio="xMidYMid meet" version="1.0"><defs><filter x="0%" y="0%" width="100%" height="100%" id="c1c2712b4d"><feColorMatrix values="0 0 0 0 1 0 0 0 0 1 0 0 0 0 1 0 0 0 1 0" color-interpolation-filters="sRGB"/></filter><clipPath id="316524a77f"><path d="M 6.660156 6.660156 L 368.160156 6.660156 L 368.160156 368.160156 L 6.660156 368.160156 Z M 6.660156 6.660156 " clip-rule="nonzero"/></clipPath><clipPath id="be3bb1a956"><path d="M 368.160156 187.410156 C 368.160156 190.371094 368.089844 193.324219 367.945312 196.28125 C 367.796875 199.234375 367.582031 202.183594 367.289062 205.128906 C 367 208.070312 366.640625 211.007812 366.203125 213.933594 C 365.769531 216.859375 365.265625 219.773438 364.6875 222.671875 C 364.109375 225.574219 363.464844 228.460938 362.746094 231.328125 C 362.027344 234.199219 361.238281 237.050781 360.378906 239.878906 C 359.519531 242.710938 358.589844 245.519531 357.59375 248.304688 C 356.597656 251.089844 355.535156 253.847656 354.402344 256.582031 C 353.269531 259.3125 352.070312 262.019531 350.808594 264.691406 C 349.542969 267.367188 348.210938 270.007812 346.820312 272.617188 C 345.425781 275.226562 343.964844 277.796875 342.445312 280.335938 C 340.925781 282.871094 339.34375 285.371094 337.699219 287.832031 C 336.054688 290.289062 334.351562 292.707031 332.589844 295.082031 C 330.828125 297.460938 329.007812 299.792969 327.132812 302.078125 C 325.257812 304.363281 323.324219 306.605469 321.339844 308.796875 C 319.351562 310.988281 317.3125 313.128906 315.222656 315.21875 C 313.128906 317.3125 310.988281 319.351562 308.796875 321.339844 C 306.605469 323.324219 304.363281 325.257812 302.078125 327.132812 C 299.792969 329.007812 297.460938 330.828125 295.082031 332.589844 C 292.707031 334.351562 290.289062 336.054688 287.832031 337.699219 C 285.371094 339.34375 282.871094 340.925781 280.335938 342.445312 C 277.796875 343.964844 275.226562 345.425781 272.617188 346.820312 C 270.007812 348.210938 267.367188 349.542969 264.691406 350.808594 C 262.019531 352.070312 259.3125 353.269531 256.582031 354.402344 C 253.847656 355.535156 251.089844 356.597656 248.304688 357.59375 C 245.519531 358.589844 242.710938 359.519531 239.878906 360.378906 C 237.050781 361.238281 234.199219 362.027344 231.328125 362.746094 C 228.460938 363.464844 225.574219 364.109375 222.671875 364.6875 C 219.773438 365.265625 216.859375 365.769531 213.933594 366.203125 C 211.007812 366.640625 208.070312 367 205.128906 367.289062 C 202.183594 367.582031 199.234375 367.796875 196.28125 367.945312 C 193.324219 368.089844 190.371094 368.160156 187.410156 368.160156 C 184.453125 368.160156 181.496094 368.089844 178.542969 367.945312 C 175.585938 367.796875 172.636719 367.582031 169.695312 367.289062 C 166.75 367 163.816406 366.640625 160.890625 366.203125 C 157.964844 365.769531 155.050781 365.265625 152.148438 364.6875 C 149.246094 364.109375 146.363281 363.464844 143.492188 362.746094 C 140.625 362.027344 137.773438 361.238281 134.941406 360.378906 C 132.113281 359.519531 129.304688 358.589844 126.519531 357.59375 C 123.734375 356.597656 120.972656 355.535156 118.242188 354.402344 C 115.507812 353.269531 112.804688 352.070312 110.128906 350.808594 C 107.457031 349.542969 104.816406 348.210938 102.207031 346.820312 C 99.597656 345.425781 97.023438 343.964844 94.488281 342.445312 C 91.949219 340.925781 89.453125 339.34375 86.992188 337.699219 C 84.53125 336.054688 82.113281 334.351562 79.738281 332.589844 C 77.363281 330.828125 75.03125 329.007812 72.746094 327.132812 C 70.457031 325.257812 68.21875 323.324219 66.027344 321.339844 C 63.835938 319.351562 61.691406 317.3125 59.601562 315.21875 C 57.511719 313.128906 55.472656 310.988281 53.484375 308.796875 C 51.496094 306.605469 49.566406 304.363281 47.691406 302.078125 C 45.8125 299.792969 43.992188 297.460938 42.230469 295.082031 C 40.46875 292.707031 38.765625 290.289062 37.125 287.832031 C 35.480469 285.371094 33.898438 282.871094 32.375 280.335938 C 30.855469 277.796875 29.398438 275.226562 28.003906 272.617188 C 26.609375 270.007812 25.28125 267.367188 24.015625 264.691406 C 22.75 262.019531 21.550781 259.3125 20.421875 256.582031 C 19.289062 253.847656 18.222656 251.089844 17.226562 248.304688 C 16.230469 245.519531 15.304688 242.710938 14.445312 239.878906 C 13.585938 237.050781 12.796875 234.199219 12.078125 231.328125 C 11.359375 228.460938 10.710938 225.574219 10.132812 222.671875 C 9.558594 219.773438 9.050781 216.859375 8.617188 213.933594 C 8.183594 211.007812 7.820312 208.070312 7.53125 205.128906 C 7.242188 202.183594 7.023438 199.234375 6.878906 196.28125 C 6.734375 193.324219 6.660156 190.371094 6.660156 187.410156 C 6.660156 184.453125 6.734375 181.496094 6.878906 178.542969 C 7.023438 175.585938 7.242188 172.636719 7.53125 169.695312 C 7.820312 166.75 8.183594 163.816406 8.617188 160.890625 C 9.050781 157.964844 9.558594 155.050781 10.132812 152.148438 C 10.710938 149.246094 11.359375 146.363281 12.078125 143.492188 C 12.796875 140.621094 13.585938 137.773438 14.445312 134.941406 C 15.304688 132.113281 16.230469 129.304688 17.226562 126.519531 C 18.222656 123.734375 19.289062 120.972656 20.421875 118.242188 C 21.550781 115.507812 22.75 112.804688 24.015625 110.128906 C 25.28125 107.457031 26.609375 104.816406 28.003906 102.207031 C 29.398438 99.597656 30.855469 97.023438 32.375 94.488281 C 33.898438 91.949219 35.480469 89.453125 37.125 86.992188 C 38.765625 84.53125 40.46875 82.113281 42.230469 79.738281 C 43.992188 77.363281 45.8125 75.03125 47.691406 72.746094 C 49.566406 70.457031 51.496094 68.21875 53.484375 66.027344 C 55.472656 63.835938 57.511719 61.691406 59.601562 59.601562 C 61.691406 57.511719 63.835938 55.472656 66.027344 53.484375 C 68.21875 51.496094 70.457031 49.566406 72.746094 47.691406 C 75.03125 45.8125 77.363281 43.992188 79.738281 42.230469 C 82.113281 40.46875 84.53125 38.765625 86.992188 37.121094 C 89.453125 35.480469 91.949219 33.898438 94.488281 32.375 C 97.023438 30.855469 99.597656 29.398438 102.207031 28.003906 C 104.816406 26.609375 107.457031 25.28125 110.128906 24.015625 C 112.804688 22.75 115.507812 21.550781 118.242188 20.421875 C 120.972656 19.289062 123.734375 18.222656 126.519531 17.226562 C 129.304688 16.230469 132.113281 15.304688 134.941406 14.445312 C 137.773438 13.585938 140.625 12.796875 143.492188 12.078125 C 146.363281 11.359375 149.246094 10.710938 152.148438 10.132812 C 155.050781 9.558594 157.964844 9.050781 160.890625 8.617188 C 163.816406 8.183594 166.75 7.820312 169.695312 7.53125 C 172.636719 7.242188 175.585938 7.023438 178.542969 6.878906 C 181.496094 6.734375 184.453125 6.660156 187.410156 6.660156 C 190.371094 6.660156 193.324219 6.734375 196.28125 6.878906 C 199.234375 7.023438 202.183594 7.242188 205.128906 7.53125 C 208.070312 7.820312 211.007812 8.183594 213.933594 8.617188 C 216.859375 9.050781 219.773438 9.558594 222.671875 10.132812 C 225.574219 10.710938 228.460938 11.359375 231.328125 12.078125 C 234.199219 12.796875 237.050781 13.585938 239.878906 14.445312 C 242.710938 15.304688 245.519531 16.230469 248.304688 17.226562 C 251.089844 18.222656 253.847656 19.289062 256.582031 20.421875 C 259.3125 21.550781 262.019531 22.75 264.691406 24.015625 C 267.367188 25.28125 270.007812 26.609375 272.617188 28.003906 C 275.226562 29.398438 277.796875 30.855469 280.335938 32.375 C 282.871094 33.898438 285.371094 35.480469 287.832031 37.121094 C 290.289062 38.765625 292.707031 40.46875 295.082031 42.230469 C 297.460938 43.992188 299.792969 45.8125 302.078125 47.691406 C 304.363281 49.566406 306.605469 51.496094 308.796875 53.484375 C 310.988281 55.472656 313.128906 57.511719 315.222656 59.601562 C 317.3125 61.691406 319.351562 63.835938 321.339844 66.027344 C 323.324219 68.21875 325.257812 70.457031 327.132812 72.746094 C 329.007812 75.03125 330.828125 77.363281 332.589844 79.738281 C 334.351562 82.113281 336.054688 84.53125 337.699219 86.992188 C 339.34375 89.453125 340.925781 91.949219 342.445312 94.488281 C 343.964844 97.023438 345.425781 99.597656 346.820312 102.207031 C 348.210938 104.816406 349.542969 107.457031 350.808594 110.128906 C 352.070312 112.804688 353.269531 115.507812 354.402344 118.242188 C 355.535156 120.972656 356.597656 123.734375 357.59375 126.519531 C 358.589844 129.304688 359.519531 132.113281 360.378906 134.941406 C 361.238281 137.773438 362.027344 140.621094 362.746094 143.492188 C 363.464844 146.363281 364.109375 149.246094 364.6875 152.148438 C 365.265625 155.050781 365.769531 157.964844 366.203125 160.890625 C 366.640625 163.816406 367 166.75 367.289062 169.695312 C 367.582031 172.636719 367.796875 175.585938 367.945312 178.542969 C 368.089844 181.496094 368.160156 184.453125 368.160156 187.410156 Z M 368.160156 187.410156 " clip-rule="nonzero"/></clipPath><linearGradient x1="0.00000000235883" gradientTransform="matrix(361.500021, 0, 0, 361.500021, 6.661189, 6.66117)" y1="0.00000000233571" x2="1.004902" gradientUnits="userSpaceOnUse" y2="0.995049" id="8097a7d006"><stop stop-opacity="1" stop-color="rgb(0%, 23.899841%, 64.698792%)" offset="0"/><stop stop-opacity="1" stop-color="rgb(0%, 24.035645%, 64.718628%)" offset="0.0078125"/><stop stop-opacity="1" stop-color="rgb(0%, 24.307251%, 64.758301%)" offset="0.015625"/><stop stop-opacity="1" stop-color="rgb(0%, 24.580383%, 64.797974%)" offset="0.0234375"/><stop stop-opacity="1" stop-color="rgb(0%, 24.85199%, 64.837646%)" offset="0.03125"/><stop stop-opacity="1" stop-color="rgb(0%, 25.125122%, 64.875793%)" offset="0.0390625"/><stop stop-opacity="1" stop-color="rgb(0%, 25.398254%, 64.915466%)" offset="0.046875"/><stop stop-opacity="1" stop-color="rgb(0%, 25.669861%, 64.955139%)" offset="0.0546875"/><stop stop-opacity="1" stop-color="rgb(0%, 25.942993%, 64.994812%)" offset="0.0625"/><stop stop-opacity="1" stop-color="rgb(0%, 26.2146%, 65.034485%)" offset="0.0703125"/><stop stop-opacity="1" stop-color="rgb(0%, 26.487732%, 65.072632%)" offset="0.078125"/><stop stop-opacity="1" stop-color="rgb(0%, 26.760864%, 65.112305%)" offset="0.0859375"/><stop stop-opacity="1" stop-color="rgb(0%, 27.032471%, 65.151978%)" offset="0.09375"/><stop stop-opacity="1" stop-color="rgb(0%, 27.305603%, 65.19165%)" offset="0.101562"/><stop stop-opacity="1" stop-color="rgb(0%, 27.577209%, 65.231323%)" offset="0.109375"/><stop stop-opacity="1" stop-color="rgb(0%, 27.850342%, 65.26947%)" offset="0.117187"/><stop stop-opacity="1" stop-color="rgb(0%, 28.123474%, 65.309143%)" offset="0.125"/><stop stop-opacity="1" stop-color="rgb(0%, 28.395081%, 65.348816%)" offset="0.132812"/><stop stop-opacity="1" stop-color="rgb(0%, 28.668213%, 65.388489%)" offset="0.140625"/><stop stop-opacity="1" stop-color="rgb(0%, 28.939819%, 65.428162%)" offset="0.148438"/><stop stop-opacity="1" stop-color="rgb(0%, 29.212952%, 65.466309%)" offset="0.15625"/><stop stop-opacity="1" stop-color="rgb(0%, 29.486084%, 65.505981%)" offset="0.164062"/><stop stop-opacity="1" stop-color="rgb(0%, 29.75769%, 65.545654%)" offset="0.171875"/><stop stop-opacity="1" stop-color="rgb(0%, 30.030823%, 65.585327%)" offset="0.179687"/><stop stop-opacity="1" stop-color="rgb(0%, 30.302429%, 65.625%)" offset="0.1875"/><stop stop-opacity="1" stop-color="rgb(0%, 30.575562%, 65.663147%)" offset="0.195312"/><stop stop-opacity="1" stop-color="rgb(0%, 30.848694%, 65.70282%)" offset="0.203125"/><stop stop-opacity="1" stop-color="rgb(0%, 31.1203%, 65.742493%)" offset="0.210937"/><stop stop-opacity="1" stop-color="rgb(0%, 31.393433%, 65.782166%)" offset="0.21875"/><stop stop-opacity="1" stop-color="rgb(0%, 31.666565%, 65.821838%)" offset="0.226562"/><stop stop-opacity="1" stop-color="rgb(0%, 31.938171%, 65.859985%)" offset="0.234375"/><stop stop-opacity="1" stop-color="rgb(0%, 32.211304%, 65.899658%)" offset="0.242188"/><stop stop-opacity="1" stop-color="rgb(0%, 32.48291%, 65.939331%)" offset="0.25"/><stop stop-opacity="1" stop-color="rgb(0%, 32.756042%, 65.979004%)" offset="0.257812"/><stop stop-opacity="1" stop-color="rgb(0%, 33.029175%, 66.018677%)" offset="0.265625"/><stop stop-opacity="1" stop-color="rgb(0%, 33.300781%, 66.056824%)" offset="0.273438"/><stop stop-opacity="1" stop-color="rgb(0%, 33.573914%, 66.096497%)" offset="0.28125"/><stop stop-opacity="1" stop-color="rgb(0%, 33.84552%, 66.136169%)" offset="0.289062"/><stop stop-opacity="1" stop-color="rgb(0%, 34.118652%, 66.175842%)" offset="0.296875"/><stop stop-opacity="1" stop-color="rgb(0%, 34.391785%, 66.215515%)" offset="0.304688"/><stop stop-opacity="1" stop-color="rgb(0%, 34.663391%, 66.253662%)" offset="0.3125"/><stop stop-opacity="1" stop-color="rgb(0%, 34.936523%, 66.293335%)" offset="0.320312"/><stop stop-opacity="1" stop-color="rgb(0%, 35.20813%, 66.333008%)" offset="0.328125"/><stop stop-opacity="1" stop-color="rgb(0%, 35.481262%, 66.372681%)" offset="0.335938"/><stop stop-opacity="1" stop-color="rgb(0%, 35.754395%, 66.412354%)" offset="0.34375"/><stop stop-opacity="1" stop-color="rgb(0%, 36.026001%, 66.4505%)" offset="0.351562"/><stop stop-opacity="1" stop-color="rgb(0%, 36.299133%, 66.490173%)" offset="0.359375"/><stop stop-opacity="1" stop-color="rgb(0%, 36.57074%, 66.529846%)" offset="0.367188"/><stop stop-opacity="1" stop-color="rgb(0%, 36.843872%, 66.569519%)" offset="0.375"/><stop stop-opacity="1" stop-color="rgb(0%, 37.117004%, 66.609192%)" offset="0.382812"/><stop stop-opacity="1" stop-color="rgb(0%, 37.388611%, 66.647339%)" offset="0.390625"/><stop stop-opacity="1" stop-color="rgb(0%, 37.661743%, 66.687012%)" offset="0.398437"/><stop stop-opacity="1" stop-color="rgb(0%, 37.93335%, 66.726685%)" offset="0.40625"/><stop stop-opacity="1" stop-color="rgb(0%, 38.206482%, 66.766357%)" offset="0.414062"/><stop stop-opacity="1" stop-color="rgb(0%, 38.479614%, 66.80603%)" offset="0.421875"/><stop stop-opacity="1" stop-color="rgb(0%, 38.751221%, 66.845703%)" offset="0.429688"/><stop stop-opacity="1" stop-color="rgb(0%, 39.024353%, 66.88385%)" offset="0.4375"/><stop stop-opacity="1" stop-color="rgb(0%, 39.295959%, 66.923523%)" offset="0.445312"/><stop stop-opacity="1" stop-color="rgb(0%, 39.569092%, 66.963196%)" offset="0.453125"/><stop stop-opacity="1" stop-color="rgb(0%, 39.842224%, 67.002869%)" offset="0.460938"/><stop stop-opacity="1" stop-color="rgb(0%, 40.113831%, 67.042542%)" offset="0.46875"/><stop stop-opacity="1" stop-color="rgb(0%, 40.386963%, 67.080688%)" offset="0.476562"/><stop stop-opacity="1" stop-color="rgb(0%, 40.658569%, 67.120361%)" offset="0.484375"/><stop stop-opacity="1" stop-color="rgb(0%, 40.931702%, 67.160034%)" offset="0.492187"/><stop stop-opacity="1" stop-color="rgb(0%, 41.204834%, 67.199707%)" offset="0.497537"/><stop stop-opacity="1" stop-color="rgb(0%, 41.340637%, 67.219543%)" offset="0.5"/><stop stop-opacity="1" stop-color="rgb(0%, 41.47644%, 67.23938%)" offset="0.502463"/><stop stop-opacity="1" stop-color="rgb(0%, 41.61377%, 67.259216%)" offset="0.507812"/><stop stop-opacity="1" stop-color="rgb(0%, 41.749573%, 67.277527%)" offset="0.515625"/><stop stop-opacity="1" stop-color="rgb(0%, 42.021179%, 67.3172%)" offset="0.523438"/><stop stop-opacity="1" stop-color="rgb(0%, 42.294312%, 67.356873%)" offset="0.53125"/><stop stop-opacity="1" stop-color="rgb(0%, 42.567444%, 67.396545%)" offset="0.539062"/><stop stop-opacity="1" stop-color="rgb(0%, 42.83905%, 67.436218%)" offset="0.546875"/><stop stop-opacity="1" stop-color="rgb(0%, 43.112183%, 67.474365%)" offset="0.554688"/><stop stop-opacity="1" stop-color="rgb(0%, 43.383789%, 67.514038%)" offset="0.5625"/><stop stop-opacity="1" stop-color="rgb(0%, 43.656921%, 67.553711%)" offset="0.570313"/><stop stop-opacity="1" stop-color="rgb(0%, 43.930054%, 67.593384%)" offset="0.578125"/><stop stop-opacity="1" stop-color="rgb(0%, 44.20166%, 67.633057%)" offset="0.585938"/><stop stop-opacity="1" stop-color="rgb(0%, 44.474792%, 67.671204%)" offset="0.59375"/><stop stop-opacity="1" stop-color="rgb(0%, 44.746399%, 67.710876%)" offset="0.601562"/><stop stop-opacity="1" stop-color="rgb(0%, 45.019531%, 67.750549%)" offset="0.609375"/><stop stop-opacity="1" stop-color="rgb(0%, 45.292664%, 67.790222%)" offset="0.617188"/><stop stop-opacity="1" stop-color="rgb(0%, 45.56427%, 67.829895%)" offset="0.625"/><stop stop-opacity="1" stop-color="rgb(0%, 45.837402%, 67.868042%)" offset="0.632812"/><stop stop-opacity="1" stop-color="rgb(0%, 46.109009%, 67.907715%)" offset="0.640625"/><stop stop-opacity="1" stop-color="rgb(0%, 46.382141%, 67.947388%)" offset="0.648438"/><stop stop-opacity="1" stop-color="rgb(0%, 46.655273%, 67.987061%)" offset="0.65625"/><stop stop-opacity="1" stop-color="rgb(0%, 46.92688%, 68.026733%)" offset="0.664063"/><stop stop-opacity="1" stop-color="rgb(0%, 47.200012%, 68.06488%)" offset="0.671875"/><stop stop-opacity="1" stop-color="rgb(0%, 47.473145%, 68.104553%)" offset="0.679688"/><stop stop-opacity="1" stop-color="rgb(0%, 47.744751%, 68.144226%)" offset="0.6875"/><stop stop-opacity="1" stop-color="rgb(0%, 48.017883%, 68.183899%)" offset="0.695312"/><stop stop-opacity="1" stop-color="rgb(0%, 48.28949%, 68.223572%)" offset="0.703125"/><stop stop-opacity="1" stop-color="rgb(0%, 48.562622%, 68.261719%)" offset="0.710938"/><stop stop-opacity="1" stop-color="rgb(0%, 48.835754%, 68.301392%)" offset="0.71875"/><stop stop-opacity="1" stop-color="rgb(0%, 49.107361%, 68.341064%)" offset="0.726562"/><stop stop-opacity="1" stop-color="rgb(0%, 49.380493%, 68.380737%)" offset="0.734375"/><stop stop-opacity="1" stop-color="rgb(0%, 49.6521%, 68.42041%)" offset="0.742188"/><stop stop-opacity="1" stop-color="rgb(0%, 49.925232%, 68.458557%)" offset="0.75"/><stop stop-opacity="1" stop-color="rgb(0%, 50.198364%, 68.49823%)" offset="0.757813"/><stop stop-opacity="1" stop-color="rgb(0%, 50.469971%, 68.537903%)" offset="0.765625"/><stop stop-opacity="1" stop-color="rgb(0%, 50.743103%, 68.577576%)" offset="0.773437"/><stop stop-opacity="1" stop-color="rgb(0%, 51.014709%, 68.617249%)" offset="0.78125"/><stop stop-opacity="1" stop-color="rgb(0%, 51.287842%, 68.655396%)" offset="0.789062"/><stop stop-opacity="1" stop-color="rgb(0%, 51.560974%, 68.695068%)" offset="0.796875"/><stop stop-opacity="1" stop-color="rgb(0%, 51.832581%, 68.734741%)" offset="0.804688"/><stop stop-opacity="1" stop-color="rgb(0%, 52.105713%, 68.774414%)" offset="0.8125"/><stop stop-opacity="1" stop-color="rgb(0%, 52.377319%, 68.814087%)" offset="0.820312"/><stop stop-opacity="1" stop-color="rgb(0%, 52.650452%, 68.85376%)" offset="0.828125"/><stop stop-opacity="1" stop-color="rgb(0%, 52.923584%, 68.891907%)" offset="0.835938"/><stop stop-opacity="1" stop-color="rgb(0%, 53.19519%, 68.93158%)" offset="0.84375"/><stop stop-opacity="1" stop-color="rgb(0%, 53.468323%, 68.971252%)" offset="0.851563"/><stop stop-opacity="1" stop-color="rgb(0%, 53.739929%, 69.010925%)" offset="0.859375"/><stop stop-opacity="1" stop-color="rgb(0%, 54.013062%, 69.050598%)" offset="0.867187"/><stop stop-opacity="1" stop-color="rgb(0%, 54.286194%, 69.088745%)" offset="0.875"/><stop stop-opacity="1" stop-color="rgb(0%, 54.5578%, 69.128418%)" offset="0.882812"/><stop stop-opacity="1" stop-color="rgb(0%, 54.830933%, 69.168091%)" offset="0.890625"/><stop stop-opacity="1" stop-color="rgb(0%, 55.102539%, 69.207764%)" offset="0.898438"/><stop stop-opacity="1" stop-color="rgb(0%, 55.375671%, 69.247437%)" offset="0.90625"/><stop stop-opacity="1" stop-color="rgb(0%, 55.648804%, 69.285583%)" offset="0.914062"/><stop stop-opacity="1" stop-color="rgb(0%, 55.92041%, 69.325256%)" offset="0.921875"/><stop stop-opacity="1" stop-color="rgb(0%, 56.193542%, 69.364929%)" offset="0.929688"/><stop stop-opacity="1" stop-color="rgb(0%, 56.465149%, 69.404602%)" offset="0.9375"/><stop stop-opacity="1" stop-color="rgb(0%, 56.738281%, 69.444275%)" offset="0.945313"/><stop stop-opacity="1" stop-color="rgb(0%, 57.011414%, 69.482422%)" offset="0.953125"/><stop stop-opacity="1" stop-color="rgb(0%, 57.28302%, 69.522095%)" offset="0.960937"/><stop stop-opacity="1" stop-color="rgb(0%, 57.556152%, 69.561768%)" offset="0.96875"/><stop stop-opacity="1" stop-color="rgb(0%, 57.827759%, 69.60144%)" offset="0.976562"/><stop stop-opacity="1" stop-color="rgb(0%, 58.100891%, 69.641113%)" offset="0.984375"/><stop stop-opacity="1" stop-color="rgb(0%, 58.374023%, 69.67926%)" offset="0.992188"/><stop stop-opacity="1" stop-color="rgb(0%, 58.64563%, 69.718933%)" offset="1"/></linearGradient><mask id="df51ff10f6"><g filter="url(#c1c2712b4d)"><rect x="-37.5" width="450" fill="#000000" y="-37.499999" height="449.999989" fill-opacity="0.3294"/></g></mask><clipPath id="0a40c0ca7e"><path d="M 1.011719 1.042969 L 235.761719 1.042969 L 235.761719 235.792969 L 1.011719 235.792969 Z M 1.011719 1.042969 " clip-rule="nonzero"/></clipPath><clipPath id="4852ef5655"><rect x="0" width="237" y="0" height="237"/></clipPath><clipPath id="7634b2b554"><path d="M 70.011719 70.011719 L 304.761719 70.011719 L 304.761719 304.761719 L 70.011719 304.761719 Z M 70.011719 70.011719 " clip-rule="nonzero"/></clipPath></defs><g clip-path="url(#316524a77f)"><g clip-path="url(#be3bb1a956)"><path fill="url(#8097a7d006)" d="M 6.660156 6.660156 L 6.660156 368.160156 L 368.160156 368.160156 L 368.160156 6.660156 Z M 6.660156 6.660156 " fill-rule="nonzero"/></g></g><g mask="url(#df51ff10f6)"><g transform="matrix(1, 0, 0, 1, 69, 75)"><g clip-path="url(#4852ef5655)"><path fill="#000000" d="M 16.660156 16.691406 L 24.484375 16.691406 L 24.484375 24.515625 L 16.660156 24.515625 Z M 16.660156 16.691406 " fill-opacity="1" fill-rule="nonzero"/><path fill="#000000" d="M 32.3125 16.691406 L 40.136719 16.691406 L 40.136719 24.515625 L 32.3125 24.515625 Z M 32.3125 16.691406 " fill-opacity="1" fill-rule="nonzero"/><path fill="#000000" d="M 47.960938 16.691406 L 55.785156 16.691406 L 55.785156 24.515625 L 47.960938 24.515625 Z M 47.960938 16.691406 " fill-opacity="1" fill-rule="nonzero"/><g clip-path="url(#0a40c0ca7e)"><path fill="#000000" d="M 224.023438 1.042969 L 12.75 1.042969 C 6.292969 1.042969 1.011719 6.324219 1.011719 12.777344 L 1.011719 224.054688 C 1.011719 230.511719 6.292969 235.792969 12.75 235.792969 L 224.023438 235.792969 C 230.480469 235.792969 235.761719 230.511719 235.761719 224.054688 L 235.761719 12.777344 C 235.761719 6.324219 230.480469 1.042969 224.023438 1.042969 Z M 227.9375 16.691406 L 63.609375 16.691406 L 63.609375 24.515625 L 227.9375 24.515625 L 227.9375 224.054688 C 227.9375 226.207031 226.175781 227.964844 224.023438 227.964844 L 12.75 227.964844 C 10.597656 227.964844 8.835938 226.207031 8.835938 224.054688 L 8.835938 12.777344 C 8.835938 10.628906 10.597656 8.867188 12.75 8.867188 L 224.023438 8.867188 C 226.175781 8.867188 227.9375 10.628906 227.9375 12.777344 Z M 227.9375 16.691406 " fill-opacity="1" fill-rule="nonzero"/></g><path fill="#000000" d="M 75.347656 40.167969 L 161.421875 40.167969 L 161.421875 47.992188 L 75.347656 47.992188 Z M 75.347656 40.167969 " fill-opacity="1" fill-rule="nonzero"/><path fill="#000000" d="M 24.484375 75.378906 L 24.484375 98.855469 C 24.484375 101.007812 26.246094 102.765625 28.398438 102.765625 L 145.773438 102.765625 L 145.773438 94.941406 L 32.3125 94.941406 L 32.3125 79.292969 L 204.460938 79.292969 L 204.460938 94.941406 L 192.722656 94.941406 L 192.722656 102.765625 L 208.375 102.765625 C 210.523438 102.765625 212.285156 101.007812 212.285156 98.855469 L 212.285156 75.378906 C 212.285156 73.226562 210.523438 71.464844 208.375 71.464844 L 28.398438 71.464844 C 26.246094 71.464844 24.484375 73.226562 24.484375 75.378906 Z M 24.484375 75.378906 " fill-opacity="1" fill-rule="nonzero"/><path fill="#000000" d="M 24.484375 55.816406 L 59.699219 55.816406 L 59.699219 63.640625 L 24.484375 63.640625 Z M 24.484375 55.816406 " fill-opacity="1" fill-rule="nonzero"/><path fill="#000000" d="M 24.484375 114.503906 L 79.261719 114.503906 L 79.261719 122.328125 L 24.484375 122.328125 Z M 24.484375 114.503906 " fill-opacity="1" fill-rule="nonzero"/><path fill="#000000" d="M 208.375 130.152344 L 196.636719 130.152344 L 196.636719 137.980469 L 204.460938 137.980469 L 204.460938 153.628906 L 184.117188 153.628906 L 188.8125 151.917969 C 190.816406 151.183594 191.890625 148.933594 191.160156 146.878906 L 182.109375 122.183594 L 193.164062 121.007812 C 194.777344 120.8125 196.097656 119.6875 196.539062 118.125 C 196.976562 116.558594 196.390625 114.894531 195.070312 113.964844 L 160.886719 89.023438 C 159.808594 88.242188 158.441406 88.046875 157.21875 88.535156 C 155.996094 88.976562 155.066406 90.003906 154.773438 91.273438 L 144.894531 132.402344 C 144.5 133.96875 145.136719 135.632812 146.457031 136.5625 C 147.777344 137.488281 149.539062 137.488281 150.859375 136.5625 L 160.054688 130.300781 L 168.613281 153.628906 L 32.3125 153.628906 L 32.3125 137.980469 L 137.949219 137.980469 L 137.949219 130.152344 L 28.398438 130.152344 C 26.246094 130.152344 24.484375 131.914062 24.484375 134.066406 L 24.484375 157.542969 C 24.484375 159.695312 26.246094 161.453125 28.398438 161.453125 L 208.375 161.453125 C 210.523438 161.453125 212.285156 159.695312 212.285156 157.542969 L 212.285156 134.066406 C 212.285156 131.914062 210.523438 130.152344 208.375 130.152344 Z M 163.183594 120.519531 C 162.792969 120.371094 162.402344 120.324219 162.011719 120.324219 C 161.226562 120.324219 160.445312 120.570312 159.808594 121.007812 L 154.820312 124.382812 L 160.984375 98.804688 L 182.257812 114.359375 L 176.289062 114.992188 C 175.066406 115.140625 174.042969 115.777344 173.40625 116.804688 C 172.769531 117.828125 172.621094 119.101562 173.0625 120.226562 L 182.503906 145.949219 L 175.167969 148.640625 L 165.726562 122.917969 C 165.238281 121.792969 164.359375 120.910156 163.183594 120.519531 Z M 163.183594 120.519531 " fill-opacity="1" fill-rule="nonzero"/><path fill="#000000" d="M 24.484375 173.191406 L 79.261719 173.191406 L 79.261719 181.015625 L 24.484375 181.015625 Z M 24.484375 173.191406 " fill-opacity="1" fill-rule="nonzero"/><path fill="#000000" d="M 208.375 188.839844 L 28.398438 188.839844 C 26.246094 188.839844 24.484375 190.601562 24.484375 192.753906 L 24.484375 216.230469 C 24.484375 218.382812 26.246094 220.140625 28.398438 220.140625 L 208.375 220.140625 C 210.523438 220.140625 212.285156 218.382812 212.285156 216.230469 L 212.285156 192.753906 C 212.285156 190.601562 210.523438 188.839844 208.375 188.839844 Z M 204.460938 212.316406 L 32.3125 212.316406 L 32.3125 196.667969 L 204.460938 196.667969 Z M 204.460938 212.316406 " fill-opacity="1" fill-rule="nonzero"/></g></g></g><path fill="#ffffff" d="M 85.660156 85.660156 L 93.484375 85.660156 L 93.484375 93.484375 L 85.660156 93.484375 Z M 85.660156 85.660156 " fill-opacity="1" fill-rule="nonzero"/><path fill="#ffffff" d="M 101.3125 85.660156 L 109.136719 85.660156 L 109.136719 93.484375 L 101.3125 93.484375 Z M 101.3125 85.660156 " fill-opacity="1" fill-rule="nonzero"/><path fill="#ffffff" d="M 116.960938 85.660156 L 124.785156 85.660156 L 124.785156 93.484375 L 116.960938 93.484375 Z M 116.960938 85.660156 " fill-opacity="1" fill-rule="nonzero"/><g clip-path="url(#7634b2b554)"><path fill="#ffffff" d="M 293.023438 70.011719 L 81.75 70.011719 C 75.292969 70.011719 70.011719 75.292969 70.011719 81.75 L 70.011719 293.023438 C 70.011719 299.480469 75.292969 304.761719 81.75 304.761719 L 293.023438 304.761719 C 299.480469 304.761719 304.761719 299.480469 304.761719 293.023438 L 304.761719 81.75 C 304.761719 75.292969 299.480469 70.011719 293.023438 70.011719 Z M 296.9375 85.660156 L 132.609375 85.660156 L 132.609375 93.484375 L 296.9375 93.484375 L 296.9375 293.023438 C 296.9375 295.175781 295.175781 296.9375 293.023438 296.9375 L 81.75 296.9375 C 79.597656 296.9375 77.835938 295.175781 77.835938 293.023438 L 77.835938 81.75 C 77.835938 79.597656 79.597656 77.835938 81.75 77.835938 L 293.023438 77.835938 C 295.175781 77.835938 296.9375 79.597656 296.9375 81.75 Z M 296.9375 85.660156 " fill-opacity="1" fill-rule="nonzero"/></g><path fill="#ffffff" d="M 144.347656 109.136719 L 230.421875 109.136719 L 230.421875 116.960938 L 144.347656 116.960938 Z M 144.347656 109.136719 " fill-opacity="1" fill-rule="nonzero"/><path fill="#ffffff" d="M 93.484375 144.347656 L 93.484375 167.824219 C 93.484375 169.976562 95.246094 171.734375 97.398438 171.734375 L 214.773438 171.734375 L 214.773438 163.910156 L 101.3125 163.910156 L 101.3125 148.261719 L 273.460938 148.261719 L 273.460938 163.910156 L 261.722656 163.910156 L 261.722656 171.734375 L 277.375 171.734375 C 279.523438 171.734375 281.285156 169.976562 281.285156 167.824219 L 281.285156 144.347656 C 281.285156 142.195312 279.523438 140.4375 277.375 140.4375 L 97.398438 140.4375 C 95.246094 140.4375 93.484375 142.195312 93.484375 144.347656 Z M 93.484375 144.347656 " fill-opacity="1" fill-rule="nonzero"/><path fill="#ffffff" d="M 93.484375 124.785156 L 128.699219 124.785156 L 128.699219 132.609375 L 93.484375 132.609375 Z M 93.484375 124.785156 " fill-opacity="1" fill-rule="nonzero"/><path fill="#ffffff" d="M 93.484375 183.472656 L 148.261719 183.472656 L 148.261719 191.296875 L 93.484375 191.296875 Z M 93.484375 183.472656 " fill-opacity="1" fill-rule="nonzero"/><path fill="#ffffff" d="M 277.375 199.125 L 265.636719 199.125 L 265.636719 206.949219 L 273.460938 206.949219 L 273.460938 222.597656 L 253.117188 222.597656 L 257.8125 220.886719 C 259.816406 220.152344 260.890625 217.902344 260.160156 215.847656 L 251.109375 191.152344 L 262.164062 189.976562 C 263.777344 189.78125 265.097656 188.65625 265.539062 187.09375 C 265.976562 185.527344 265.390625 183.863281 264.070312 182.933594 L 229.886719 157.992188 C 228.808594 157.210938 227.441406 157.015625 226.21875 157.503906 C 224.996094 157.945312 224.066406 158.972656 223.773438 160.242188 L 213.894531 201.375 C 213.5 202.9375 214.136719 204.601562 215.457031 205.53125 C 216.777344 206.460938 218.539062 206.460938 219.859375 205.53125 L 229.054688 199.269531 L 237.613281 222.597656 L 101.3125 222.597656 L 101.3125 206.949219 L 206.949219 206.949219 L 206.949219 199.125 L 97.398438 199.125 C 95.246094 199.125 93.484375 200.882812 93.484375 203.035156 L 93.484375 226.511719 C 93.484375 228.664062 95.246094 230.421875 97.398438 230.421875 L 277.375 230.421875 C 279.523438 230.421875 281.285156 228.664062 281.285156 226.511719 L 281.285156 203.035156 C 281.285156 200.882812 279.523438 199.125 277.375 199.125 Z M 232.183594 189.488281 C 231.792969 189.34375 231.402344 189.292969 231.011719 189.292969 C 230.226562 189.292969 229.445312 189.539062 228.808594 189.976562 L 223.820312 193.351562 L 229.984375 167.773438 L 251.257812 183.328125 L 245.289062 183.960938 C 244.066406 184.109375 243.042969 184.746094 242.40625 185.773438 C 241.769531 186.800781 241.621094 188.070312 242.0625 189.195312 L 251.503906 214.921875 L 244.167969 217.609375 L 234.726562 191.886719 C 234.238281 190.761719 233.359375 189.878906 232.183594 189.488281 Z M 232.183594 189.488281 " fill-opacity="1" fill-rule="nonzero"/><path fill="#ffffff" d="M 93.484375 242.160156 L 148.261719 242.160156 L 148.261719 249.984375 L 93.484375 249.984375 Z M 93.484375 242.160156 " fill-opacity="1" fill-rule="nonzero"/><path fill="#ffffff" d="M 277.375 257.8125 L 97.398438 257.8125 C 95.246094 257.8125 93.484375 259.570312 93.484375 261.722656 L 93.484375 285.199219 C 93.484375 287.351562 95.246094 289.109375 97.398438 289.109375 L 277.375 289.109375 C 279.523438 289.109375 281.285156 287.351562 281.285156 285.199219 L 281.285156 261.722656 C 281.285156 259.570312 279.523438 257.8125 277.375 257.8125 Z M 273.460938 281.285156 L 101.3125 281.285156 L 101.3125 265.636719 L 273.460938 265.636719 Z M 273.460938 281.285156 " fill-opacity="1" fill-rule="nonzero"/></svg>